<svg width="51" height="59" viewBox="0 0 51 59" fill="none" xmlns="http://www.w3.org/2000/svg">
<path d="M25.835 0.352295L10.4789 9.1802L16.1169 12.4443L25.835 6.88049L35.5531 12.4443L41.191 9.1802L25.835 0.352295ZM35.5531 17.1179L41.191 20.382V26.9102L31.4729 32.474V43.6016L25.835 46.8657L20.197 43.6016V32.474L10.4789 26.9102V20.382L16.1169 17.1179L25.835 22.6817L35.5531 17.1179ZM41.191 31.5838V38.1119L35.5531 41.376V34.8478L41.191 31.5838ZM35.4789 45.9754L45.197 40.4116V29.284L50.835 26.02V43.7499L35.4789 52.5778V45.9754ZM45.197 18.0823L39.559 14.8182L45.197 11.5541L50.835 14.8182V21.3464L45.197 24.6105V18.0823ZM20.197 54.8775V48.3493L25.835 51.6134L31.4729 48.3493V54.8775L25.835 58.1416L20.197 54.8775ZM16.1169 41.376L10.4789 38.1119V31.5838L16.1169 34.8478V41.376ZM25.835 18.0823L20.197 14.8182L25.835 11.5541L31.4729 14.8182L25.835 18.0823ZM12.1109 14.8182L6.47294 18.0823V24.6105L0.834961 21.3464V14.8182L6.47294 11.5541L12.1109 14.8182ZM0.834961 25.9458L6.47294 29.2099V40.3375L16.191 45.9013V52.4295L0.834961 43.6016V25.9458Z" fill="#F0B90B"/>
</svg>
