<svg width="58" height="58" viewBox="0 0 58 58" fill="none" xmlns="http://www.w3.org/2000/svg">
<path d="M49.8736 6.93164L32.0723 20.1529L35.3642 12.3525L49.8736 6.93164Z" fill="#E2761B" stroke="#E2761B" stroke-linecap="round" stroke-linejoin="round"/>
<path d="M8.77832 6.93164L26.4365 20.2782L23.3056 12.3525L8.77832 6.93164Z" fill="#E4761B" stroke="#E4761B" stroke-linecap="round" stroke-linejoin="round"/>
<path d="M43.4686 37.5785L38.7275 44.8421L48.8716 47.6331L51.7878 37.7395L43.4686 37.5785Z" fill="#E4761B" stroke="#E4761B" stroke-linecap="round" stroke-linejoin="round"/>
<path d="M6.8999 37.7395L9.79821 47.6331L19.9423 44.8421L15.2012 37.5785L6.8999 37.7395Z" fill="#E4761B" stroke="#E4761B" stroke-linecap="round" stroke-linejoin="round"/>
<path d="M19.3697 25.3053L16.543 29.5812L26.6155 30.0285L26.2577 19.2046L19.3697 25.3053Z" fill="#E4761B" stroke="#E4761B" stroke-linecap="round" stroke-linejoin="round"/>
<path d="M39.2822 25.3053L32.3048 19.0793L32.0723 30.0285L42.1269 29.5812L39.2822 25.3053Z" fill="#E4761B" stroke="#E4761B" stroke-linecap="round" stroke-linejoin="round"/>
<path d="M19.9424 44.8421L25.9895 41.8901L20.7654 37.811L19.9424 44.8421Z" fill="#E4761B" stroke="#E4761B" stroke-linecap="round" stroke-linejoin="round"/>
<path d="M32.6626 41.8901L38.7276 44.8421L37.8867 37.811L32.6626 41.8901Z" fill="#E4761B" stroke="#E4761B" stroke-linecap="round" stroke-linejoin="round"/>
<path d="M38.7276 44.8425L32.6626 41.8905L33.1457 45.8444L33.092 47.5082L38.7276 44.8425Z" fill="#D7C1B3" stroke="#D7C1B3" stroke-linecap="round" stroke-linejoin="round"/>
<path d="M19.9424 44.8425L25.578 47.5082L25.5422 45.8444L25.9895 41.8905L19.9424 44.8425Z" fill="#D7C1B3" stroke="#D7C1B3" stroke-linecap="round" stroke-linejoin="round"/>
<path d="M25.6673 35.1992L20.6221 33.7142L24.1823 32.0862L25.6673 35.1992Z" fill="#233447" stroke="#233447" stroke-linecap="round" stroke-linejoin="round"/>
<path d="M32.9849 35.1992L34.4698 32.0862L38.048 33.7142L32.9849 35.1992Z" fill="#233447" stroke="#233447" stroke-linecap="round" stroke-linejoin="round"/>
<path d="M19.9422 44.8423L20.801 37.5786L15.2012 37.7396L19.9422 44.8423Z" fill="#CD6116" stroke="#CD6116" stroke-linecap="round" stroke-linejoin="round"/>
<path d="M37.8687 37.5786L38.7274 44.8423L43.4685 37.7396L37.8687 37.5786Z" fill="#CD6116" stroke="#CD6116" stroke-linecap="round" stroke-linejoin="round"/>
<path d="M42.1269 29.5814L32.0723 30.0287L33.0026 35.1991L34.4875 32.0861L38.0657 33.7142L42.1269 29.5814Z" fill="#CD6116" stroke="#CD6116" stroke-linecap="round" stroke-linejoin="round"/>
<path d="M20.6221 33.7142L24.2002 32.0861L25.6673 35.1991L26.6155 30.0287L16.543 29.5814L20.6221 33.7142Z" fill="#CD6116" stroke="#CD6116" stroke-linecap="round" stroke-linejoin="round"/>
<path d="M16.543 29.5814L20.7652 37.8112L20.6221 33.7142L16.543 29.5814Z" fill="#E4751F" stroke="#E4751F" stroke-linecap="round" stroke-linejoin="round"/>
<path d="M38.0656 33.7142L37.8867 37.8112L42.1268 29.5814L38.0656 33.7142Z" fill="#E4751F" stroke="#E4751F" stroke-linecap="round" stroke-linejoin="round"/>
<path d="M26.6157 30.0287L25.6675 35.1991L26.8483 41.2999L27.1166 33.2669L26.6157 30.0287Z" fill="#E4751F" stroke="#E4751F" stroke-linecap="round" stroke-linejoin="round"/>
<path d="M32.0719 30.0287L31.5889 33.249L31.8036 41.2999L33.0022 35.1991L32.0719 30.0287Z" fill="#E4751F" stroke="#E4751F" stroke-linecap="round" stroke-linejoin="round"/>
<path d="M33.0024 35.1992L31.8037 41.2999L32.6625 41.8903L37.8866 37.8112L38.0655 33.7142L33.0024 35.1992Z" fill="#F6851B" stroke="#F6851B" stroke-linecap="round" stroke-linejoin="round"/>
<path d="M20.6221 33.7142L20.7652 37.8112L25.9893 41.8903L26.8481 41.2999L25.6673 35.1992L20.6221 33.7142Z" fill="#F6851B" stroke="#F6851B" stroke-linecap="round" stroke-linejoin="round"/>
<path d="M33.0921 47.508L33.1458 45.8442L32.6985 45.4506H25.9537L25.5422 45.8442L25.578 47.508L19.9424 44.8423L21.9104 46.4525L25.9 49.2255H32.7522L36.7597 46.4525L38.7277 44.8423L33.0921 47.508Z" fill="#C0AD9E" stroke="#C0AD9E" stroke-linecap="round" stroke-linejoin="round"/>
<path d="M32.6625 41.8903L31.8038 41.2999H26.848L25.9893 41.8903L25.542 45.8442L25.9535 45.4506H32.6983L33.1456 45.8442L32.6625 41.8903Z" fill="#161616" stroke="#161616" stroke-linecap="round" stroke-linejoin="round"/>
<path d="M50.6244 21.0117L52.1452 13.7122L49.873 6.93164L32.6621 19.7057L39.2817 25.3055L48.6386 28.0428L50.7139 25.6275L49.8194 24.9834L51.2506 23.6774L50.1414 22.8186L51.5727 21.7273L50.6244 21.0117Z" fill="#763D16" stroke="#763D16" stroke-linecap="round" stroke-linejoin="round"/>
<path d="M6.52393 13.7122L8.04464 21.0117L7.07854 21.7273L8.5098 22.8186L7.41846 23.6774L8.84973 24.9834L7.95519 25.6275L10.0126 28.0428L19.3695 25.3055L25.9891 19.7057L8.77816 6.93164L6.52393 13.7122Z" fill="#763D16" stroke="#763D16" stroke-linecap="round" stroke-linejoin="round"/>
<path d="M48.6391 28.043L39.2822 25.3057L42.1268 29.5816L37.8867 37.8113L43.4686 37.7397H51.7878L48.6391 28.043Z" fill="#F6851B" stroke="#F6851B" stroke-linecap="round" stroke-linejoin="round"/>
<path d="M19.3698 25.3057L10.0129 28.043L6.8999 37.7397H15.2012L20.7653 37.8113L16.543 29.5816L19.3698 25.3057Z" fill="#F6851B" stroke="#F6851B" stroke-linecap="round" stroke-linejoin="round"/>
<path d="M32.0721 30.0289L32.6625 19.7059L35.3819 12.3528H23.3057L25.9893 19.7059L26.6155 30.0289L26.8301 33.285L26.848 41.3001H31.8038L31.8396 33.285L32.0721 30.0289Z" fill="#F6851B" stroke="#F6851B" stroke-linecap="round" stroke-linejoin="round"/>
</svg>
