<svg width="21" height="21" viewBox="0 0 21 21" fill="none" xmlns="http://www.w3.org/2000/svg">
<path d="M16.3943 3.95963H5.8387C5.61769 3.95963 5.40573 4.04742 5.24945 4.2037C5.09317 4.35998 5.00537 4.57194 5.00537 4.79296V18.1263C5.00537 18.3473 5.09317 18.5593 5.24945 18.7155C5.40573 18.8718 5.61769 18.9596 5.8387 18.9596H16.3943C16.6153 18.9596 16.8272 18.8718 16.9835 18.7155C17.1398 18.5593 17.2276 18.3473 17.2276 18.1263V4.79296C17.2276 4.57194 17.1398 4.35998 16.9835 4.2037C16.8272 4.04742 16.6153 3.95963 16.3943 3.95963ZM16.1165 17.8485H6.11648V5.07074H16.1165V17.8485Z" fill="#032621"/>
<path d="M14.4498 2.01519C14.4498 1.79417 14.362 1.58221 14.2057 1.42593C14.0494 1.26965 13.8374 1.18185 13.6164 1.18185H3.06087C2.83986 1.18185 2.6279 1.26965 2.47162 1.42593C2.31534 1.58221 2.22754 1.79417 2.22754 2.01519V15.3485C2.22754 15.5695 2.31534 15.7815 2.47162 15.9378C2.6279 16.0941 2.83986 16.1819 3.06087 16.1819H3.33865V2.29297H14.4498V2.01519Z" fill="#032621"/>
</svg>
