<svg width="613" height="112" viewBox="0 0 613 112" fill="none" xmlns="http://www.w3.org/2000/svg">
<path d="M13.6258 12.3084L1.17871 5.08021V111.686H611.841V20.5378L598.639 10.6187L586.192 17.2836L573.745 31.8964L561.298 5.48699L548.851 15.6565L536.403 20.5378L523.956 28.3605L511.509 7.70863L499.062 27.8912L486.615 1.48177L474.168 3.60954L461.721 27.985L449.274 10.5248L436.827 17.9407L424.38 9.05413L411.933 12.4648L399.485 3.73471L387.038 11.088L374.591 16.3449L362.144 4.54827L349.697 14.1545L337.25 1.23145L324.803 4.39181L312.356 18.2849L299.909 26.8586L287.462 4.20407L275.015 10.3683L262.568 17.3462L250.12 3.766L237.673 8.45961L225.226 16.9081L212.779 12.9029L200.332 18.5039L187.885 6.89507L175.438 19.5365L162.991 17.6278L150.544 13.1219L138.097 7.17669L125.65 31.5835L113.202 24.2302L100.755 29.3618L88.3083 12.9655L75.8612 13.1532L63.4141 25.5757L50.9671 12.7777L38.52 16.0007L26.0729 18.5352L13.6258 12.3084Z" fill="url(#paint0_linear)"/>
<path d="M1.17871 5.08021L13.6258 12.3084L26.0729 18.5352L38.52 16.0007L50.9671 12.7777L63.4141 25.5757L75.8612 13.1532L88.3083 12.9655L100.755 29.3618L113.202 24.2302L125.65 31.5835L138.097 7.17669L150.544 13.1219L162.991 17.6278L175.438 19.5365L187.885 6.89507L200.332 18.5039L212.779 12.9029L225.226 16.9081L237.673 8.45961L250.12 3.766L262.568 17.3462L275.015 10.3683L287.462 4.20407L299.909 26.8586L312.356 18.2849L324.803 4.39181L337.25 1.23145L349.697 14.1545L362.144 4.54827L374.591 16.3449L387.038 11.088L399.485 3.73471L411.933 12.4648L424.38 9.05413L436.827 17.9407L449.274 10.5248L461.721 27.985L474.168 3.60954L486.615 1.48177L499.062 27.8912L511.509 7.70863L523.956 28.3605L536.403 20.5378L548.851 15.6565L561.298 5.48699L573.745 31.8964L586.192 17.2836L598.639 10.6187L611.841 20.5378" stroke="#032621" stroke-opacity="0.6"/>
<defs>
<linearGradient id="paint0_linear" x1="306.51" y1="1.23145" x2="306.51" y2="150.685" gradientUnits="userSpaceOnUse">
<stop stop-color="#032621" stop-opacity="0.1"/>
<stop offset="1" stop-color="#032621" stop-opacity="0"/>
</linearGradient>
</defs>
</svg>
