<svg width="1240" height="801" viewBox="0 0 1240 801" fill="none" xmlns="http://www.w3.org/2000/svg">
<mask id="mask0_1557:5541" style="mask-type:alpha" maskUnits="userSpaceOnUse" x="0" y="0" width="1240" height="801">
<rect y="0.630371" width="1240" height="800" rx="10" fill="url(#paint0_linear_1557:5541)"/>
</mask>
<g mask="url(#mask0_1557:5541)">
<rect y="0.630371" width="1240" height="800" rx="10" fill="url(#paint1_linear_1557:5541)"/>
<path opacity="0.8" d="M1078.31 89.0865H1085.32V87.3905H1080.44V77.6465H1078.31V89.0865ZM1089.16 89.2465C1090.44 89.2465 1091.17 88.7825 1091.72 88.0625V89.0865H1093.62V83.5985C1093.62 81.3105 1092.15 80.5425 1090.28 80.5425C1088.4 80.5425 1086.85 81.3585 1086.69 83.3105H1088.56C1088.66 82.4785 1089.16 81.9985 1090.16 81.9985C1091.3 81.9985 1091.68 82.5585 1091.68 83.6785V84.1105H1090.64C1088.24 84.1105 1086.36 84.8145 1086.36 86.7665C1086.36 88.5105 1087.62 89.2465 1089.16 89.2465ZM1089.62 87.8545C1088.66 87.8545 1088.28 87.3905 1088.28 86.6865C1088.28 85.6625 1089.22 85.3265 1090.69 85.3265H1091.68V86.1585C1091.68 87.2305 1090.8 87.8545 1089.62 87.8545ZM1098.64 89.2465C1100 89.2465 1100.88 88.5905 1101.3 87.7745V89.0865H1103.23V80.7185H1101.3V85.6945C1101.3 87.0225 1100.38 87.6945 1099.34 87.6945C1098.22 87.6945 1097.7 87.1185 1097.7 85.8545V80.7185H1095.76V86.0785C1095.76 88.3025 1096.99 89.2465 1098.64 89.2465ZM1105.53 89.0865H1107.46V84.1585C1107.46 82.8305 1108.34 82.1585 1109.43 82.1585C1110.58 82.1585 1111.1 82.7345 1111.1 83.9985V89.0865H1113.03V83.8225C1113.03 81.5185 1111.85 80.5425 1110.17 80.5425C1108.79 80.5425 1107.86 81.2305 1107.46 82.0465V80.7185H1105.53V89.0865ZM1118.93 89.2465C1121.2 89.2465 1122.65 87.8865 1122.8 85.9665H1121.02C1120.91 87.1505 1120.03 87.7585 1119.01 87.7585C1117.58 87.7585 1116.69 86.7985 1116.69 84.9745V84.8465C1116.69 83.1185 1117.63 82.0945 1118.96 82.0945C1119.98 82.0945 1120.72 82.5585 1120.88 83.6785H1122.75C1122.53 81.3745 1120.78 80.5425 1118.93 80.5425C1116.59 80.5425 1114.7 82.2225 1114.7 84.8785V85.0065C1114.7 87.6785 1116.53 89.2465 1118.93 89.2465ZM1124.46 89.0865H1126.4V84.1585C1126.4 82.8305 1127.28 82.1585 1128.37 82.1585C1129.52 82.1585 1130.03 82.7345 1130.03 83.9985V89.0865H1131.97V83.8225C1131.97 81.5185 1130.78 80.5425 1129.1 80.5425C1127.73 80.5425 1126.8 81.2305 1126.4 82.0465V76.8465H1124.46V89.0865ZM1134.2 91.9505H1136.13V87.7745C1136.58 88.5905 1137.54 89.2465 1138.87 89.2465C1141.03 89.2465 1142.58 87.6145 1142.58 84.9265V84.7985C1142.58 82.0945 1140.97 80.5425 1138.87 80.5425C1137.64 80.5425 1136.6 81.2625 1136.13 82.0625V80.7185H1134.2V91.9505ZM1138.39 87.7105C1136.98 87.7105 1136.07 86.8305 1136.07 84.9585V84.8305C1136.07 82.9745 1137.03 82.0625 1138.37 82.0625C1139.64 82.0625 1140.6 82.9745 1140.6 84.8305V84.9585C1140.6 86.7505 1139.81 87.7105 1138.39 87.7105ZM1146.52 89.2465C1147.8 89.2465 1148.53 88.7825 1149.08 88.0625V89.0865H1150.98V83.5985C1150.98 81.3105 1149.51 80.5425 1147.64 80.5425C1145.76 80.5425 1144.21 81.3585 1144.05 83.3105H1145.92C1146.02 82.4785 1146.52 81.9985 1147.52 81.9985C1148.66 81.9985 1149.04 82.5585 1149.04 83.6785V84.1105H1148C1145.6 84.1105 1143.72 84.8145 1143.72 86.7665C1143.72 88.5105 1144.98 89.2465 1146.52 89.2465ZM1146.98 87.8545C1146.02 87.8545 1145.64 87.3905 1145.64 86.6865C1145.64 85.6625 1146.58 85.3265 1148.05 85.3265H1149.04V86.1585C1149.04 87.2305 1148.16 87.8545 1146.98 87.8545ZM1156.33 89.2465C1157.57 89.2465 1158.64 88.5105 1159.09 87.6785V89.0865H1161.02V76.8465H1159.09V81.9985C1158.62 81.1665 1157.77 80.5425 1156.41 80.5425C1154.24 80.5425 1152.65 82.2385 1152.65 84.9105V85.0385C1152.65 87.7585 1154.24 89.2465 1156.33 89.2465ZM1156.81 87.7105C1155.57 87.7105 1154.64 86.8305 1154.64 84.9905V84.8625C1154.64 83.0545 1155.47 82.0625 1156.89 82.0625C1158.3 82.0625 1159.15 82.9745 1159.15 84.8145V84.9425C1159.15 86.8145 1158.16 87.7105 1156.81 87.7105Z" fill="white"/>
<path opacity="0.3" d="M1063.45 79.9427L1067.45 83.6927L1063.45 87.4427" stroke="white" stroke-width="2" stroke-linecap="round"/>
<path opacity="0.8" d="M1109.2 178.83C1111.73 178.83 1113.41 177.278 1113.41 175.294C1113.41 173.006 1112.02 172.238 1109.33 171.87C1107.34 171.582 1106.96 171.118 1106.96 170.19C1106.96 169.31 1107.63 168.686 1108.93 168.686C1110.24 168.686 1110.93 169.198 1111.14 170.398H1113.09C1112.86 168.206 1111.39 167.086 1108.93 167.086C1106.54 167.086 1104.94 168.494 1104.94 170.366C1104.94 172.51 1106.24 173.342 1108.98 173.71C1110.83 174.014 1111.36 174.414 1111.36 175.47C1111.36 176.526 1110.46 177.23 1109.2 177.23C1107.26 177.23 1106.8 176.27 1106.66 175.118H1104.61C1104.77 177.278 1106.08 178.83 1109.2 178.83ZM1118.16 178.814C1118.75 178.814 1119.16 178.718 1119.47 178.606V177.07C1119.2 177.182 1118.91 177.23 1118.52 177.23C1117.92 177.23 1117.56 176.894 1117.56 176.158V171.758H1119.4V170.302H1117.56V168.462H1115.63V170.302H1114.51V171.758H1115.63V176.334C1115.63 177.918 1116.49 178.814 1118.16 178.814ZM1123.48 178.83C1124.76 178.83 1125.5 178.366 1126.04 177.646V178.67H1127.95V173.182C1127.95 170.894 1126.48 170.126 1124.6 170.126C1122.73 170.126 1121.18 170.942 1121.02 172.894H1122.89C1122.99 172.062 1123.48 171.582 1124.49 171.582C1125.63 171.582 1126.01 172.142 1126.01 173.262V173.694H1124.97C1122.57 173.694 1120.68 174.398 1120.68 176.35C1120.68 178.094 1121.95 178.83 1123.48 178.83ZM1123.95 177.438C1122.99 177.438 1122.6 176.974 1122.6 176.27C1122.6 175.246 1123.55 174.91 1125.02 174.91H1126.01V175.742C1126.01 176.814 1125.13 177.438 1123.95 177.438ZM1130.17 178.67H1132.1V174.558L1135.24 178.67H1137.48L1133.96 174.142L1137.21 170.302H1135.1L1132.1 173.982V166.43H1130.17V178.67ZM1138.86 178.67H1140.79V170.302H1138.86V178.67ZM1139.8 168.926C1140.44 168.926 1140.95 168.446 1140.95 167.822C1140.95 167.182 1140.44 166.702 1139.8 166.702C1139.16 166.702 1138.65 167.182 1138.65 167.822C1138.65 168.446 1139.16 168.926 1139.8 168.926ZM1143.15 178.67H1145.09V173.742C1145.09 172.414 1145.97 171.742 1147.06 171.742C1148.21 171.742 1148.72 172.318 1148.72 173.582V178.67H1150.66V173.406C1150.66 171.102 1149.47 170.126 1147.79 170.126C1146.42 170.126 1145.49 170.814 1145.09 171.63V170.302H1143.15V178.67ZM1156.45 181.742C1159.05 181.742 1160.69 180.51 1160.71 178.046V170.302H1158.77V171.582C1158.29 170.75 1157.46 170.126 1156.09 170.126C1153.93 170.126 1152.33 171.886 1152.33 174.238V174.35C1152.33 176.766 1153.94 178.334 1156.04 178.334C1157.27 178.334 1158.31 177.582 1158.77 176.782V178.014C1158.77 179.518 1157.94 180.27 1156.44 180.27C1155.17 180.27 1154.53 179.79 1154.37 178.958H1152.42C1152.65 180.558 1153.83 181.742 1156.45 181.742ZM1156.52 176.846C1155.27 176.846 1154.31 175.886 1154.31 174.334V174.206C1154.31 172.686 1155.14 171.646 1156.58 171.646C1157.97 171.646 1158.84 172.59 1158.84 174.174V174.286C1158.84 175.886 1157.86 176.846 1156.52 176.846Z" fill="white"/>
<path opacity="0.3" d="M1089 170.17L1093 173.92L1089 177.67" stroke="white" stroke-width="2" stroke-linecap="round"/>
<path opacity="0.8" d="M1091.2 268.414C1093.73 268.414 1095.41 266.862 1095.41 264.878C1095.41 262.59 1094.02 261.822 1091.33 261.454C1089.34 261.166 1088.96 260.702 1088.96 259.774C1088.96 258.894 1089.63 258.27 1090.93 258.27C1092.24 258.27 1092.93 258.782 1093.14 259.982H1095.09C1094.86 257.79 1093.39 256.67 1090.93 256.67C1088.54 256.67 1086.94 258.078 1086.94 259.95C1086.94 262.094 1088.24 262.926 1090.98 263.294C1092.83 263.598 1093.36 263.998 1093.36 265.054C1093.36 266.11 1092.46 266.814 1091.2 266.814C1089.26 266.814 1088.8 265.854 1088.66 264.702H1086.61C1086.77 266.862 1088.08 268.414 1091.2 268.414ZM1098.88 268.254H1100.86L1102.56 262.622L1104.11 268.254H1106.08L1108.7 259.886H1106.82L1105.07 265.934L1103.44 259.886H1101.82L1100.05 265.934L1098.38 259.886H1096.32L1098.88 268.254ZM1112.14 268.414C1113.42 268.414 1114.16 267.95 1114.7 267.23V268.254H1116.6V262.766C1116.6 260.478 1115.13 259.71 1113.26 259.71C1111.39 259.71 1109.84 260.526 1109.68 262.478H1111.55C1111.64 261.646 1112.14 261.166 1113.15 261.166C1114.28 261.166 1114.67 261.726 1114.67 262.846V263.278H1113.63C1111.23 263.278 1109.34 263.982 1109.34 265.934C1109.34 267.678 1110.6 268.414 1112.14 268.414ZM1112.6 267.022C1111.64 267.022 1111.26 266.558 1111.26 265.854C1111.26 264.83 1112.2 264.494 1113.68 264.494H1114.67V265.326C1114.67 266.398 1113.79 267.022 1112.6 267.022ZM1118.82 271.118H1120.76V266.942C1121.21 267.758 1122.17 268.414 1123.5 268.414C1125.66 268.414 1127.21 266.782 1127.21 264.094V263.966C1127.21 261.262 1125.59 259.71 1123.5 259.71C1122.26 259.71 1121.22 260.43 1120.76 261.23V259.886H1118.82V271.118ZM1123.02 266.878C1121.61 266.878 1120.7 265.998 1120.7 264.126V263.998C1120.7 262.142 1121.66 261.23 1123 261.23C1124.26 261.23 1125.22 262.142 1125.22 263.998V264.126C1125.22 265.918 1124.44 266.878 1123.02 266.878ZM1128.95 271.118H1130.88V266.942C1131.33 267.758 1132.29 268.414 1133.62 268.414C1135.78 268.414 1137.33 266.782 1137.33 264.094V263.966C1137.33 261.262 1135.72 259.71 1133.62 259.71C1132.39 259.71 1131.35 260.43 1130.88 261.23V259.886H1128.95V271.118ZM1133.14 266.878C1131.73 266.878 1130.82 265.998 1130.82 264.126V263.998C1130.82 262.142 1131.78 261.23 1133.12 261.23C1134.39 261.23 1135.35 262.142 1135.35 263.998V264.126C1135.35 265.918 1134.56 266.878 1133.14 266.878ZM1139.12 268.254H1141.06V259.886H1139.12V268.254ZM1140.07 258.51C1140.71 258.51 1141.22 258.03 1141.22 257.406C1141.22 256.766 1140.71 256.286 1140.07 256.286C1139.43 256.286 1138.91 256.766 1138.91 257.406C1138.91 258.03 1139.43 258.51 1140.07 258.51ZM1143.42 268.254H1145.35V263.326C1145.35 261.998 1146.23 261.326 1147.32 261.326C1148.47 261.326 1148.99 261.902 1148.99 263.166V268.254H1150.92V262.99C1150.92 260.686 1149.74 259.71 1148.06 259.71C1146.68 259.71 1145.75 260.398 1145.35 261.214V259.886H1143.42V268.254ZM1156.72 271.326C1159.31 271.326 1160.96 270.094 1160.98 267.63V259.886H1159.04V261.166C1158.56 260.334 1157.73 259.71 1156.35 259.71C1154.19 259.71 1152.59 261.47 1152.59 263.822V263.934C1152.59 266.35 1154.21 267.918 1156.3 267.918C1157.54 267.918 1158.58 267.166 1159.04 266.366V267.598C1159.04 269.102 1158.21 269.854 1156.7 269.854C1155.44 269.854 1154.8 269.374 1154.64 268.542H1152.69C1152.91 270.142 1154.1 271.326 1156.72 271.326ZM1156.78 266.43C1155.54 266.43 1154.58 265.47 1154.58 263.918V263.79C1154.58 262.27 1155.41 261.23 1156.85 261.23C1158.24 261.23 1159.1 262.174 1159.1 263.758V263.87C1159.1 265.47 1158.13 266.43 1156.78 266.43Z" fill="white"/>
<path opacity="0.3" d="M1072.45 259.754L1076.45 263.504L1072.45 267.254" stroke="white" stroke-width="2" stroke-linecap="round"/>
<path opacity="0.8" d="M1062.06 447.422H1064.21V442.478L1067.79 435.982H1065.71L1063.2 440.718L1060.62 435.982H1058.27L1062.06 442.462V447.422ZM1069.03 447.422H1070.96V439.054H1069.03V447.422ZM1069.97 437.678C1070.61 437.678 1071.12 437.198 1071.12 436.574C1071.12 435.934 1070.61 435.454 1069.97 435.454C1069.33 435.454 1068.82 435.934 1068.82 436.574C1068.82 437.198 1069.33 437.678 1069.97 437.678ZM1077 447.582C1079.15 447.582 1080.57 446.622 1080.84 444.862H1078.97C1078.83 445.678 1078.22 446.142 1077.05 446.142C1075.61 446.142 1074.81 445.246 1074.75 443.662H1080.88V443.102C1080.88 440.11 1079 438.878 1076.92 438.878C1074.54 438.878 1072.76 440.606 1072.76 443.198V443.326C1072.76 445.966 1074.54 447.582 1077 447.582ZM1074.78 442.366C1074.97 441.07 1075.76 440.286 1076.92 440.286C1078.12 440.286 1078.86 440.926 1078.96 442.366H1074.78ZM1082.65 447.422H1084.59V435.182H1082.65V447.422ZM1090.08 447.582C1091.32 447.582 1092.39 446.846 1092.84 446.014V447.422H1094.77V435.182H1092.84V440.334C1092.37 439.502 1091.52 438.878 1090.16 438.878C1087.99 438.878 1086.4 440.574 1086.4 443.246V443.374C1086.4 446.094 1087.99 447.582 1090.08 447.582ZM1090.56 446.046C1089.32 446.046 1088.39 445.166 1088.39 443.326V443.198C1088.39 441.39 1089.22 440.398 1090.64 440.398C1092.05 440.398 1092.9 441.31 1092.9 443.15V443.278C1092.9 445.15 1091.91 446.046 1090.56 446.046ZM1101.05 447.422H1103.17V442.734H1107.08V441.086H1103.17V437.678H1108.13V435.982H1101.05V447.422ZM1111.7 447.582C1112.98 447.582 1113.72 447.118 1114.26 446.398V447.422H1116.17V441.934C1116.17 439.646 1114.7 438.878 1112.82 438.878C1110.95 438.878 1109.4 439.694 1109.24 441.646H1111.11C1111.21 440.814 1111.7 440.334 1112.71 440.334C1113.85 440.334 1114.23 440.894 1114.23 442.014V442.446H1113.19C1110.79 442.446 1108.9 443.15 1108.9 445.102C1108.9 446.846 1110.17 447.582 1111.7 447.582ZM1112.17 446.19C1111.21 446.19 1110.82 445.726 1110.82 445.022C1110.82 443.998 1111.77 443.662 1113.24 443.662H1114.23V444.494C1114.23 445.566 1113.35 446.19 1112.17 446.19ZM1118.39 447.422H1120.32V443.07C1120.32 441.294 1121.35 440.75 1123.04 440.734V438.926C1121.63 438.942 1120.85 439.566 1120.32 440.622V439.054H1118.39V447.422ZM1124.75 447.422H1126.68V442.414C1126.68 441.134 1127.56 440.494 1128.52 440.494C1129.47 440.494 1130.01 441.022 1130.01 442.254V447.422H1131.95V442.414C1131.95 441.134 1132.83 440.494 1133.79 440.494C1134.75 440.494 1135.27 441.022 1135.27 442.254V447.422H1137.21V442.126C1137.21 439.822 1135.96 438.878 1134.43 438.878C1133.39 438.878 1132.23 439.342 1131.59 440.382C1131.18 439.342 1130.31 438.878 1129.23 438.878C1127.99 438.878 1127.08 439.55 1126.68 440.334V439.054H1124.75V447.422ZM1139.48 447.422H1141.42V439.054H1139.48V447.422ZM1140.43 437.678C1141.07 437.678 1141.58 437.198 1141.58 436.574C1141.58 435.934 1141.07 435.454 1140.43 435.454C1139.79 435.454 1139.27 435.934 1139.27 436.574C1139.27 437.198 1139.79 437.678 1140.43 437.678ZM1143.78 447.422H1145.71V442.494C1145.71 441.166 1146.59 440.494 1147.68 440.494C1148.83 440.494 1149.35 441.07 1149.35 442.334V447.422H1151.28V442.158C1151.28 439.854 1150.1 438.878 1148.42 438.878C1147.04 438.878 1146.11 439.566 1145.71 440.382V439.054H1143.78V447.422ZM1157.08 450.494C1159.67 450.494 1161.32 449.262 1161.34 446.798V439.054H1159.4V440.334C1158.92 439.502 1158.09 438.878 1156.71 438.878C1154.55 438.878 1152.95 440.638 1152.95 442.99V443.102C1152.95 445.518 1154.57 447.086 1156.66 447.086C1157.9 447.086 1158.94 446.334 1159.4 445.534V446.766C1159.4 448.27 1158.57 449.022 1157.06 449.022C1155.8 449.022 1155.16 448.542 1155 447.71H1153.05C1153.27 449.31 1154.46 450.494 1157.08 450.494ZM1157.14 445.598C1155.9 445.598 1154.94 444.638 1154.94 443.086V442.958C1154.94 441.438 1155.77 440.398 1157.21 440.398C1158.6 440.398 1159.46 441.342 1159.46 442.926V443.038C1159.46 444.638 1158.49 445.598 1157.14 445.598Z" fill="white"/>
<path opacity="0.3" d="M1046 437.922L1050 441.672L1046 445.422" stroke="white" stroke-width="2" stroke-linecap="round"/>
<path opacity="0.8" d="M1062.31 357.838H1064.44V352.974H1069.58V357.838H1071.72V346.398H1069.58V351.262H1064.44V346.398H1062.31V357.838ZM1077.77 357.998C1079.91 357.998 1081.34 357.038 1081.61 355.278H1079.74C1079.59 356.094 1078.99 356.558 1077.82 356.558C1076.38 356.558 1075.58 355.662 1075.51 354.078H1081.64V353.518C1081.64 350.526 1079.77 349.294 1077.69 349.294C1075.31 349.294 1073.53 351.022 1073.53 353.614V353.742C1073.53 356.382 1075.31 357.998 1077.77 357.998ZM1075.55 352.782C1075.74 351.486 1076.52 350.702 1077.69 350.702C1078.89 350.702 1079.63 351.342 1079.72 352.782H1075.55ZM1086.51 357.998C1087.74 357.998 1088.81 357.262 1089.26 356.43V357.838H1091.19V345.598H1089.26V350.75C1088.79 349.918 1087.95 349.294 1086.59 349.294C1084.41 349.294 1082.83 350.99 1082.83 353.662V353.79C1082.83 356.51 1084.41 357.998 1086.51 357.998ZM1086.99 356.462C1085.74 356.462 1084.81 355.582 1084.81 353.742V353.614C1084.81 351.806 1085.64 350.814 1087.07 350.814C1088.47 350.814 1089.32 351.726 1089.32 353.566V353.694C1089.32 355.566 1088.33 356.462 1086.99 356.462ZM1097.06 360.91C1099.66 360.91 1101.3 359.678 1101.32 357.214V349.47H1099.38V350.75C1098.9 349.918 1098.07 349.294 1096.7 349.294C1094.54 349.294 1092.94 351.054 1092.94 353.406V353.518C1092.94 355.934 1094.55 357.502 1096.65 357.502C1097.88 357.502 1098.92 356.75 1099.38 355.95V357.182C1099.38 358.686 1098.55 359.438 1097.05 359.438C1095.78 359.438 1095.14 358.958 1094.98 358.126H1093.03C1093.26 359.726 1094.44 360.91 1097.06 360.91ZM1097.13 356.014C1095.88 356.014 1094.92 355.054 1094.92 353.502V353.374C1094.92 351.854 1095.75 350.814 1097.19 350.814C1098.58 350.814 1099.45 351.758 1099.45 353.342V353.454C1099.45 355.054 1098.47 356.014 1097.13 356.014ZM1107.3 357.998C1109.44 357.998 1110.87 357.038 1111.14 355.278H1109.27C1109.12 356.094 1108.52 356.558 1107.35 356.558C1105.91 356.558 1105.11 355.662 1105.04 354.078H1111.17V353.518C1111.17 350.526 1109.3 349.294 1107.22 349.294C1104.84 349.294 1103.06 351.022 1103.06 353.614V353.742C1103.06 356.382 1104.84 357.998 1107.3 357.998ZM1105.08 352.782C1105.27 351.486 1106.05 350.702 1107.22 350.702C1108.42 350.702 1109.16 351.342 1109.25 352.782H1105.08ZM1116.87 357.838H1119V353.15H1122.91V351.502H1119V348.094H1123.96V346.398H1116.87V357.838ZM1128.14 357.998C1129.5 357.998 1130.38 357.342 1130.8 356.526V357.838H1132.73V349.47H1130.8V354.446C1130.8 355.774 1129.88 356.446 1128.84 356.446C1127.72 356.446 1127.2 355.87 1127.2 354.606V349.47H1125.26V354.83C1125.26 357.054 1126.49 357.998 1128.14 357.998ZM1135.03 357.838H1136.96V352.91C1136.96 351.582 1137.84 350.91 1138.93 350.91C1140.08 350.91 1140.6 351.486 1140.6 352.75V357.838H1142.53V352.574C1142.53 350.27 1141.35 349.294 1139.67 349.294C1138.29 349.294 1137.36 349.982 1136.96 350.798V349.47H1135.03V357.838ZM1147.9 357.998C1149.13 357.998 1150.2 357.262 1150.65 356.43V357.838H1152.59V345.598H1150.65V350.75C1150.19 349.918 1149.34 349.294 1147.98 349.294C1145.8 349.294 1144.22 350.99 1144.22 353.662V353.79C1144.22 356.51 1145.8 357.998 1147.9 357.998ZM1148.38 356.462C1147.13 356.462 1146.2 355.582 1146.2 353.742V353.614C1146.2 351.806 1147.03 350.814 1148.46 350.814C1149.87 350.814 1150.71 351.726 1150.71 353.566V353.694C1150.71 355.566 1149.72 356.462 1148.38 356.462ZM1157.75 357.998C1159.89 357.998 1161.09 357.022 1161.09 355.326C1161.09 353.55 1159.93 353.07 1157.96 352.766C1156.63 352.542 1156.23 352.302 1156.23 351.694C1156.23 351.102 1156.73 350.702 1157.56 350.702C1158.45 350.702 1158.89 351.054 1159.05 351.822H1160.84C1160.63 349.934 1159.27 349.294 1157.56 349.294C1155.99 349.294 1154.42 350.126 1154.42 351.806C1154.42 353.374 1155.24 353.998 1157.45 354.35C1158.68 354.558 1159.24 354.814 1159.24 355.502C1159.24 356.206 1158.77 356.574 1157.73 356.574C1156.6 356.574 1156.17 356.078 1156.07 355.23H1154.25C1154.33 357.006 1155.59 357.998 1157.75 357.998Z" fill="white"/>
<path opacity="0.3" d="M1049 348.604L1053 352.354L1049 356.104" stroke="white" stroke-width="2" stroke-linecap="round"/>
<path opacity="0.8" d="M1116.29 537.166C1117.52 537.166 1118.59 536.43 1119.04 535.598V537.006H1120.98V524.766H1119.04V529.918C1118.58 529.086 1117.73 528.462 1116.37 528.462C1114.19 528.462 1112.61 530.158 1112.61 532.83V532.958C1112.61 535.678 1114.19 537.166 1116.29 537.166ZM1116.77 535.63C1115.52 535.63 1114.59 534.75 1114.59 532.91V532.782C1114.59 530.974 1115.42 529.982 1116.85 529.982C1118.26 529.982 1119.1 530.894 1119.1 532.734V532.862C1119.1 534.734 1118.11 535.63 1116.77 535.63ZM1122.56 537.006H1124.56L1125.45 534.174H1129.82L1130.73 537.006H1132.94L1129.17 525.566H1126.38L1122.56 537.006ZM1127.65 527.31L1129.33 532.622H1125.95L1127.65 527.31ZM1134.53 539.87H1136.46V535.694C1136.91 536.51 1137.87 537.166 1139.2 537.166C1141.36 537.166 1142.91 535.534 1142.91 532.846V532.718C1142.91 530.014 1141.3 528.462 1139.2 528.462C1137.97 528.462 1136.93 529.182 1136.46 529.982V528.638H1134.53V539.87ZM1138.72 535.63C1137.31 535.63 1136.4 534.75 1136.4 532.878V532.75C1136.4 530.894 1137.36 529.982 1138.7 529.982C1139.97 529.982 1140.93 530.894 1140.93 532.75V532.878C1140.93 534.67 1140.14 535.63 1138.72 535.63ZM1144.65 539.87H1146.59V535.694C1147.04 536.51 1148 537.166 1149.32 537.166C1151.48 537.166 1153.04 535.534 1153.04 532.846V532.718C1153.04 530.014 1151.42 528.462 1149.32 528.462C1148.09 528.462 1147.05 529.182 1146.59 529.982V528.638H1144.65V539.87ZM1148.84 535.63C1147.44 535.63 1146.52 534.75 1146.52 532.878V532.75C1146.52 530.894 1147.48 529.982 1148.83 529.982C1150.09 529.982 1151.05 530.894 1151.05 532.75V532.878C1151.05 534.67 1150.27 535.63 1148.84 535.63ZM1157.64 537.166C1159.79 537.166 1160.99 536.19 1160.99 534.494C1160.99 532.718 1159.82 532.238 1157.85 531.934C1156.52 531.71 1156.12 531.47 1156.12 530.862C1156.12 530.27 1156.62 529.87 1157.45 529.87C1158.35 529.87 1158.78 530.222 1158.94 530.99H1160.73C1160.52 529.102 1159.16 528.462 1157.45 528.462C1155.88 528.462 1154.31 529.294 1154.31 530.974C1154.31 532.542 1155.13 533.166 1157.34 533.518C1158.57 533.726 1159.13 533.982 1159.13 534.67C1159.13 535.374 1158.67 535.742 1157.62 535.742C1156.49 535.742 1156.06 535.246 1155.96 534.398H1154.14C1154.22 536.174 1155.48 537.166 1157.64 537.166Z" fill="white"/>
<path opacity="0.3" d="M1098.3 528.59L1102.3 532.34L1098.3 536.09" stroke="white" stroke-width="2" stroke-linecap="round"/>
<path opacity="0.8" d="M1101.31 626.59H1108.32V624.894H1103.44V615.15H1101.31V626.59ZM1113.49 626.75C1115.63 626.75 1117.06 625.79 1117.33 624.03H1115.46C1115.31 624.846 1114.7 625.31 1113.54 625.31C1112.1 625.31 1111.3 624.414 1111.23 622.83H1117.36V622.27C1117.36 619.278 1115.49 618.046 1113.41 618.046C1111.02 618.046 1109.25 619.774 1109.25 622.366V622.494C1109.25 625.134 1111.02 626.75 1113.49 626.75ZM1111.26 621.534C1111.46 620.238 1112.24 619.454 1113.41 619.454C1114.61 619.454 1115.34 620.094 1115.44 621.534H1111.26ZM1119.09 626.59H1121.03V621.662C1121.03 620.334 1121.91 619.662 1122.99 619.662C1124.15 619.662 1124.66 620.238 1124.66 621.502V626.59H1126.59V621.326C1126.59 619.022 1125.41 618.046 1123.73 618.046C1122.35 618.046 1121.43 618.734 1121.03 619.55V618.222H1119.09V626.59ZM1131.96 626.75C1133.19 626.75 1134.26 626.014 1134.71 625.182V626.59H1136.65V614.35H1134.71V619.502C1134.25 618.67 1133.4 618.046 1132.04 618.046C1129.86 618.046 1128.28 619.742 1128.28 622.414V622.542C1128.28 625.262 1129.86 626.75 1131.96 626.75ZM1132.44 625.214C1131.19 625.214 1130.26 624.334 1130.26 622.494V622.366C1130.26 620.558 1131.1 619.566 1132.52 619.566C1133.93 619.566 1134.78 620.478 1134.78 622.318V622.446C1134.78 624.318 1133.78 625.214 1132.44 625.214ZM1139 626.59H1140.93V618.222H1139V626.59ZM1139.94 616.846C1140.58 616.846 1141.09 616.366 1141.09 615.742C1141.09 615.102 1140.58 614.622 1139.94 614.622C1139.3 614.622 1138.79 615.102 1138.79 615.742C1138.79 616.366 1139.3 616.846 1139.94 616.846ZM1143.29 626.59H1145.23V621.662C1145.23 620.334 1146.11 619.662 1147.2 619.662C1148.35 619.662 1148.86 620.238 1148.86 621.502V626.59H1150.8V621.326C1150.8 619.022 1149.61 618.046 1147.93 618.046C1146.56 618.046 1145.63 618.734 1145.23 619.55V618.222H1143.29V626.59ZM1156.6 629.662C1159.19 629.662 1160.84 628.43 1160.85 625.966V618.222H1158.92V619.502C1158.44 618.67 1157.6 618.046 1156.23 618.046C1154.07 618.046 1152.47 619.806 1152.47 622.158V622.27C1152.47 624.686 1154.08 626.254 1156.18 626.254C1157.41 626.254 1158.45 625.502 1158.92 624.702V625.934C1158.92 627.438 1158.08 628.19 1156.58 628.19C1155.32 628.19 1154.68 627.71 1154.52 626.878H1152.56C1152.79 628.478 1153.97 629.662 1156.6 629.662ZM1156.66 624.766C1155.41 624.766 1154.45 623.806 1154.45 622.254V622.126C1154.45 620.606 1155.28 619.566 1156.72 619.566C1158.12 619.566 1158.98 620.51 1158.98 622.094V622.206C1158.98 623.806 1158 624.766 1156.66 624.766Z" fill="white"/>
<path opacity="0.3" d="M1087.3 618.09L1091.3 621.84L1087.3 625.59" stroke="white" stroke-width="2" stroke-linecap="round"/>
<path opacity="0.8" d="M1121.31 724.174H1123.25V715.406L1128.4 724.174H1130.61V712.734H1128.67V721.006L1123.86 712.734H1121.31V724.174ZM1133.23 724.174H1135.36V719.486H1139.27V717.838H1135.36V714.43H1140.32V712.734H1133.23V724.174ZM1144.54 724.174H1146.68V714.414H1149.87V712.734H1141.35V714.414H1144.54V724.174ZM1151.62 716.846H1153.04L1153.32 712.734H1151.35L1151.62 716.846ZM1157.94 724.334C1160.08 724.334 1161.28 723.358 1161.28 721.662C1161.28 719.886 1160.11 719.406 1158.15 719.102C1156.82 718.878 1156.42 718.638 1156.42 718.03C1156.42 717.438 1156.91 717.038 1157.75 717.038C1158.64 717.038 1159.07 717.39 1159.23 718.158H1161.03C1160.82 716.27 1159.46 715.63 1157.75 715.63C1156.18 715.63 1154.61 716.462 1154.61 718.142C1154.61 719.71 1155.43 720.334 1157.63 720.686C1158.87 720.894 1159.43 721.15 1159.43 721.838C1159.43 722.542 1158.96 722.91 1157.92 722.91C1156.79 722.91 1156.35 722.414 1156.26 721.566H1154.43C1154.51 723.342 1155.78 724.334 1157.94 724.334Z" fill="white"/>
<path opacity="0.3" d="M1106.3 715.439L1110.3 719.189L1106.3 722.939" stroke="white" stroke-width="2" stroke-linecap="round"/>
<path opacity="0.8" d="M53.44 87.4065V79.3265H54.672C57.36 79.3265 58.48 80.8145 58.48 83.2785V83.4065C58.48 85.9345 57.248 87.4065 54.688 87.4065H53.44ZM51.312 89.0865H54.752C58.768 89.0865 60.704 86.7185 60.704 83.3905V83.2465C60.704 79.9185 58.768 77.6465 54.784 77.6465H51.312V89.0865ZM62.6219 89.0865H64.5579V80.7185H62.6219V89.0865ZM63.5659 79.3425C64.2059 79.3425 64.7179 78.8625 64.7179 78.2385C64.7179 77.5985 64.2059 77.1185 63.5659 77.1185C62.9259 77.1185 62.4139 77.5985 62.4139 78.2385C62.4139 78.8625 62.9259 79.3425 63.5659 79.3425ZM70.4856 92.1585C73.0776 92.1585 74.7256 90.9265 74.7416 88.4625V80.7185H72.8056V81.9985C72.3256 81.1665 71.4936 80.5425 70.1176 80.5425C67.9576 80.5425 66.3576 82.3025 66.3576 84.6545V84.7665C66.3576 87.1825 67.9736 88.7505 70.0696 88.7505C71.3016 88.7505 72.3416 87.9985 72.8056 87.1985V88.4305C72.8056 89.9345 71.9736 90.6865 70.4696 90.6865C69.2056 90.6865 68.5656 90.2065 68.4056 89.3745H66.4536C66.6776 90.9745 67.8616 92.1585 70.4856 92.1585ZM70.5496 87.2625C69.3016 87.2625 68.3416 86.3025 68.3416 84.7505V84.6225C68.3416 83.1025 69.1736 82.0625 70.6136 82.0625C72.0056 82.0625 72.8696 83.0065 72.8696 84.5905V84.7025C72.8696 86.3025 71.8936 87.2625 70.5496 87.2625ZM77.0906 89.0865H79.0266V80.7185H77.0906V89.0865ZM78.0346 79.3425C78.6746 79.3425 79.1866 78.8625 79.1866 78.2385C79.1866 77.5985 78.6746 77.1185 78.0346 77.1185C77.3946 77.1185 76.8826 77.5985 76.8826 78.2385C76.8826 78.8625 77.3946 79.3425 78.0346 79.3425ZM84.2344 89.2305C84.8264 89.2305 85.2424 89.1345 85.5464 89.0225V87.4865C85.2744 87.5985 84.9864 87.6465 84.6024 87.6465C83.9944 87.6465 83.6424 87.3105 83.6424 86.5745V82.1745H85.4824V80.7185H83.6424V78.8785H81.7064V80.7185H80.5864V82.1745H81.7064V86.7505C81.7064 88.3345 82.5704 89.2305 84.2344 89.2305ZM89.5628 89.2465C90.8428 89.2465 91.5788 88.7825 92.1228 88.0625V89.0865H94.0268V83.5985C94.0268 81.3105 92.5548 80.5425 90.6828 80.5425C88.8108 80.5425 87.2588 81.3585 87.0988 83.3105H88.9708C89.0668 82.4785 89.5628 81.9985 90.5708 81.9985C91.7068 81.9985 92.0908 82.5585 92.0908 83.6785V84.1105H91.0508C88.6508 84.1105 86.7628 84.8145 86.7628 86.7665C86.7628 88.5105 88.0268 89.2465 89.5628 89.2465ZM90.0268 87.8545C89.0668 87.8545 88.6828 87.3905 88.6828 86.6865C88.6828 85.6625 89.6268 85.3265 91.0988 85.3265H92.0908V86.1585C92.0908 87.2305 91.2108 87.8545 90.0268 87.8545ZM96.2938 89.0865H98.2298V76.8465H96.2938V89.0865ZM104.562 89.0865H108.962C111.474 89.0865 112.882 88.0145 112.882 85.8865V85.8225C112.882 84.3025 112.146 83.4545 110.594 83.1185C111.89 82.7185 112.402 81.8225 112.402 80.6865V80.6225C112.402 78.5425 111.01 77.6465 108.658 77.6465H104.562V89.0865ZM106.642 87.5665V83.9025H108.562C110.13 83.9025 110.786 84.4945 110.786 85.6785V85.7425C110.786 86.9265 110.13 87.5665 108.706 87.5665H106.642ZM106.642 82.4625V79.1665H108.37C109.73 79.1665 110.354 79.6305 110.354 80.7185V80.7825C110.354 81.9505 109.81 82.4625 108.402 82.4625H106.642ZM116.907 89.2465C118.187 89.2465 118.923 88.7825 119.467 88.0625V89.0865H121.371V83.5985C121.371 81.3105 119.899 80.5425 118.027 80.5425C116.155 80.5425 114.603 81.3585 114.443 83.3105H116.315C116.411 82.4785 116.907 81.9985 117.915 81.9985C119.051 81.9985 119.435 82.5585 119.435 83.6785V84.1105H118.395C115.995 84.1105 114.107 84.8145 114.107 86.7665C114.107 88.5105 115.371 89.2465 116.907 89.2465ZM117.371 87.8545C116.411 87.8545 116.027 87.3905 116.027 86.6865C116.027 85.6625 116.971 85.3265 118.443 85.3265H119.435V86.1585C119.435 87.2305 118.555 87.8545 117.371 87.8545ZM123.59 89.0865H125.526V84.1585C125.526 82.8305 126.406 82.1585 127.494 82.1585C128.646 82.1585 129.158 82.7345 129.158 83.9985V89.0865H131.094V83.8225C131.094 81.5185 129.91 80.5425 128.23 80.5425C126.854 80.5425 125.926 81.2305 125.526 82.0465V80.7185H123.59V89.0865ZM133.324 89.0865H135.26V84.9745L138.396 89.0865H140.636L137.116 84.5585L140.364 80.7185H138.252L135.26 84.3985V76.8465H133.324V89.0865ZM144.672 89.2465C146.816 89.2465 148.016 88.2705 148.016 86.5745C148.016 84.7985 146.848 84.3185 144.88 84.0145C143.552 83.7905 143.152 83.5505 143.152 82.9425C143.152 82.3505 143.648 81.9505 144.48 81.9505C145.376 81.9505 145.808 82.3025 145.968 83.0705H147.76C147.552 81.1825 146.192 80.5425 144.48 80.5425C142.912 80.5425 141.344 81.3745 141.344 83.0545C141.344 84.6225 142.16 85.2465 144.368 85.5985C145.6 85.8065 146.16 86.0625 146.16 86.7505C146.16 87.4545 145.696 87.8225 144.656 87.8225C143.52 87.8225 143.088 87.3265 142.992 86.4785H141.168C141.248 88.2545 142.512 89.2465 144.672 89.2465Z" fill="white"/>
<path opacity="0.3" d="M159.467 80.077L163.467 83.827L159.467 87.577" stroke="white" stroke-width="2" stroke-linecap="round"/>
<path opacity="0.8" d="M51.312 178.67H58.736V176.99H53.44V173.646H57.472V172.046H53.44V168.91H58.464V167.23H51.312V178.67ZM60.4958 178.67H62.4318V173.742C62.4318 172.414 63.3118 171.742 64.3998 171.742C65.5518 171.742 66.0638 172.318 66.0638 173.582V178.67H67.9998V173.406C67.9998 171.102 66.8158 170.126 65.1358 170.126C63.7598 170.126 62.8318 170.814 62.4318 171.63V170.302H60.4958V178.67ZM73.0781 178.814C73.6701 178.814 74.0861 178.718 74.3901 178.606V177.07C74.1181 177.182 73.8301 177.23 73.4461 177.23C72.8381 177.23 72.4861 176.894 72.4861 176.158V171.758H74.3261V170.302H72.4861V168.462H70.5501V170.302H69.4301V171.758H70.5501V176.334C70.5501 177.918 71.4141 178.814 73.0781 178.814ZM79.8164 178.83C81.9604 178.83 83.3844 177.87 83.6564 176.11H81.7844C81.6404 176.926 81.0324 177.39 79.8644 177.39C78.4244 177.39 77.6244 176.494 77.5604 174.91H83.6884V174.35C83.6884 171.358 81.8164 170.126 79.7364 170.126C77.3524 170.126 75.5764 171.854 75.5764 174.446V174.574C75.5764 177.214 77.3524 178.83 79.8164 178.83ZM77.5924 173.614C77.7844 172.318 78.5684 171.534 79.7364 171.534C80.9364 171.534 81.6724 172.174 81.7684 173.614H77.5924ZM85.4176 178.67H87.3536V174.318C87.3536 172.542 88.3776 171.998 90.0736 171.982V170.174C88.6656 170.19 87.8816 170.814 87.3536 171.87V170.302H85.4176V178.67ZM91.777 181.534H93.713V177.358C94.161 178.174 95.121 178.83 96.449 178.83C98.609 178.83 100.161 177.198 100.161 174.51V174.382C100.161 171.678 98.545 170.126 96.449 170.126C95.217 170.126 94.177 170.846 93.713 171.646V170.302H91.777V181.534ZM95.969 177.294C94.561 177.294 93.649 176.414 93.649 174.542V174.414C93.649 172.558 94.609 171.646 95.953 171.646C97.217 171.646 98.177 172.558 98.177 174.414V174.542C98.177 176.334 97.393 177.294 95.969 177.294ZM101.902 178.67H103.838V174.318C103.838 172.542 104.862 171.998 106.558 171.982V170.174C105.15 170.19 104.366 170.814 103.838 171.87V170.302H101.902V178.67ZM108.309 178.67H110.245V170.302H108.309V178.67ZM109.253 168.926C109.893 168.926 110.405 168.446 110.405 167.822C110.405 167.182 109.893 166.702 109.253 166.702C108.613 166.702 108.101 167.182 108.101 167.822C108.101 168.446 108.613 168.926 109.253 168.926ZM115.469 178.83C117.613 178.83 118.813 177.854 118.813 176.158C118.813 174.382 117.645 173.902 115.677 173.598C114.349 173.374 113.949 173.134 113.949 172.526C113.949 171.934 114.445 171.534 115.277 171.534C116.173 171.534 116.605 171.886 116.765 172.654H118.557C118.349 170.766 116.989 170.126 115.277 170.126C113.709 170.126 112.141 170.958 112.141 172.638C112.141 174.206 112.957 174.83 115.165 175.182C116.397 175.39 116.957 175.646 116.957 176.334C116.957 177.038 116.493 177.406 115.453 177.406C114.317 177.406 113.885 176.91 113.789 176.062H111.965C112.045 177.838 113.309 178.83 115.469 178.83ZM124.191 178.83C126.335 178.83 127.759 177.87 128.031 176.11H126.159C126.015 176.926 125.407 177.39 124.239 177.39C122.799 177.39 121.999 176.494 121.935 174.91H128.063V174.35C128.063 171.358 126.191 170.126 124.111 170.126C121.727 170.126 119.951 171.854 119.951 174.446V174.574C119.951 177.214 121.727 178.83 124.191 178.83ZM121.967 173.614C122.159 172.318 122.943 171.534 124.111 171.534C125.311 171.534 126.047 172.174 126.143 173.614H121.967ZM143.413 172.75H141.669L140.501 174.99L138.485 172.526C139.973 171.886 140.869 170.942 140.869 169.614C140.869 168.078 139.557 167.134 137.989 167.134C136.325 167.134 134.837 168.094 134.837 169.902C134.837 170.59 135.125 171.358 135.733 172.158C134.197 172.894 133.157 173.87 133.157 175.55C133.157 177.55 134.693 178.814 136.917 178.814C138.389 178.814 139.333 178.238 140.053 177.502L141.013 178.67H143.461L141.541 176.334L143.413 172.75ZM137.141 177.214C135.893 177.214 135.173 176.494 135.173 175.342C135.173 174.27 135.781 173.742 136.629 173.31L139.061 176.27C138.533 176.894 137.877 177.214 137.141 177.214ZM136.725 169.918C136.725 169.006 137.285 168.558 137.989 168.558C138.661 168.558 139.109 169.038 139.109 169.694C139.109 170.59 138.661 171.102 137.589 171.598C137.045 170.942 136.725 170.446 136.725 169.918ZM149.031 178.67H153.431C155.943 178.67 157.351 177.598 157.351 175.47V175.406C157.351 173.886 156.615 173.038 155.063 172.702C156.359 172.302 156.871 171.406 156.871 170.27V170.206C156.871 168.126 155.479 167.23 153.127 167.23H149.031V178.67ZM151.111 177.15V173.486H153.031C154.599 173.486 155.255 174.078 155.255 175.262V175.326C155.255 176.51 154.599 177.15 153.175 177.15H151.111ZM151.111 172.046V168.75H152.839C154.199 168.75 154.823 169.214 154.823 170.302V170.366C154.823 171.534 154.279 172.046 152.871 172.046H151.111ZM161.983 178.83C163.343 178.83 164.223 178.174 164.639 177.358V178.67H166.575V170.302H164.639V175.278C164.639 176.606 163.727 177.278 162.687 177.278C161.567 177.278 161.039 176.702 161.039 175.438V170.302H159.103V175.662C159.103 177.886 160.335 178.83 161.983 178.83ZM171.735 178.83C173.879 178.83 175.079 177.854 175.079 176.158C175.079 174.382 173.911 173.902 171.943 173.598C170.615 173.374 170.215 173.134 170.215 172.526C170.215 171.934 170.711 171.534 171.543 171.534C172.439 171.534 172.871 171.886 173.031 172.654H174.823C174.615 170.766 173.255 170.126 171.543 170.126C169.975 170.126 168.407 170.958 168.407 172.638C168.407 174.206 169.223 174.83 171.431 175.182C172.663 175.39 173.223 175.646 173.223 176.334C173.223 177.038 172.759 177.406 171.719 177.406C170.583 177.406 170.151 176.91 170.055 176.062H168.231C168.311 177.838 169.575 178.83 171.735 178.83ZM176.825 178.67H178.761V170.302H176.825V178.67ZM177.769 168.926C178.409 168.926 178.921 168.446 178.921 167.822C178.921 167.182 178.409 166.702 177.769 166.702C177.129 166.702 176.617 167.182 176.617 167.822C176.617 168.446 177.129 168.926 177.769 168.926ZM181.121 178.67H183.057V173.742C183.057 172.414 183.937 171.742 185.025 171.742C186.177 171.742 186.689 172.318 186.689 173.582V178.67H188.625V173.406C188.625 171.102 187.441 170.126 185.761 170.126C184.385 170.126 183.457 170.814 183.057 171.63V170.302H181.121V178.67ZM194.535 178.83C196.679 178.83 198.103 177.87 198.375 176.11H196.503C196.359 176.926 195.751 177.39 194.583 177.39C193.143 177.39 192.343 176.494 192.279 174.91H198.407V174.35C198.407 171.358 196.535 170.126 194.455 170.126C192.071 170.126 190.295 171.854 190.295 174.446V174.574C190.295 177.214 192.071 178.83 194.535 178.83ZM192.311 173.614C192.503 172.318 193.287 171.534 194.455 171.534C195.655 171.534 196.391 172.174 196.487 173.614H192.311ZM203.079 178.83C205.223 178.83 206.423 177.854 206.423 176.158C206.423 174.382 205.255 173.902 203.286 173.598C201.959 173.374 201.559 173.134 201.559 172.526C201.559 171.934 202.055 171.534 202.887 171.534C203.783 171.534 204.215 171.886 204.375 172.654H206.167C205.959 170.766 204.599 170.126 202.887 170.126C201.319 170.126 199.751 170.958 199.751 172.638C199.751 174.206 200.567 174.83 202.775 175.182C204.007 175.39 204.567 175.646 204.567 176.334C204.567 177.038 204.103 177.406 203.062 177.406C201.927 177.406 201.495 176.91 201.399 176.062H199.575C199.655 177.838 200.919 178.83 203.079 178.83ZM210.985 178.83C213.129 178.83 214.329 177.854 214.329 176.158C214.329 174.382 213.161 173.902 211.193 173.598C209.865 173.374 209.465 173.134 209.465 172.526C209.465 171.934 209.961 171.534 210.793 171.534C211.689 171.534 212.121 171.886 212.281 172.654H214.073C213.865 170.766 212.505 170.126 210.793 170.126C209.225 170.126 207.657 170.958 207.657 172.638C207.657 174.206 208.473 174.83 210.681 175.182C211.913 175.39 212.473 175.646 212.473 176.334C212.473 177.038 212.009 177.406 210.969 177.406C209.833 177.406 209.401 176.91 209.305 176.062H207.481C207.561 177.838 208.825 178.83 210.985 178.83Z" fill="white"/>
<path opacity="0.3" d="M226.194 170.67L230.194 174.42L226.194 178.17" stroke="white" stroke-width="2" stroke-linecap="round"/>
<path opacity="0.8" d="M51.312 268.254H58.32V266.558H53.44V256.814H51.312V268.254ZM60.0125 268.254H61.9485V259.886H60.0125V268.254ZM60.9565 258.51C61.5965 258.51 62.1085 258.03 62.1085 257.406C62.1085 256.766 61.5965 256.286 60.9565 256.286C60.3165 256.286 59.8045 256.766 59.8045 257.406C59.8045 258.03 60.3165 258.51 60.9565 258.51ZM67.9723 268.414C70.2443 268.414 71.7003 267.054 71.8443 265.134H70.0683C69.9563 266.318 69.0763 266.926 68.0523 266.926C66.6283 266.926 65.7323 265.966 65.7323 264.142V264.014C65.7323 262.286 66.6763 261.262 68.0043 261.262C69.0283 261.262 69.7643 261.726 69.9243 262.846H71.7963C71.5723 260.542 69.8283 259.71 67.9723 259.71C65.6363 259.71 63.7483 261.39 63.7483 264.046V264.174C63.7483 266.846 65.5723 268.414 67.9723 268.414ZM77.1914 268.414C79.3354 268.414 80.7594 267.454 81.0314 265.694H79.1594C79.0154 266.51 78.4074 266.974 77.2394 266.974C75.7994 266.974 74.9994 266.078 74.9354 264.494H81.0634V263.934C81.0634 260.942 79.1914 259.71 77.1114 259.71C74.7274 259.71 72.9514 261.438 72.9514 264.03V264.158C72.9514 266.798 74.7274 268.414 77.1914 268.414ZM74.9674 263.198C75.1594 261.902 75.9434 261.118 77.1114 261.118C78.3114 261.118 79.0474 261.758 79.1434 263.198H74.9674ZM82.7926 268.254H84.7286V263.326C84.7286 261.998 85.6086 261.326 86.6966 261.326C87.8486 261.326 88.3606 261.902 88.3606 263.166V268.254H90.2966V262.99C90.2966 260.686 89.1126 259.71 87.4326 259.71C86.0566 259.71 85.1286 260.398 84.7286 261.214V259.886H82.7926V268.254ZM95.391 268.414C97.535 268.414 98.735 267.438 98.735 265.742C98.735 263.966 97.567 263.486 95.599 263.182C94.271 262.958 93.871 262.718 93.871 262.11C93.871 261.518 94.367 261.118 95.199 261.118C96.095 261.118 96.527 261.47 96.687 262.238H98.479C98.271 260.35 96.911 259.71 95.199 259.71C93.631 259.71 92.063 260.542 92.063 262.222C92.063 263.79 92.879 264.414 95.087 264.766C96.319 264.974 96.879 265.23 96.879 265.918C96.879 266.622 96.415 266.99 95.375 266.99C94.239 266.99 93.807 266.494 93.711 265.646H91.887C91.967 267.422 93.231 268.414 95.391 268.414ZM104.113 268.414C106.257 268.414 107.681 267.454 107.953 265.694H106.081C105.937 266.51 105.329 266.974 104.161 266.974C102.721 266.974 101.921 266.078 101.857 264.494H107.985V263.934C107.985 260.942 106.113 259.71 104.033 259.71C101.649 259.71 99.8733 261.438 99.8733 264.03V264.158C99.8733 266.798 101.649 268.414 104.113 268.414ZM101.889 263.198C102.081 261.902 102.865 261.118 104.033 261.118C105.233 261.118 105.969 261.758 106.065 263.198H101.889ZM112.851 268.414C114.083 268.414 115.155 267.678 115.603 266.846V268.254H117.539V256.014H115.603V261.166C115.139 260.334 114.291 259.71 112.931 259.71C110.755 259.71 109.171 261.406 109.171 264.078V264.206C109.171 266.926 110.755 268.414 112.851 268.414ZM113.331 266.878C112.083 266.878 111.155 265.998 111.155 264.158V264.03C111.155 262.222 111.987 261.23 113.411 261.23C114.819 261.23 115.667 262.142 115.667 263.982V264.11C115.667 265.982 114.675 266.878 113.331 266.878ZM123.812 268.254H131.236V266.574H125.94V263.23H129.972V261.63H125.94V258.494H130.964V256.814H123.812V268.254ZM132.258 268.254H134.274L136.274 265.23L138.226 268.254H140.482L137.49 263.822L140.194 259.886H138.162L136.434 262.59L134.69 259.886H132.45L135.17 263.966L132.258 268.254ZM145.066 268.414C147.338 268.414 148.794 267.054 148.938 265.134H147.162C147.05 266.318 146.17 266.926 145.146 266.926C143.722 266.926 142.826 265.966 142.826 264.142V264.014C142.826 262.286 143.77 261.262 145.098 261.262C146.122 261.262 146.858 261.726 147.018 262.846H148.89C148.666 260.542 146.922 259.71 145.066 259.71C142.73 259.71 140.842 261.39 140.842 264.046V264.174C140.842 266.846 142.666 268.414 145.066 268.414ZM150.605 268.254H152.541V263.326C152.541 261.998 153.421 261.326 154.509 261.326C155.661 261.326 156.173 261.902 156.173 263.166V268.254H158.109V262.99C158.109 260.686 156.925 259.71 155.245 259.71C153.869 259.71 152.941 260.398 152.541 261.214V256.014H150.605V268.254ZM162.532 268.414C163.812 268.414 164.548 267.95 165.092 267.23V268.254H166.996V262.766C166.996 260.478 165.524 259.71 163.652 259.71C161.78 259.71 160.228 260.526 160.068 262.478H161.94C162.036 261.646 162.532 261.166 163.54 261.166C164.676 261.166 165.06 261.726 165.06 262.846V263.278H164.02C161.62 263.278 159.732 263.982 159.732 265.934C159.732 267.678 160.996 268.414 162.532 268.414ZM162.996 267.022C162.036 267.022 161.652 266.558 161.652 265.854C161.652 264.83 162.596 264.494 164.068 264.494H165.06V265.326C165.06 266.398 164.18 267.022 162.996 267.022ZM169.215 268.254H171.151V263.326C171.151 261.998 172.031 261.326 173.119 261.326C174.271 261.326 174.783 261.902 174.783 263.166V268.254H176.719V262.99C176.719 260.686 175.535 259.71 173.855 259.71C172.479 259.71 171.551 260.398 171.151 261.214V259.886H169.215V268.254ZM182.517 271.326C185.109 271.326 186.757 270.094 186.773 267.63V259.886H184.837V261.166C184.357 260.334 183.525 259.71 182.149 259.71C179.989 259.71 178.389 261.47 178.389 263.822V263.934C178.389 266.35 180.005 267.918 182.101 267.918C183.333 267.918 184.373 267.166 184.837 266.366V267.598C184.837 269.102 184.005 269.854 182.501 269.854C181.237 269.854 180.597 269.374 180.437 268.542H178.485C178.709 270.142 179.893 271.326 182.517 271.326ZM182.581 266.43C181.333 266.43 180.373 265.47 180.373 263.918V263.79C180.373 262.27 181.205 261.23 182.645 261.23C184.037 261.23 184.901 262.174 184.901 263.758V263.87C184.901 265.47 183.925 266.43 182.581 266.43ZM192.754 268.414C194.898 268.414 196.322 267.454 196.594 265.694H194.722C194.578 266.51 193.97 266.974 192.802 266.974C191.362 266.974 190.562 266.078 190.498 264.494H196.626V263.934C196.626 260.942 194.754 259.71 192.674 259.71C190.29 259.71 188.514 261.438 188.514 264.03V264.158C188.514 266.798 190.29 268.414 192.754 268.414ZM190.53 263.198C190.722 261.902 191.506 261.118 192.674 261.118C193.874 261.118 194.61 261.758 194.706 263.198H190.53ZM201.297 268.414C203.441 268.414 204.641 267.438 204.641 265.742C204.641 263.966 203.473 263.486 201.505 263.182C200.177 262.958 199.777 262.718 199.777 262.11C199.777 261.518 200.273 261.118 201.105 261.118C202.001 261.118 202.433 261.47 202.593 262.238H204.385C204.177 260.35 202.817 259.71 201.105 259.71C199.537 259.71 197.969 260.542 197.969 262.222C197.969 263.79 198.785 264.414 200.993 264.766C202.225 264.974 202.785 265.23 202.785 265.918C202.785 266.622 202.321 266.99 201.281 266.99C200.145 266.99 199.713 266.494 199.617 265.646H197.793C197.873 267.422 199.137 268.414 201.297 268.414Z" fill="white"/>
<path opacity="0.3" d="M216 260.108L220 263.858L216 267.608" stroke="white" stroke-width="2" stroke-linecap="round"/>
<path opacity="0.8" d="M56.32 357.998C59.04 357.998 60.992 356.606 61.328 353.854H59.248C59.024 355.47 57.904 356.27 56.32 356.27C54.208 356.27 52.976 354.75 52.976 352.174V352.046C52.976 349.486 54.288 347.918 56.304 347.918C57.952 347.918 58.8 348.702 59.04 350.222H61.2C60.944 347.534 58.912 346.222 56.288 346.222C53.104 346.222 50.736 348.622 50.736 352.062V352.19C50.736 355.71 52.736 357.998 56.32 357.998ZM66.7554 356.494C65.2834 356.494 64.4354 355.422 64.4354 353.71V353.582C64.4354 351.854 65.3154 350.814 66.7554 350.814C68.1954 350.814 69.0594 351.87 69.0594 353.598V353.71C69.0594 355.422 68.1954 356.494 66.7554 356.494ZM66.7394 357.998C69.2034 357.998 71.0434 356.302 71.0434 353.694V353.566C71.0434 351.006 69.2034 349.294 66.7554 349.294C64.2914 349.294 62.4514 351.022 62.4514 353.614V353.742C62.4514 356.286 64.2754 357.998 66.7394 357.998ZM72.7926 357.838H74.7286V353.486C74.7286 351.71 75.7526 351.166 77.4486 351.15V349.342C76.0406 349.358 75.2566 349.982 74.7286 351.038V349.47H72.7926V357.838ZM79.152 360.702H81.088V356.526C81.536 357.342 82.496 357.998 83.824 357.998C85.984 357.998 87.536 356.366 87.536 353.678V353.55C87.536 350.846 85.92 349.294 83.824 349.294C82.592 349.294 81.552 350.014 81.088 350.814V349.47H79.152V360.702ZM83.344 356.462C81.936 356.462 81.024 355.582 81.024 353.71V353.582C81.024 351.726 81.984 350.814 83.328 350.814C84.592 350.814 85.552 351.726 85.552 353.582V353.71C85.552 355.502 84.768 356.462 83.344 356.462ZM93.021 356.494C91.549 356.494 90.701 355.422 90.701 353.71V353.582C90.701 351.854 91.581 350.814 93.021 350.814C94.461 350.814 95.325 351.87 95.325 353.598V353.71C95.325 355.422 94.461 356.494 93.021 356.494ZM93.005 357.998C95.469 357.998 97.309 356.302 97.309 353.694V353.566C97.309 351.006 95.469 349.294 93.021 349.294C90.557 349.294 88.717 351.022 88.717 353.614V353.742C88.717 356.286 90.541 357.998 93.005 357.998ZM99.0583 357.838H100.994V353.486C100.994 351.71 102.018 351.166 103.714 351.15V349.342C102.306 349.358 101.522 349.982 100.994 351.038V349.47H99.0583V357.838ZM107.453 357.998C108.733 357.998 109.469 357.534 110.013 356.814V357.838H111.917V352.35C111.917 350.062 110.445 349.294 108.573 349.294C106.701 349.294 105.149 350.11 104.989 352.062H106.861C106.957 351.23 107.453 350.75 108.461 350.75C109.597 350.75 109.981 351.31 109.981 352.43V352.862H108.941C106.541 352.862 104.653 353.566 104.653 355.518C104.653 357.262 105.917 357.998 107.453 357.998ZM107.917 356.606C106.957 356.606 106.573 356.142 106.573 355.438C106.573 354.414 107.517 354.078 108.989 354.078H109.981V354.91C109.981 355.982 109.101 356.606 107.917 356.606ZM116.984 357.982C117.576 357.982 117.992 357.886 118.296 357.774V356.238C118.024 356.35 117.736 356.398 117.352 356.398C116.744 356.398 116.392 356.062 116.392 355.326V350.926H118.232V349.47H116.392V347.63H114.456V349.47H113.336V350.926H114.456V355.502C114.456 357.086 115.32 357.982 116.984 357.982ZM123.723 357.998C125.867 357.998 127.291 357.038 127.563 355.278H125.691C125.547 356.094 124.939 356.558 123.771 356.558C122.331 356.558 121.531 355.662 121.467 354.078H127.595V353.518C127.595 350.526 125.723 349.294 123.643 349.294C121.259 349.294 119.483 351.022 119.483 353.614V353.742C119.483 356.382 121.259 357.998 123.723 357.998ZM121.499 352.782C121.691 351.486 122.475 350.702 123.643 350.702C124.843 350.702 125.579 351.342 125.675 352.782H121.499ZM133.296 357.838H135.424V353.214H136.784L139.776 357.838H142.08L138.864 352.894C140.288 352.526 141.408 351.614 141.408 349.822V349.758C141.408 347.422 139.648 346.398 137.136 346.398H133.296V357.838ZM135.424 351.694V348.046H137.136C138.496 348.046 139.312 348.494 139.312 349.806V349.87C139.312 351.086 138.56 351.694 137.136 351.694H135.424ZM146.988 357.998C149.132 357.998 150.556 357.038 150.828 355.278H148.956C148.812 356.094 148.204 356.558 147.036 356.558C145.596 356.558 144.796 355.662 144.732 354.078H150.86V353.518C150.86 350.526 148.988 349.294 146.908 349.294C144.524 349.294 142.748 351.022 142.748 353.614V353.742C142.748 356.382 144.524 357.998 146.988 357.998ZM144.764 352.782C144.956 351.486 145.74 350.702 146.908 350.702C148.108 350.702 148.844 351.342 148.94 352.782H144.764ZM155.532 357.998C157.676 357.998 158.876 357.022 158.876 355.326C158.876 353.55 157.708 353.07 155.74 352.766C154.412 352.542 154.012 352.302 154.012 351.694C154.012 351.102 154.508 350.702 155.34 350.702C156.236 350.702 156.668 351.054 156.828 351.822H158.62C158.412 349.934 157.052 349.294 155.34 349.294C153.772 349.294 152.204 350.126 152.204 351.806C152.204 353.374 153.02 353.998 155.228 354.35C156.46 354.558 157.02 354.814 157.02 355.502C157.02 356.206 156.556 356.574 155.516 356.574C154.38 356.574 153.948 356.078 153.852 355.23H152.028C152.108 357.006 153.372 357.998 155.532 357.998ZM164.254 357.998C166.398 357.998 167.822 357.038 168.094 355.278H166.222C166.078 356.094 165.47 356.558 164.302 356.558C162.862 356.558 162.062 355.662 161.998 354.078H168.126V353.518C168.126 350.526 166.254 349.294 164.174 349.294C161.79 349.294 160.014 351.022 160.014 353.614V353.742C160.014 356.382 161.79 357.998 164.254 357.998ZM162.03 352.782C162.222 351.486 163.006 350.702 164.174 350.702C165.374 350.702 166.11 351.342 166.206 352.782H162.03ZM169.903 357.838H171.839V345.598H169.903V357.838ZM174.247 357.838H176.183V345.598H174.247V357.838ZM182.223 357.998C184.367 357.998 185.791 357.038 186.063 355.278H184.191C184.047 356.094 183.439 356.558 182.271 356.558C180.831 356.558 180.031 355.662 179.967 354.078H186.095V353.518C186.095 350.526 184.223 349.294 182.143 349.294C179.759 349.294 177.983 351.022 177.983 353.614V353.742C177.983 356.382 179.759 357.998 182.223 357.998ZM179.999 352.782C180.191 351.486 180.975 350.702 182.143 350.702C183.343 350.702 184.079 351.342 184.175 352.782H179.999ZM187.824 357.838H189.76V353.486C189.76 351.71 190.784 351.166 192.48 351.15V349.342C191.072 349.358 190.288 349.982 189.76 351.038V349.47H187.824V357.838ZM197.047 357.998C199.191 357.998 200.391 357.022 200.391 355.326C200.391 353.55 199.223 353.07 197.255 352.766C195.927 352.542 195.527 352.302 195.527 351.694C195.527 351.102 196.023 350.702 196.855 350.702C197.751 350.702 198.183 351.054 198.343 351.822H200.135C199.927 349.934 198.567 349.294 196.855 349.294C195.287 349.294 193.719 350.126 193.719 351.806C193.719 353.374 194.535 353.998 196.743 354.35C197.975 354.558 198.535 354.814 198.535 355.502C198.535 356.206 198.071 356.574 197.031 356.574C195.895 356.574 195.463 356.078 195.367 355.23H193.543C193.623 357.006 194.887 357.998 197.047 357.998Z" fill="white"/>
<path opacity="0.3" d="M213.021 348.838L217.021 352.588L213.021 356.338" stroke="white" stroke-width="2" stroke-linecap="round"/>
<path opacity="0.8" d="M51.376 447.422H53.52V435.982H51.376V447.422ZM56.0583 447.422H57.9943V442.494C57.9943 441.166 58.8743 440.494 59.9623 440.494C61.1143 440.494 61.6263 441.07 61.6263 442.334V447.422H63.5623V442.158C63.5623 439.854 62.3783 438.878 60.6983 438.878C59.3223 438.878 58.3943 439.566 57.9943 440.382V439.054H56.0583V447.422ZM67.8284 447.422H70.0844L73.1084 439.054H71.2044L69.0444 445.438L66.8524 439.054H64.7724L67.8284 447.422ZM77.9101 447.582C80.0541 447.582 81.4781 446.622 81.7501 444.862H79.8781C79.7341 445.678 79.1261 446.142 77.9581 446.142C76.5181 446.142 75.7181 445.246 75.6541 443.662H81.7821V443.102C81.7821 440.11 79.9101 438.878 77.8301 438.878C75.4461 438.878 73.6701 440.606 73.6701 443.198V443.326C73.6701 445.966 75.4461 447.582 77.9101 447.582ZM75.6861 442.366C75.8781 441.07 76.6621 440.286 77.8301 440.286C79.0301 440.286 79.7661 440.926 79.8621 442.366H75.6861ZM86.4535 447.582C88.5975 447.582 89.7975 446.606 89.7975 444.91C89.7975 443.134 88.6295 442.654 86.6615 442.35C85.3335 442.126 84.9335 441.886 84.9335 441.278C84.9335 440.686 85.4295 440.286 86.2615 440.286C87.1575 440.286 87.5895 440.638 87.7495 441.406H89.5415C89.3335 439.518 87.9735 438.878 86.2615 438.878C84.6935 438.878 83.1255 439.71 83.1255 441.39C83.1255 442.958 83.9415 443.582 86.1495 443.934C87.3815 444.142 87.9415 444.398 87.9415 445.086C87.9415 445.79 87.4775 446.158 86.4375 446.158C85.3015 446.158 84.8695 445.662 84.7735 444.814H82.9495C83.0295 446.59 84.2935 447.582 86.4535 447.582ZM94.3438 447.566C94.9358 447.566 95.3518 447.47 95.6558 447.358V445.822C95.3838 445.934 95.0958 445.982 94.7118 445.982C94.1038 445.982 93.7518 445.646 93.7518 444.91V440.51H95.5918V439.054H93.7518V437.214H91.8158V439.054H90.6958V440.51H91.8158V445.086C91.8158 446.67 92.6798 447.566 94.3438 447.566ZM97.402 447.422H99.338V442.414C99.338 441.134 100.218 440.494 101.178 440.494C102.122 440.494 102.666 441.022 102.666 442.254V447.422H104.602V442.414C104.602 441.134 105.482 440.494 106.442 440.494C107.402 440.494 107.93 441.022 107.93 442.254V447.422H109.866V442.126C109.866 439.822 108.618 438.878 107.082 438.878C106.042 438.878 104.89 439.342 104.25 440.382C103.834 439.342 102.97 438.878 101.882 438.878C100.65 438.878 99.738 439.55 99.338 440.334V439.054H97.402V447.422ZM115.77 447.582C117.914 447.582 119.338 446.622 119.61 444.862H117.738C117.594 445.678 116.986 446.142 115.818 446.142C114.378 446.142 113.578 445.246 113.514 443.662H119.642V443.102C119.642 440.11 117.77 438.878 115.69 438.878C113.306 438.878 111.53 440.606 111.53 443.198V443.326C111.53 445.966 113.306 447.582 115.77 447.582ZM113.546 442.366C113.738 441.07 114.522 440.286 115.69 440.286C116.89 440.286 117.626 440.926 117.722 442.366H113.546ZM121.371 447.422H123.307V442.494C123.307 441.166 124.187 440.494 125.275 440.494C126.427 440.494 126.939 441.07 126.939 442.334V447.422H128.875V442.158C128.875 439.854 127.691 438.878 126.011 438.878C124.635 438.878 123.707 439.566 123.307 440.382V439.054H121.371V447.422ZM133.953 447.566C134.545 447.566 134.961 447.47 135.265 447.358V445.822C134.993 445.934 134.705 445.982 134.321 445.982C133.713 445.982 133.361 445.646 133.361 444.91V440.51H135.201V439.054H133.361V437.214H131.425V439.054H130.305V440.51H131.425V445.086C131.425 446.67 132.289 447.566 133.953 447.566ZM140.824 450.286H142.76V446.11C143.208 446.926 144.168 447.582 145.496 447.582C147.656 447.582 149.208 445.95 149.208 443.262V443.134C149.208 440.43 147.592 438.878 145.496 438.878C144.264 438.878 143.224 439.598 142.76 440.398V439.054H140.824V450.286ZM145.016 446.046C143.608 446.046 142.696 445.166 142.696 443.294V443.166C142.696 441.31 143.656 440.398 145 440.398C146.264 440.398 147.224 441.31 147.224 443.166V443.294C147.224 445.086 146.44 446.046 145.016 446.046ZM150.997 447.422H152.933V435.182H150.997V447.422ZM157.485 447.582C158.765 447.582 159.501 447.118 160.045 446.398V447.422H161.949V441.934C161.949 439.646 160.477 438.878 158.605 438.878C156.733 438.878 155.181 439.694 155.021 441.646H156.893C156.989 440.814 157.485 440.334 158.493 440.334C159.629 440.334 160.013 440.894 160.013 442.014V442.446H158.973C156.573 442.446 154.685 443.15 154.685 445.102C154.685 446.846 155.949 447.582 157.485 447.582ZM157.949 446.19C156.989 446.19 156.605 445.726 156.605 445.022C156.605 443.998 157.549 443.662 159.021 443.662H160.013V444.494C160.013 445.566 159.133 446.19 157.949 446.19ZM167.016 447.566C167.608 447.566 168.024 447.47 168.328 447.358V445.822C168.056 445.934 167.768 445.982 167.384 445.982C166.776 445.982 166.424 445.646 166.424 444.91V440.51H168.264V439.054H166.424V437.214H164.488V439.054H163.368V440.51H164.488V445.086C164.488 446.67 165.352 447.566 167.016 447.566ZM170.332 447.422H172.268V440.51H174.172V439.054H172.268V437.854C172.268 437.134 172.588 436.622 173.372 436.622C173.724 436.622 174.028 436.686 174.252 436.766V435.262C173.9 435.15 173.612 435.102 173.148 435.102C171.356 435.102 170.332 436.094 170.332 437.934V439.054H169.196V440.51H170.332V447.422ZM179.224 446.078C177.752 446.078 176.904 445.006 176.904 443.294V443.166C176.904 441.438 177.784 440.398 179.224 440.398C180.664 440.398 181.528 441.454 181.528 443.182V443.294C181.528 445.006 180.664 446.078 179.224 446.078ZM179.208 447.582C181.672 447.582 183.512 445.886 183.512 443.278V443.15C183.512 440.59 181.672 438.878 179.224 438.878C176.76 438.878 174.92 440.606 174.92 443.198V443.326C174.92 445.87 176.744 447.582 179.208 447.582ZM185.261 447.422H187.197V443.07C187.197 441.294 188.221 440.75 189.917 440.734V438.926C188.509 438.942 187.725 439.566 187.197 440.622V439.054H185.261V447.422ZM191.621 447.422H193.557V442.414C193.557 441.134 194.437 440.494 195.397 440.494C196.341 440.494 196.885 441.022 196.885 442.254V447.422H198.821V442.414C198.821 441.134 199.701 440.494 200.661 440.494C201.621 440.494 202.149 441.022 202.149 442.254V447.422H204.085V442.126C204.085 439.822 202.837 438.878 201.301 438.878C200.261 438.878 199.109 439.342 198.469 440.382C198.053 439.342 197.189 438.878 196.101 438.878C194.869 438.878 193.957 439.55 193.557 440.334V439.054H191.621V447.422ZM209.172 447.582C211.316 447.582 212.516 446.606 212.516 444.91C212.516 443.134 211.348 442.654 209.38 442.35C208.052 442.126 207.652 441.886 207.652 441.278C207.652 440.686 208.148 440.286 208.98 440.286C209.876 440.286 210.308 440.638 210.468 441.406H212.26C212.052 439.518 210.692 438.878 208.98 438.878C207.412 438.878 205.844 439.71 205.844 441.39C205.844 442.958 206.66 443.582 208.868 443.934C210.1 444.142 210.66 444.398 210.66 445.086C210.66 445.79 210.196 446.158 209.156 446.158C208.02 446.158 207.588 445.662 207.492 444.814H205.668C205.748 446.59 207.012 447.582 209.172 447.582Z" fill="white"/>
<path opacity="0.3" d="M225.021 438.551L229.021 442.301L225.021 446.051" stroke="white" stroke-width="2" stroke-linecap="round"/>
<path opacity="0.8" d="M50.432 537.006H52.432L53.328 534.174H57.696L58.608 537.006H60.816L57.04 525.566H54.256L50.432 537.006ZM55.52 527.31L57.2 532.622H53.824L55.52 527.31ZM62.402 539.87H64.338V535.694C64.786 536.51 65.746 537.166 67.074 537.166C69.234 537.166 70.786 535.534 70.786 532.846V532.718C70.786 530.014 69.17 528.462 67.074 528.462C65.842 528.462 64.802 529.182 64.338 529.982V528.638H62.402V539.87ZM66.594 535.63C65.186 535.63 64.274 534.75 64.274 532.878V532.75C64.274 530.894 65.234 529.982 66.578 529.982C67.842 529.982 68.802 530.894 68.802 532.75V532.878C68.802 534.67 68.018 535.63 66.594 535.63ZM72.527 539.87H74.463V535.694C74.911 536.51 75.871 537.166 77.199 537.166C79.359 537.166 80.911 535.534 80.911 532.846V532.718C80.911 530.014 79.295 528.462 77.199 528.462C75.967 528.462 74.927 529.182 74.463 529.982V528.638H72.527V539.87ZM76.719 535.63C75.311 535.63 74.399 534.75 74.399 532.878V532.75C74.399 530.894 75.359 529.982 76.703 529.982C77.967 529.982 78.927 530.894 78.927 532.75V532.878C78.927 534.67 78.143 535.63 76.719 535.63ZM85.516 537.166C87.66 537.166 88.86 536.19 88.86 534.494C88.86 532.718 87.692 532.238 85.724 531.934C84.396 531.71 83.996 531.47 83.996 530.862C83.996 530.27 84.492 529.87 85.324 529.87C86.22 529.87 86.652 530.222 86.812 530.99H88.604C88.396 529.102 87.036 528.462 85.324 528.462C83.756 528.462 82.188 529.294 82.188 530.974C82.188 532.542 83.004 533.166 85.212 533.518C86.444 533.726 87.004 533.982 87.004 534.67C87.004 535.374 86.54 535.742 85.5 535.742C84.364 535.742 83.932 535.246 83.836 534.398H82.012C82.092 536.174 83.356 537.166 85.516 537.166ZM104.179 531.086H102.435L101.267 533.326L99.2508 530.862C100.739 530.222 101.635 529.278 101.635 527.95C101.635 526.414 100.323 525.47 98.7548 525.47C97.0908 525.47 95.6028 526.43 95.6028 528.238C95.6028 528.926 95.8908 529.694 96.4988 530.494C94.9628 531.23 93.9228 532.206 93.9228 533.886C93.9228 535.886 95.4588 537.15 97.6828 537.15C99.1548 537.15 100.099 536.574 100.819 535.838L101.779 537.006H104.227L102.307 534.67L104.179 531.086ZM97.9068 535.55C96.6588 535.55 95.9388 534.83 95.9388 533.678C95.9388 532.606 96.5468 532.078 97.3948 531.646L99.8268 534.606C99.2988 535.23 98.6428 535.55 97.9068 535.55ZM97.4908 528.254C97.4908 527.342 98.0508 526.894 98.7548 526.894C99.4268 526.894 99.8748 527.374 99.8748 528.03C99.8748 528.926 99.4268 529.438 98.3548 529.934C97.8108 529.278 97.4908 528.782 97.4908 528.254ZM113.684 537.166C116.212 537.166 117.892 535.614 117.892 533.63C117.892 531.342 116.5 530.574 113.812 530.206C111.828 529.918 111.444 529.454 111.444 528.526C111.444 527.646 112.116 527.022 113.412 527.022C114.724 527.022 115.412 527.534 115.62 528.734H117.572C117.348 526.542 115.876 525.422 113.412 525.422C111.028 525.422 109.428 526.83 109.428 528.702C109.428 530.846 110.724 531.678 113.46 532.046C115.316 532.35 115.844 532.75 115.844 533.806C115.844 534.862 114.948 535.566 113.684 535.566C111.748 535.566 111.284 534.606 111.14 533.454H109.092C109.252 535.614 110.564 537.166 113.684 537.166ZM121.985 537.166C123.265 537.166 124.001 536.702 124.545 535.982V537.006H126.449V531.518C126.449 529.23 124.977 528.462 123.105 528.462C121.233 528.462 119.681 529.278 119.521 531.23H121.393C121.489 530.398 121.985 529.918 122.993 529.918C124.129 529.918 124.513 530.478 124.513 531.598V532.03H123.473C121.073 532.03 119.185 532.734 119.185 534.686C119.185 536.43 120.449 537.166 121.985 537.166ZM122.449 535.774C121.489 535.774 121.105 535.31 121.105 534.606C121.105 533.582 122.049 533.246 123.521 533.246H124.513V534.078C124.513 535.15 123.633 535.774 122.449 535.774ZM130.86 537.166C132.14 537.166 132.876 536.702 133.42 535.982V537.006H135.324V531.518C135.324 529.23 133.852 528.462 131.98 528.462C130.108 528.462 128.556 529.278 128.396 531.23H130.268C130.364 530.398 130.86 529.918 131.868 529.918C133.004 529.918 133.388 530.478 133.388 531.598V532.03H132.348C129.948 532.03 128.06 532.734 128.06 534.686C128.06 536.43 129.324 537.166 130.86 537.166ZM131.324 535.774C130.364 535.774 129.98 535.31 129.98 534.606C129.98 533.582 130.924 533.246 132.396 533.246H133.388V534.078C133.388 535.15 132.508 535.774 131.324 535.774ZM141.591 537.166C144.119 537.166 145.799 535.614 145.799 533.63C145.799 531.342 144.407 530.574 141.719 530.206C139.735 529.918 139.351 529.454 139.351 528.526C139.351 527.646 140.023 527.022 141.319 527.022C142.631 527.022 143.319 527.534 143.527 528.734H145.479C145.255 526.542 143.783 525.422 141.319 525.422C138.935 525.422 137.335 526.83 137.335 528.702C137.335 530.846 138.631 531.678 141.367 532.046C143.223 532.35 143.751 532.75 143.751 533.806C143.751 534.862 142.855 535.566 141.591 535.566C139.655 535.566 139.191 534.606 139.047 533.454H136.999C137.159 535.614 138.471 537.166 141.591 537.166Z" fill="white"/>
<path opacity="0.3" d="M158 528.356L162 532.106L158 535.856" stroke="white" stroke-width="2" stroke-linecap="round"/>
<path opacity="0.8" d="M51.312 626.59H53.44V622.238H55.04C57.488 622.238 59.232 621.166 59.232 618.75V618.686C59.232 616.286 57.552 615.15 54.992 615.15H51.312V626.59ZM53.44 620.702V616.798H54.992C56.352 616.798 57.152 617.326 57.152 618.686V618.75C57.152 620.014 56.4 620.702 54.992 620.702H53.44ZM62.9378 626.75C64.2178 626.75 64.9538 626.286 65.4978 625.566V626.59H67.4018V621.102C67.4018 618.814 65.9298 618.046 64.0578 618.046C62.1858 618.046 60.6338 618.862 60.4738 620.814H62.3458C62.4418 619.982 62.9378 619.502 63.9458 619.502C65.0818 619.502 65.4658 620.062 65.4658 621.182V621.614H64.4258C62.0258 621.614 60.1378 622.318 60.1378 624.27C60.1378 626.014 61.4018 626.75 62.9378 626.75ZM63.4018 625.358C62.4418 625.358 62.0578 624.894 62.0578 624.19C62.0578 623.166 63.0018 622.83 64.4738 622.83H65.4658V623.662C65.4658 624.734 64.5858 625.358 63.4018 625.358ZM70.3144 629.454H72.2184L76.7784 618.222H74.8904L72.8424 623.614L70.6184 618.222H68.5224L71.8344 625.742L70.3144 629.454ZM78.2301 626.59H80.1661V621.582C80.1661 620.302 81.0461 619.662 82.0061 619.662C82.9501 619.662 83.4941 620.19 83.4941 621.422V626.59H85.4301V621.582C85.4301 620.302 86.3101 619.662 87.2701 619.662C88.2301 619.662 88.7581 620.19 88.7581 621.422V626.59H90.6941V621.294C90.6941 618.99 89.4461 618.046 87.9101 618.046C86.8701 618.046 85.7181 618.51 85.0781 619.55C84.6621 618.51 83.7981 618.046 82.7101 618.046C81.4781 618.046 80.5661 618.718 80.1661 619.502V618.222H78.2301V626.59ZM96.5976 626.75C98.7416 626.75 100.166 625.79 100.438 624.03H98.5656C98.4216 624.846 97.8136 625.31 96.6456 625.31C95.2056 625.31 94.4056 624.414 94.3416 622.83H100.47V622.27C100.47 619.278 98.5976 618.046 96.5176 618.046C94.1336 618.046 92.3576 619.774 92.3576 622.366V622.494C92.3576 625.134 94.1336 626.75 96.5976 626.75ZM94.3736 621.534C94.5656 620.238 95.3496 619.454 96.5176 619.454C97.7176 619.454 98.4536 620.094 98.5496 621.534H94.3736ZM102.199 626.59H104.135V621.662C104.135 620.334 105.015 619.662 106.103 619.662C107.255 619.662 107.767 620.238 107.767 621.502V626.59H109.703V621.326C109.703 619.022 108.519 618.046 106.839 618.046C105.463 618.046 104.535 618.734 104.135 619.55V618.222H102.199V626.59ZM114.781 626.734C115.373 626.734 115.789 626.638 116.093 626.526V624.99C115.821 625.102 115.533 625.15 115.149 625.15C114.541 625.15 114.189 624.814 114.189 624.078V619.678H116.029V618.222H114.189V616.382H112.253V618.222H111.133V619.678H112.253V624.254C112.253 625.838 113.117 626.734 114.781 626.734ZM121.812 626.59H123.94V622.238H125.54C127.988 622.238 129.732 621.166 129.732 618.75V618.686C129.732 616.286 128.052 615.15 125.492 615.15H121.812V626.59ZM123.94 620.702V616.798H125.492C126.852 616.798 127.652 617.326 127.652 618.686V618.75C127.652 620.014 126.9 620.702 125.492 620.702H123.94ZM131.402 626.59H133.338V622.238C133.338 620.462 134.362 619.918 136.058 619.902V618.094C134.65 618.11 133.866 618.734 133.338 619.79V618.222H131.402V626.59ZM141.349 625.246C139.877 625.246 139.029 624.174 139.029 622.462V622.334C139.029 620.606 139.909 619.566 141.349 619.566C142.789 619.566 143.653 620.622 143.653 622.35V622.462C143.653 624.174 142.789 625.246 141.349 625.246ZM141.333 626.75C143.797 626.75 145.637 625.054 145.637 622.446V622.318C145.637 619.758 143.797 618.046 141.349 618.046C138.885 618.046 137.045 619.774 137.045 622.366V622.494C137.045 625.038 138.869 626.75 141.333 626.75ZM149.266 626.59H151.522L154.546 618.222H152.642L150.482 624.606L148.29 618.222H146.21L149.266 626.59ZM156.028 626.59H157.964V618.222H156.028V626.59ZM156.972 616.846C157.612 616.846 158.124 616.366 158.124 615.742C158.124 615.102 157.612 614.622 156.972 614.622C156.332 614.622 155.82 615.102 155.82 615.742C155.82 616.366 156.332 616.846 156.972 616.846ZM163.46 626.75C164.692 626.75 165.764 626.014 166.212 625.182V626.59H168.148V614.35H166.212V619.502C165.748 618.67 164.9 618.046 163.54 618.046C161.364 618.046 159.78 619.742 159.78 622.414V622.542C159.78 625.262 161.364 626.75 163.46 626.75ZM163.94 625.214C162.692 625.214 161.764 624.334 161.764 622.494V622.366C161.764 620.558 162.596 619.566 164.02 619.566C165.428 619.566 166.276 620.478 166.276 622.318V622.446C166.276 624.318 165.284 625.214 163.94 625.214ZM174.129 626.75C176.273 626.75 177.697 625.79 177.969 624.03H176.097C175.953 624.846 175.345 625.31 174.177 625.31C172.737 625.31 171.937 624.414 171.873 622.83H178.001V622.27C178.001 619.278 176.129 618.046 174.049 618.046C171.665 618.046 169.889 619.774 169.889 622.366V622.494C169.889 625.134 171.665 626.75 174.129 626.75ZM171.905 621.534C172.097 620.238 172.881 619.454 174.049 619.454C175.249 619.454 175.985 620.094 176.081 621.534H171.905ZM179.73 626.59H181.666V622.238C181.666 620.462 182.69 619.918 184.386 619.902V618.094C182.978 618.11 182.194 618.734 181.666 619.79V618.222H179.73V626.59ZM188.954 626.75C191.098 626.75 192.298 625.774 192.298 624.078C192.298 622.302 191.13 621.822 189.161 621.518C187.834 621.294 187.434 621.054 187.434 620.446C187.434 619.854 187.93 619.454 188.762 619.454C189.658 619.454 190.09 619.806 190.25 620.574H192.042C191.834 618.686 190.474 618.046 188.762 618.046C187.194 618.046 185.626 618.878 185.626 620.558C185.626 622.126 186.442 622.75 188.65 623.102C189.882 623.31 190.442 623.566 190.442 624.254C190.442 624.958 189.978 625.326 188.938 625.326C187.802 625.326 187.37 624.83 187.274 623.982H185.45C185.53 625.758 186.794 626.75 188.954 626.75Z" fill="white"/>
<path opacity="0.3" d="M203.353 617.59L207.353 621.34L203.353 625.09" stroke="white" stroke-width="2" stroke-linecap="round"/>
<path opacity="0.8" d="M51.312 713.174H53.44V708.486H57.344V706.838H53.44V703.43H58.4V701.734H51.312V713.174ZM59.9813 713.174H61.9173V704.806H59.9813V713.174ZM60.9253 703.43C61.5653 703.43 62.0773 702.95 62.0773 702.326C62.0773 701.686 61.5653 701.206 60.9253 701.206C60.2853 701.206 59.7733 701.686 59.7733 702.326C59.7733 702.95 60.2853 703.43 60.9253 703.43ZM64.277 713.174H66.213V708.246C66.213 706.918 67.093 706.246 68.181 706.246C69.333 706.246 69.845 706.822 69.845 708.086V713.174H71.781V707.91C71.781 705.606 70.597 704.63 68.917 704.63C67.541 704.63 66.613 705.318 66.213 706.134V704.806H64.277V713.174ZM76.2034 713.334C77.4834 713.334 78.2194 712.87 78.7634 712.15V713.174H80.6674V707.686C80.6674 705.398 79.1954 704.63 77.3234 704.63C75.4514 704.63 73.8994 705.446 73.7394 707.398H75.6114C75.7074 706.566 76.2034 706.086 77.2114 706.086C78.3474 706.086 78.7314 706.646 78.7314 707.766V708.198H77.6914C75.2914 708.198 73.4034 708.902 73.4034 710.854C73.4034 712.598 74.6674 713.334 76.2034 713.334ZM76.6674 711.942C75.7074 711.942 75.3234 711.478 75.3234 710.774C75.3234 709.75 76.2674 709.414 77.7394 709.414H78.7314V710.246C78.7314 711.318 77.8514 711.942 76.6674 711.942ZM82.8864 713.174H84.8224V708.246C84.8224 706.918 85.7024 706.246 86.7904 706.246C87.9424 706.246 88.4544 706.822 88.4544 708.086V713.174H90.3904V707.91C90.3904 705.606 89.2064 704.63 87.5264 704.63C86.1504 704.63 85.2224 705.318 84.8224 706.134V704.806H82.8864V713.174ZM96.2848 713.334C98.5568 713.334 100.013 711.974 100.157 710.054H98.3808C98.2688 711.238 97.3888 711.846 96.3648 711.846C94.9408 711.846 94.0448 710.886 94.0448 709.062V708.934C94.0448 707.206 94.9888 706.182 96.3168 706.182C97.3408 706.182 98.0768 706.646 98.2368 707.766H100.109C99.8848 705.462 98.1408 704.63 96.2848 704.63C93.9488 704.63 92.0608 706.31 92.0608 708.966V709.094C92.0608 711.766 93.8848 713.334 96.2848 713.334ZM101.872 713.174H103.808V704.806H101.872V713.174ZM102.816 703.43C103.456 703.43 103.968 702.95 103.968 702.326C103.968 701.686 103.456 701.206 102.816 701.206C102.176 701.206 101.664 701.686 101.664 702.326C101.664 702.95 102.176 703.43 102.816 703.43ZM108.36 713.334C109.64 713.334 110.376 712.87 110.92 712.15V713.174H112.824V707.686C112.824 705.398 111.352 704.63 109.48 704.63C107.608 704.63 106.056 705.446 105.896 707.398H107.768C107.864 706.566 108.36 706.086 109.368 706.086C110.504 706.086 110.888 706.646 110.888 707.766V708.198H109.848C107.448 708.198 105.56 708.902 105.56 710.854C105.56 712.598 106.824 713.334 108.36 713.334ZM108.824 711.942C107.864 711.942 107.48 711.478 107.48 710.774C107.48 709.75 108.424 709.414 109.896 709.414H110.888V710.246C110.888 711.318 110.008 711.942 108.824 711.942ZM115.091 713.174H117.027V700.934H115.091V713.174ZM127.247 713.334C129.775 713.334 131.455 711.782 131.455 709.798C131.455 707.51 130.063 706.742 127.375 706.374C125.391 706.086 125.007 705.622 125.007 704.694C125.007 703.814 125.679 703.19 126.975 703.19C128.287 703.19 128.975 703.702 129.183 704.902H131.135C130.911 702.71 129.439 701.59 126.975 701.59C124.591 701.59 122.991 702.998 122.991 704.87C122.991 707.014 124.287 707.846 127.023 708.214C128.879 708.518 129.407 708.918 129.407 709.974C129.407 711.03 128.511 711.734 127.247 711.734C125.311 711.734 124.847 710.774 124.703 709.622H122.655C122.815 711.782 124.127 713.334 127.247 713.334ZM137.035 713.334C139.179 713.334 140.603 712.374 140.875 710.614H139.003C138.859 711.43 138.251 711.894 137.083 711.894C135.643 711.894 134.843 710.998 134.779 709.414H140.907V708.854C140.907 705.862 139.035 704.63 136.955 704.63C134.571 704.63 132.795 706.358 132.795 708.95V709.078C132.795 711.718 134.571 713.334 137.035 713.334ZM134.811 708.118C135.003 706.822 135.787 706.038 136.955 706.038C138.155 706.038 138.891 706.678 138.987 708.118H134.811ZM142.636 713.174H144.572V708.822C144.572 707.046 145.596 706.502 147.292 706.486V704.678C145.884 704.694 145.1 705.318 144.572 706.374V704.806H142.636V713.174ZM151.266 713.174H153.522L156.546 704.806H154.642L152.482 711.19L150.29 704.806H148.21L151.266 713.174ZM158.028 713.174H159.964V704.806H158.028V713.174ZM158.972 703.43C159.612 703.43 160.124 702.95 160.124 702.326C160.124 701.686 159.612 701.206 158.972 701.206C158.332 701.206 157.82 701.686 157.82 702.326C157.82 702.95 158.332 703.43 158.972 703.43ZM165.988 713.334C168.26 713.334 169.716 711.974 169.86 710.054H168.084C167.972 711.238 167.092 711.846 166.068 711.846C164.644 711.846 163.748 710.886 163.748 709.062V708.934C163.748 707.206 164.692 706.182 166.02 706.182C167.044 706.182 167.78 706.646 167.94 707.766H169.812C169.588 705.462 167.844 704.63 165.988 704.63C163.652 704.63 161.764 706.31 161.764 708.966V709.094C161.764 711.766 163.588 713.334 165.988 713.334ZM175.207 713.334C177.351 713.334 178.775 712.374 179.047 710.614H177.175C177.031 711.43 176.423 711.894 175.255 711.894C173.815 711.894 173.015 710.998 172.951 709.414H179.079V708.854C179.079 705.862 177.207 704.63 175.127 704.63C172.743 704.63 170.967 706.358 170.967 708.95V709.078C170.967 711.718 172.743 713.334 175.207 713.334ZM172.983 708.118C173.175 706.822 173.959 706.038 175.127 706.038C176.327 706.038 177.063 706.678 177.159 708.118H172.983ZM183.75 713.334C185.894 713.334 187.094 712.358 187.094 710.662C187.094 708.886 185.926 708.406 183.958 708.102C182.63 707.878 182.23 707.638 182.23 707.03C182.23 706.438 182.726 706.038 183.558 706.038C184.454 706.038 184.886 706.39 185.046 707.158H186.838C186.63 705.27 185.27 704.63 183.558 704.63C181.99 704.63 180.422 705.462 180.422 707.142C180.422 708.71 181.238 709.334 183.446 709.686C184.678 709.894 185.238 710.15 185.238 710.838C185.238 711.542 184.774 711.91 183.734 711.91C182.598 711.91 182.166 711.414 182.07 710.566H180.246C180.326 712.342 181.59 713.334 183.75 713.334ZM51.312 736.174H53.44V731.822H55.04C57.488 731.822 59.232 730.75 59.232 728.334V728.27C59.232 725.87 57.552 724.734 54.992 724.734H51.312V736.174ZM53.44 730.286V726.382H54.992C56.352 726.382 57.152 726.91 57.152 728.27V728.334C57.152 729.598 56.4 730.286 54.992 730.286H53.44ZM60.902 736.174H62.838V731.822C62.838 730.046 63.862 729.502 65.558 729.486V727.678C64.15 727.694 63.366 728.318 62.838 729.374V727.806H60.902V736.174ZM70.8491 734.83C69.3771 734.83 68.5291 733.758 68.5291 732.046V731.918C68.5291 730.19 69.4091 729.15 70.8491 729.15C72.2891 729.15 73.1531 730.206 73.1531 731.934V732.046C73.1531 733.758 72.2891 734.83 70.8491 734.83ZM70.8331 736.334C73.2971 736.334 75.1371 734.638 75.1371 732.03V731.902C75.1371 729.342 73.2971 727.63 70.8491 727.63C68.3851 727.63 66.5451 729.358 66.5451 731.95V732.078C66.5451 734.622 68.3691 736.334 70.8331 736.334ZM78.7659 736.174H81.0219L84.0459 727.806H82.1419L79.9819 734.19L77.7899 727.806H75.7099L78.7659 736.174ZM85.5281 736.174H87.4641V727.806H85.5281V736.174ZM86.4721 726.43C87.1121 726.43 87.6241 725.95 87.6241 725.326C87.6241 724.686 87.1121 724.206 86.4721 724.206C85.8321 724.206 85.3201 724.686 85.3201 725.326C85.3201 725.95 85.8321 726.43 86.4721 726.43ZM92.9599 736.334C94.1919 736.334 95.2639 735.598 95.7119 734.766V736.174H97.6479V723.934H95.7119V729.086C95.2479 728.254 94.3999 727.63 93.0399 727.63C90.8639 727.63 89.2799 729.326 89.2799 731.998V732.126C89.2799 734.846 90.8639 736.334 92.9599 736.334ZM93.4399 734.798C92.1919 734.798 91.2639 733.918 91.2639 732.078V731.95C91.2639 730.142 92.0959 729.15 93.5199 729.15C94.9279 729.15 95.7759 730.062 95.7759 731.902V732.03C95.7759 733.902 94.7839 734.798 93.4399 734.798ZM103.629 736.334C105.773 736.334 107.197 735.374 107.469 733.614H105.597C105.453 734.43 104.845 734.894 103.677 734.894C102.237 734.894 101.437 733.998 101.373 732.414H107.501V731.854C107.501 728.862 105.629 727.63 103.549 727.63C101.165 727.63 99.3889 729.358 99.3889 731.95V732.078C99.3889 734.718 101.165 736.334 103.629 736.334ZM101.405 731.118C101.597 729.822 102.381 729.038 103.549 729.038C104.749 729.038 105.485 729.678 105.581 731.118H101.405ZM109.23 736.174H111.166V731.822C111.166 730.046 112.19 729.502 113.886 729.486V727.678C112.478 727.694 111.694 728.318 111.166 729.374V727.806H109.23V736.174ZM118.454 736.334C120.598 736.334 121.798 735.358 121.798 733.662C121.798 731.886 120.63 731.406 118.661 731.102C117.334 730.878 116.934 730.638 116.934 730.03C116.934 729.438 117.43 729.038 118.262 729.038C119.158 729.038 119.59 729.39 119.75 730.158H121.542C121.334 728.27 119.974 727.63 118.262 727.63C116.694 727.63 115.126 728.462 115.126 730.142C115.126 731.71 115.942 732.334 118.15 732.686C119.382 732.894 119.942 733.15 119.942 733.838C119.942 734.542 119.478 734.91 118.438 734.91C117.302 734.91 116.87 734.414 116.774 733.566H114.95C115.03 735.342 116.294 736.334 118.454 736.334Z" fill="white"/>
<path opacity="0.3" d="M203.353 715.174L207.353 718.924L203.353 722.674" stroke="white" stroke-width="2" stroke-linecap="round"/>
<circle cx="619.999" cy="400.63" r="15.351" fill="#C4C4C4"/>
<path d="M451.71 230.362L450.202 231.677L451.71 230.362ZM450.202 231.677L598.296 401.481L601.311 398.852L453.217 229.048L450.202 231.677ZM427.194 200.852C434.071 211.695 441.763 222 450.202 231.677L453.217 229.048C444.91 219.523 437.34 209.382 430.571 198.71L427.194 200.852ZM185.067 87.0712C280.596 75.4109 375.661 119.603 427.194 200.852L430.571 198.71C378.199 116.136 281.619 71.2563 184.582 83.1007L185.067 87.0712Z" fill="url(#paint2_linear_1557:5541)"/>
<path d="M797.797 230.362L799.305 231.677L797.797 230.362ZM799.305 231.677L651.21 401.481L648.196 398.852L796.29 229.048L799.305 231.677ZM822.313 200.852C815.436 211.695 807.744 222 799.305 231.677L796.29 229.048C804.596 219.523 812.167 209.382 818.935 198.71L822.313 200.852ZM1064.44 87.0712C968.911 75.4109 873.846 119.603 822.313 200.852L818.935 198.71C871.308 116.136 967.888 71.2563 1064.92 83.1007L1064.44 87.0712Z" fill="url(#paint3_linear_1557:5541)"/>
<path d="M445.695 568.424L444.308 566.983L445.695 568.424ZM383.67 644.457L411.036 605.712L414.304 608.019L386.937 646.765L383.67 644.457ZM444.308 566.983L620.562 397.348L623.335 400.23L447.081 569.865L444.308 566.983ZM411.036 605.712C420.877 591.779 432.018 578.811 444.308 566.983L447.081 569.865C434.974 581.518 423.998 594.293 414.304 608.019L411.036 605.712ZM217.717 721.289C282.772 727.073 345.991 697.804 383.67 644.457L386.937 646.765C348.436 701.276 283.838 731.183 217.363 725.273L217.717 721.289Z" fill="url(#paint4_linear_1557:5541)"/>
<path d="M803.32 567.95L804.707 566.509L803.32 567.95ZM1091.07 720.435L1078.72 721.203L1078.97 725.196L1091.31 724.427L1091.07 720.435ZM804.707 566.509L628.945 397.348L626.171 400.23L801.933 569.391L804.707 566.509ZM838.864 606.27C828.761 591.966 817.324 578.653 804.707 566.509L801.933 569.391C814.368 581.359 825.64 594.48 835.597 608.577L838.864 606.27ZM1078.72 721.203C984.245 727.081 893.473 683.585 838.864 606.27L835.597 608.577C891.006 687.026 983.108 731.16 1078.97 725.196L1078.72 721.203Z" fill="url(#paint5_linear_1557:5541)"/>
<path d="M400.477 257.931L398.895 259.155L400.477 257.931ZM383.358 235.819L381.777 237.043L383.358 235.819ZM381.777 237.043L398.895 259.155L402.058 256.707L384.94 234.595L381.777 237.043ZM461.757 312.979L620.395 400.507L622.328 397.005L463.689 309.477L461.757 312.979ZM398.895 259.155C415.959 281.197 437.351 299.514 461.757 312.979L463.689 309.477C439.761 296.275 418.787 278.317 402.058 256.707L398.895 259.155ZM245.76 179.584C298.022 173.674 349.581 195.455 381.777 237.043L384.94 234.595C351.889 191.901 298.96 169.542 245.31 175.61L245.76 179.584Z" fill="url(#paint6_linear_1557:5541)"/>
<path d="M1059.23 178.148L1030.16 176.454L1030.4 172.461L1059.46 174.155L1059.23 178.148ZM785.991 313.95L629.113 400.507L627.18 397.005L784.058 310.448L785.991 313.95ZM851.843 257.566C833.968 280.656 811.558 299.844 785.991 313.95L784.058 310.448C809.147 296.605 831.139 277.776 848.68 255.117L851.843 257.566ZM1030.16 176.454C960.983 172.421 894.265 202.769 851.843 257.566L848.68 255.117C891.909 199.277 959.898 168.351 1030.4 172.461L1030.16 176.454Z" fill="url(#paint7_linear_1557:5541)"/>
<path d="M399.222 546.285L397.82 544.858L399.222 546.285ZM372.881 572.181L371.479 570.755L372.881 572.181ZM371.479 570.755L397.82 544.858L400.624 547.711L374.283 573.607L371.479 570.755ZM436.881 513.353L604.042 403.695L606.236 407.04L439.075 516.698L436.881 513.353ZM397.82 544.858C409.777 533.103 422.86 522.55 436.881 513.353L439.075 516.698C425.273 525.751 412.394 536.139 400.624 547.711L397.82 544.858ZM226.557 619.805C279.821 626.453 333.202 608.386 371.479 570.755L374.283 573.607C335.134 612.095 280.538 630.574 226.062 623.774L226.557 619.805Z" fill="url(#paint8_linear_1557:5541)"/>
<path d="M810.668 512.655L809.584 514.336L810.668 512.655ZM1056.56 623.884L1056.42 621.889L1056.56 623.884ZM1069.66 620.935L1056.42 621.889L1056.7 625.879L1069.95 624.925L1069.66 620.935ZM811.752 510.974L645.452 403.687L643.283 407.048L809.584 514.336L811.752 510.974ZM855.6 546.536C842.314 533.13 827.612 521.206 811.752 510.974L809.584 514.336C825.201 524.411 839.677 536.151 852.759 549.352L855.6 546.536ZM1056.42 621.889C981.689 627.275 908.338 599.751 855.6 546.536L852.759 549.352C906.319 603.395 980.813 631.348 1056.7 625.879L1056.42 621.889Z" fill="url(#paint9_linear_1557:5541)"/>
<path d="M235.416 267.772L263.25 267.772V263.772L235.416 263.772L235.416 267.772ZM433.37 339.334L623.638 400.66L624.865 396.853L434.597 335.527L433.37 339.334ZM374.717 307.452C392.115 321.636 412.006 332.448 433.37 339.334L434.597 335.527C413.707 328.794 394.257 318.221 377.245 304.352L374.717 307.452ZM263.25 267.772C303.866 267.772 343.238 281.787 374.717 307.452L377.245 304.352C345.052 278.105 304.787 263.772 263.25 263.772V267.772Z" fill="url(#paint10_linear_1557:5541)"/>
<path d="M1053.56 267.772H986.256V263.772H1053.56V267.772ZM816.136 339.334L625.868 400.66L624.641 396.853L814.909 335.527L816.136 339.334ZM874.789 307.452C857.392 321.636 837.5 332.448 816.136 339.334L814.909 335.527C835.799 328.794 855.25 318.221 872.261 304.352L874.789 307.452ZM986.256 267.772C945.64 267.772 906.269 281.787 874.789 307.452L872.261 304.352C904.455 278.105 944.719 263.772 986.256 263.772V267.772Z" fill="url(#paint11_linear_1557:5541)"/>
<path d="M176.702 531.63L214.353 536.208L213.87 540.178L176.22 535.6L176.702 531.63ZM438.368 458.229L620.076 402.005L621.259 405.826L439.55 462.05L438.368 458.229ZM370.138 493.557C390.603 477.822 413.707 465.86 438.368 458.229L439.55 462.05C415.343 469.54 392.664 481.283 372.577 496.728L370.138 493.557ZM214.353 536.208C269.864 542.958 325.807 527.642 370.138 493.557L372.577 496.728C327.414 531.452 270.422 547.055 213.87 540.178L214.353 536.208Z" fill="url(#paint12_linear_1557:5541)"/>
<path d="M1083.54 532.598L1034.71 537.718L1035.13 541.696L1083.96 536.577L1083.54 532.598ZM810.526 458.039L629.432 402.005L628.249 405.826L809.344 461.86L810.526 458.039ZM879.879 493.948C859.077 477.955 835.593 465.795 810.526 458.039L809.344 461.86C833.957 469.476 857.016 481.416 877.441 497.12L879.879 493.948ZM1034.71 537.718C979.399 543.518 923.97 527.849 879.879 493.948L877.441 497.12C922.345 531.645 978.796 547.603 1035.13 541.696L1034.71 537.718Z" fill="url(#paint13_linear_1557:5541)"/>
<path d="M231.31 354.487L246.878 352.687L246.418 348.714L230.85 350.514L231.31 354.487ZM437.625 382.994L622.709 392.081L622.905 388.086L437.821 378.999L437.625 382.994ZM361.591 367.052C385.938 376.336 411.599 381.716 437.625 382.994L437.821 378.999C412.216 377.742 386.97 372.448 363.016 363.315L361.591 367.052ZM246.878 352.687C285.714 348.196 325.061 353.123 361.591 367.052L363.016 363.315C325.886 349.157 285.893 344.149 246.418 348.714L246.878 352.687Z" fill="url(#paint14_linear_1557:5541)"/>
<path d="M1032.23 354.491L1001.84 351.529L1002.23 347.548L1032.62 350.51L1032.23 354.491ZM810.944 383.04L626.799 392.081L626.603 388.086L810.748 379.045L810.944 383.04ZM888.796 366.717C863.866 376.223 837.592 381.732 810.944 383.04L810.748 379.045C836.975 377.757 862.835 372.335 887.371 362.98L888.796 366.717ZM1001.84 351.529C963.494 347.79 924.799 352.989 888.796 366.717L887.371 362.98C923.952 349.031 963.267 343.749 1002.23 347.548L1001.84 351.529Z" fill="url(#paint15_linear_1557:5541)"/>
<path d="M240.31 440.838L253.85 442.404L253.391 446.377L239.85 444.811L240.31 440.838ZM445.347 415.067L631.68 403.246L631.933 407.238L445.6 419.059L445.347 415.067ZM373.264 429.466C396.541 421.468 420.784 416.625 445.347 415.067L445.6 419.059C421.394 420.594 397.503 425.367 374.564 433.249L373.264 429.466ZM253.85 442.404C294.122 447.061 334.925 442.64 373.264 429.466L374.564 433.249C335.66 446.617 294.255 451.103 253.391 446.377L253.85 442.404Z" fill="url(#paint16_linear_1557:5541)"/>
<path d="M1028.24 440.833L994.581 443.94L994.949 447.923L1028.61 444.816L1028.24 440.833ZM802.888 414.986L617.828 403.246L617.575 407.238L802.634 418.978L802.888 414.986ZM877.45 429.881C853.373 421.607 828.296 416.598 802.888 414.986L802.634 418.978C827.686 420.567 852.411 425.506 876.15 433.663L877.45 429.881ZM994.581 443.94C954.982 447.596 915.059 442.803 877.45 429.881L876.15 433.663C914.295 446.77 954.786 451.631 994.949 447.923L994.581 443.94Z" fill="url(#paint17_linear_1557:5541)"/>
<circle opacity="0.1" cx="620" cy="400.63" r="136.056" fill="url(#paint18_linear_1557:5541)"/>
<circle opacity="0.1" cx="620" cy="400.63" r="157.464" fill="url(#paint19_linear_1557:5541)"/>
<circle opacity="0.1" cx="620" cy="400.63" r="177.146" fill="url(#paint20_linear_1557:5541)"/>
<circle opacity="0.1" cx="620" cy="400.63" r="194.797" fill="url(#paint21_linear_1557:5541)"/>
<circle opacity="0.04" cx="620" cy="400.63" r="269.073" stroke="#FECCF8" stroke-width="4"/>
<circle opacity="0.02" cx="620" cy="400.63" r="367.842" stroke="#FECCF8" stroke-width="4"/>
<circle opacity="0.02" cx="620" cy="400.63" r="475.198" stroke="#FECCF8" stroke-width="4"/>
<circle cx="620" cy="400.63" r="108.785" fill="url(#paint22_linear_1557:5541)" stroke="#FECCF8" stroke-width="12"/>
<path d="M645.201 384.436L656.835 334.227L629.661 354.066L618.401 391.466L610.282 368.265L583.554 365.816L573.629 403.283L593.835 387.186L604.783 405.72L590.7 435.111L597.925 453.156L615.835 464.036L618.444 465.671L619.264 465.096L638.913 453.156L646.169 435.154L632.086 405.836L645.201 384.436ZM587.259 371.106L602.854 372.558L582.201 390.119L587.259 371.106ZM597.668 383.965L607.422 375.056L615.266 397.534L608.359 402.108L597.668 383.965ZM616.037 446.371L615.878 458.238L603.399 450.67L616.258 431.37L616.037 446.371ZM600.448 446.187L596.064 435.307L609.467 407.355L616.043 403.51L616.399 422.301L600.448 446.187ZM649.053 346.045L642.262 375.246L634.786 356.442L649.053 346.045ZM632.11 363.067L640.132 383.273L628.608 402.065L621.805 397.283L632.11 363.067ZM620.991 458.238L620.562 431.37L633.421 450.67L620.991 458.238ZM640.774 435.301L636.384 446.181L620.464 422.301L620.777 403.504L627.353 407.349L640.774 435.301Z" fill="white"/>
</g>
<defs>
<linearGradient id="paint0_linear_1557:5541" x1="460" y1="-55.9734" x2="722.044" y2="724.959" gradientUnits="userSpaceOnUse">
<stop stop-color="#176156"/>
<stop offset="0.494792" stop-color="#032621"/>
</linearGradient>
<linearGradient id="paint1_linear_1557:5541" x1="460" y1="-55.9734" x2="722.044" y2="724.959" gradientUnits="userSpaceOnUse">
<stop stop-color="#176156"/>
<stop offset="0.494792" stop-color="#032621"/>
</linearGradient>
<linearGradient id="paint2_linear_1557:5541" x1="470.62" y1="255.076" x2="205.013" y2="55.6416" gradientUnits="userSpaceOnUse">
<stop stop-color="#FECCF8"/>
<stop offset="1" stop-color="#F9C8F4" stop-opacity="0"/>
</linearGradient>
<linearGradient id="paint3_linear_1557:5541" x1="778.887" y1="255.076" x2="1044.49" y2="55.6416" gradientUnits="userSpaceOnUse">
<stop stop-color="#FECCF8"/>
<stop offset="1" stop-color="#F9C8F4" stop-opacity="0"/>
</linearGradient>
<linearGradient id="paint4_linear_1557:5541" x1="569.786" y1="479.912" x2="357.788" y2="819.68" gradientUnits="userSpaceOnUse">
<stop stop-color="#FECCF8"/>
<stop offset="1" stop-color="#F9C8F4" stop-opacity="0"/>
</linearGradient>
<linearGradient id="paint5_linear_1557:5541" x1="679.721" y1="479.912" x2="924.799" y2="832.024" gradientUnits="userSpaceOnUse">
<stop stop-color="#FECCF8"/>
<stop offset="1" stop-color="#F9C8F4" stop-opacity="0"/>
</linearGradient>
<linearGradient id="paint6_linear_1557:5541" x1="491.267" y1="322.915" x2="273.613" y2="132.887" gradientUnits="userSpaceOnUse">
<stop stop-color="#FECCF8"/>
<stop offset="1" stop-color="#F9C8F4" stop-opacity="0"/>
</linearGradient>
<linearGradient id="paint7_linear_1557:5541" x1="758.241" y1="322.915" x2="1019.16" y2="114.845" gradientUnits="userSpaceOnUse">
<stop stop-color="#FECCF8"/>
<stop offset="1" stop-color="#F9C8F4" stop-opacity="0"/>
</linearGradient>
<linearGradient id="paint8_linear_1557:5541" x1="539.004" y1="446.668" x2="274.273" y2="685.686" gradientUnits="userSpaceOnUse">
<stop stop-color="#FECCF8"/>
<stop offset="1" stop-color="#F9C8F4" stop-opacity="0"/>
</linearGradient>
<linearGradient id="paint9_linear_1557:5541" x1="710.503" y1="446.668" x2="996.573" y2="702.14" gradientUnits="userSpaceOnUse">
<stop stop-color="#FECCF8"/>
<stop offset="1" stop-color="#F9C8F4" stop-opacity="0"/>
</linearGradient>
<linearGradient id="paint10_linear_1557:5541" x1="466.195" y1="377.481" x2="365.629" y2="192.233" gradientUnits="userSpaceOnUse">
<stop stop-color="#FECCF8"/>
<stop offset="1" stop-color="#F9C8F4" stop-opacity="0"/>
</linearGradient>
<linearGradient id="paint11_linear_1557:5541" x1="783.311" y1="377.481" x2="901.621" y2="173.911" gradientUnits="userSpaceOnUse">
<stop stop-color="#FECCF8"/>
<stop offset="1" stop-color="#F9C8F4" stop-opacity="0"/>
</linearGradient>
<linearGradient id="paint12_linear_1557:5541" x1="537.773" y1="430.662" x2="395.902" y2="666.241" gradientUnits="userSpaceOnUse">
<stop stop-color="#FECCF8"/>
<stop offset="1" stop-color="#F9C8F4" stop-opacity="0"/>
</linearGradient>
<linearGradient id="paint13_linear_1557:5541" x1="711.735" y1="430.662" x2="863.004" y2="673.634" gradientUnits="userSpaceOnUse">
<stop stop-color="#FECCF8"/>
<stop offset="1" stop-color="#F9C8F4" stop-opacity="0"/>
</linearGradient>
<linearGradient id="paint14_linear_1557:5541" x1="497.003" y1="380.695" x2="474.912" y2="292.479" gradientUnits="userSpaceOnUse">
<stop stop-color="#FECCF8"/>
<stop offset="1" stop-color="#F9C8F4" stop-opacity="0"/>
</linearGradient>
<linearGradient id="paint15_linear_1557:5541" x1="752.504" y1="380.695" x2="778.173" y2="282.937" gradientUnits="userSpaceOnUse">
<stop stop-color="#FECCF8"/>
<stop offset="0.996839" stop-color="#F9C8F4" stop-opacity="0"/>
</linearGradient>
<linearGradient id="paint16_linear_1557:5541" x1="466.36" y1="405.242" x2="451.71" y2="484.187" gradientUnits="userSpaceOnUse">
<stop stop-color="#FECCF8"/>
<stop offset="1" stop-color="#F9C8F4" stop-opacity="0"/>
</linearGradient>
<linearGradient id="paint17_linear_1557:5541" x1="764.79" y1="422.067" x2="786.484" y2="504.867" gradientUnits="userSpaceOnUse">
<stop stop-color="#FECCF8"/>
<stop offset="1" stop-color="#F9C8F4" stop-opacity="0"/>
</linearGradient>
<linearGradient id="paint18_linear_1557:5541" x1="542.051" y1="283.943" x2="727.238" y2="477.634" gradientUnits="userSpaceOnUse">
<stop stop-color="white"/>
<stop offset="0.388542" stop-color="#FA02DC"/>
</linearGradient>
<linearGradient id="paint19_linear_1557:5541" x1="529.786" y1="265.583" x2="744.112" y2="489.75" gradientUnits="userSpaceOnUse">
<stop stop-color="white"/>
<stop offset="0.388542" stop-color="#FA02DC"/>
</linearGradient>
<linearGradient id="paint20_linear_1557:5541" x1="518.51" y1="248.703" x2="759.626" y2="500.89" gradientUnits="userSpaceOnUse">
<stop stop-color="white"/>
<stop offset="0.388542" stop-color="#FA02DC"/>
</linearGradient>
<linearGradient id="paint21_linear_1557:5541" x1="508.398" y1="233.565" x2="773.538" y2="510.88" gradientUnits="userSpaceOnUse">
<stop stop-color="white"/>
<stop offset="0.388542" stop-color="#FA02DC"/>
</linearGradient>
<linearGradient id="paint22_linear_1557:5541" x1="554.238" y1="302.186" x2="710.473" y2="465.595" gradientUnits="userSpaceOnUse">
<stop stop-color="white"/>
<stop offset="0.388542" stop-color="#FA02DC"/>
</linearGradient>
</defs>
</svg>
