<svg width="19" height="20" viewBox="0 0 19 20" fill="none" xmlns="http://www.w3.org/2000/svg">
<path d="M10.7204 18.8396C10.886 18.7584 11.0256 18.6325 11.1233 18.4761C11.221 18.3197 11.273 18.139 11.2734 17.9546V12.6346C11.2734 12.3726 11.3784 12.1206 11.5664 11.9346L17.6874 5.88059C18.0624 5.50959 18.2734 5.00559 18.2734 4.48059V1.92459C18.2729 1.79389 18.2466 1.66457 18.1961 1.54404C18.1455 1.42351 18.0717 1.31414 17.9788 1.22218C17.8859 1.13023 17.7758 1.05749 17.6547 1.00814C17.5337 0.958793 17.4041 0.933798 17.2734 0.934588H1.27344C0.720438 0.934588 0.273438 1.37659 0.273438 1.92459V4.48059C0.273438 5.00559 0.484437 5.50959 0.859437 5.88059L6.98044 11.9346C7.07318 12.0261 7.14683 12.135 7.19713 12.2552C7.24743 12.3754 7.27336 12.5043 7.27344 12.6346V18.9446C7.27344 19.6796 8.05544 20.1576 8.72044 19.8286L10.7204 18.8396Z" fill="white"/>
</svg>
