<svg width="24" height="24" viewBox="0 0 24 24" fill="none" xmlns="http://www.w3.org/2000/svg">
<g opacity="0.5">
<path d="M7.75 6C7.55109 6 7.36032 6.07902 7.21967 6.21967C7.07902 6.36032 7 6.55109 7 6.75V11.25C7 11.664 7.336 12 7.75 12H13.25C13.4489 12 13.6397 11.921 13.7803 11.7803C13.921 11.6397 14 11.4489 14 11.25V6.75C14 6.55109 13.921 6.36032 13.7803 6.21967C13.6397 6.07902 13.4489 6 13.25 6H7.75ZM8.5 10.5V7.5H12.5V10.5H8.5ZM6.75 3C6.02065 3 5.32118 3.28973 4.80546 3.80546C4.28973 4.32118 4 5.02065 4 5.75V20.5H3.75C3.55109 20.5 3.36032 20.579 3.21967 20.7197C3.07902 20.8603 3 21.0511 3 21.25C3 21.4489 3.07902 21.6397 3.21967 21.7803C3.36032 21.921 3.55109 22 3.75 22H17.25C17.4489 22 17.6397 21.921 17.7803 21.7803C17.921 21.6397 18 21.4489 18 21.25C18 21.0511 17.921 20.8603 17.7803 20.7197C17.6397 20.579 17.4489 20.5 17.25 20.5H17V18.697C17.4185 18.9121 17.8853 19.0161 18.3555 18.9988C18.8258 18.9816 19.2837 18.8438 19.6853 18.5986C20.087 18.3534 20.4188 18.0091 20.649 17.5987C20.8793 17.1883 21.0001 16.7256 21 16.255V10.417C21 9.82198 20.807 9.24301 20.45 8.767L19.35 7.3C19.2307 7.14087 19.053 7.03567 18.8561 7.00754C18.6592 6.97941 18.4591 7.03065 18.3 7.15C18.1409 7.26935 18.0357 7.44702 18.0075 7.64393C17.9794 7.84085 18.0307 8.04087 18.15 8.2L19.25 9.667C19.412 9.883 19.5 10.147 19.5 10.417V16.255C19.5 16.4185 19.4678 16.5804 19.4052 16.7314C19.3427 16.8825 19.251 17.0197 19.1353 17.1353C19.0197 17.251 18.8825 17.3427 18.7314 17.4052C18.5804 17.4678 18.4185 17.5 18.255 17.5C18.0915 17.5 17.9296 17.4678 17.7786 17.4052C17.6275 17.3427 17.4903 17.251 17.3747 17.1353C17.259 17.0197 17.1673 16.8825 17.1048 16.7314C17.0422 16.5804 17.01 16.4185 17.01 16.255V14.5C17.0099 14.4595 17.0066 14.419 17 14.379V5.75C17 5.38886 16.9289 5.03127 16.7907 4.69762C16.6525 4.36398 16.4499 4.06082 16.1945 3.80546C15.9392 3.5501 15.636 3.34753 15.3024 3.20933C14.9687 3.07113 14.6111 3 14.25 3H6.75ZM15.5 20.5H5.5V5.75C5.5 5.06 6.06 4.5 6.75 4.5H14.25C14.94 4.5 15.5 5.06 15.5 5.75V20.5Z" fill="white"/>
</g>
</svg>
