<svg width="19" height="19" viewBox="0 0 19 19" fill="none" xmlns="http://www.w3.org/2000/svg">
<path d="M10.7044 16.8751H7.97439C7.80334 16.8752 7.63742 16.8167 7.50414 16.7095C7.37087 16.6023 7.27825 16.4527 7.24164 16.2856L6.93639 14.8726C6.52918 14.6942 6.14307 14.4711 5.78514 14.2074L4.40739 14.6461C4.24431 14.6981 4.06835 14.6928 3.90873 14.631C3.74911 14.5692 3.61543 14.4546 3.52989 14.3064L2.16189 11.9431C2.07725 11.7947 2.04548 11.622 2.07177 11.4532C2.09807 11.2844 2.18087 11.1295 2.30664 11.0139L3.37539 10.0389C3.32679 9.59721 3.32679 9.15154 3.37539 8.70987L2.30664 7.73712C2.18069 7.62145 2.09778 7.46643 2.07148 7.29746C2.04518 7.12849 2.07706 6.9556 2.16189 6.80712L3.52689 4.44237C3.61243 4.29411 3.74611 4.17957 3.90573 4.11776C4.06535 4.05596 4.24131 4.05062 4.40439 4.10262L5.78214 4.54137C5.96514 4.40637 6.15564 4.28037 6.35214 4.16637C6.54189 4.05987 6.73689 3.96312 6.93639 3.87687L7.24239 2.46537C7.27882 2.29827 7.37127 2.14864 7.5044 2.04128C7.63754 1.93393 7.80337 1.8753 7.97439 1.87512H10.7044C10.8754 1.8753 11.0412 1.93393 11.1744 2.04128C11.3075 2.14864 11.4 2.29827 11.4364 2.46537L11.7454 3.87762C12.1524 4.05605 12.5382 4.27917 12.8959 4.54287L14.2744 4.10412C14.4374 4.05231 14.6132 4.05775 14.7726 4.11954C14.9321 4.18134 15.0656 4.29577 15.1511 4.44387L16.5161 6.80862C16.6901 7.11387 16.6301 7.50012 16.3714 7.73787L15.3026 8.71287C15.3512 9.15454 15.3512 9.6002 15.3026 10.0419L16.3714 11.0169C16.6301 11.2554 16.6901 11.6409 16.5161 11.9461L15.1511 14.3109C15.0656 14.4591 14.9319 14.5737 14.7723 14.6355C14.6127 14.6973 14.4367 14.7026 14.2736 14.6506L12.8959 14.2119C12.5382 14.4754 12.1524 14.6983 11.7454 14.8764L11.4364 16.2856C11.3998 16.4526 11.3073 16.602 11.1742 16.7093C11.0411 16.8165 10.8753 16.875 10.7044 16.8751ZM6.05439 12.5469L6.66939 12.9969C6.80814 13.0989 6.95214 13.1926 7.10214 13.2781C7.24314 13.3599 7.38714 13.4334 7.53639 13.5001L8.23614 13.8069L8.57889 15.3751H10.1014L10.4441 13.8061L11.1439 13.4994C11.4491 13.3644 11.7394 13.1971 12.0086 12.9999L12.6236 12.5499L14.1551 13.0374L14.9164 11.7189L13.7291 10.6366L13.8131 9.87762C13.8506 9.54537 13.8506 9.21012 13.8131 8.87862L13.7291 8.11962L14.9171 7.03512L14.1551 5.71587L12.6244 6.20337L12.0086 5.75337C11.7392 5.55514 11.4493 5.38642 11.1439 5.25012L10.4441 4.94337L10.1014 3.37512H8.57889L8.23389 4.94412L7.53639 5.25012C7.23053 5.38408 6.9405 5.55161 6.67164 5.74962L6.05589 6.19962L4.52589 5.71212L3.76314 7.03512L4.95039 8.11587L4.86639 8.87562C4.82889 9.20787 4.82889 9.54312 4.86639 9.87462L4.95039 10.6336L3.76314 11.7159L4.52439 13.0344L6.05439 12.5469ZM9.33639 12.3751C8.54074 12.3751 7.77768 12.0591 7.21507 11.4964C6.65246 10.9338 6.33639 10.1708 6.33639 9.37512C6.33639 8.57947 6.65246 7.81641 7.21507 7.2538C7.77768 6.69119 8.54074 6.37512 9.33639 6.37512C10.132 6.37512 10.8951 6.69119 11.4577 7.2538C12.0203 7.81641 12.3364 8.57947 12.3364 9.37512C12.3364 10.1708 12.0203 10.9338 11.4577 11.4964C10.8951 12.0591 10.132 12.3751 9.33639 12.3751ZM9.33639 7.87512C9.04266 7.87542 8.75548 7.96195 8.51048 8.12398C8.26548 8.28601 8.07344 8.51641 7.95819 8.78659C7.84294 9.05676 7.80956 9.35483 7.86217 9.64382C7.91479 9.9328 8.05109 10.2 8.25417 10.4122C8.45725 10.6244 8.71817 10.7723 9.00456 10.8376C9.29095 10.9029 9.5902 10.8826 9.86519 10.7794C10.1402 10.6761 10.3788 10.4944 10.5514 10.2568C10.7241 10.0192 10.8232 9.73606 10.8364 9.44262V9.74262V9.37512C10.8364 8.9773 10.6784 8.59577 10.3971 8.31446C10.1157 8.03316 9.73422 7.87512 9.33639 7.87512Z" fill="white"/>
</svg>
