<svg width="21" height="18" viewBox="0 0 21 18" fill="none" xmlns="http://www.w3.org/2000/svg">
<path d="M2.44665 1.70683C1.32928 2.69844 0.774217 3.97346 0.786588 5.54642C0.791857 6.95924 1.30986 8.23378 2.35001 9.35047C2.86216 9.8628 3.7455 10.5301 5.00001 11.3525C7.58184 12.9962 9.49323 14.9552 10.7146 17.2201C11.9403 14.9549 13.8352 12.9764 16.3997 11.309C17.6553 10.4805 18.5246 9.80314 18.9931 9.2819C20.0407 8.16018 20.5762 6.87571 20.5662 5.47266C20.5636 3.90442 19.9971 2.63058 18.8666 1.6511C17.8147 0.733646 16.6479 0.279063 15.3952 0.277227C13.3799 0.256965 11.796 1.21625 10.6629 3.16458C9.51406 1.22401 7.89377 0.285392 5.85493 0.314014C4.61201 0.316897 3.47773 0.794116 2.44665 1.70683Z" fill="#FA02DC"/>
</svg>
