<svg width="23" height="21" viewBox="0 0 23 21" fill="none" xmlns="http://www.w3.org/2000/svg">
<path d="M3.63512 2.8162C2.51775 3.80781 1.96269 5.08284 1.97507 6.65579C1.98033 8.06862 2.49833 9.34316 3.53848 10.4598C4.05063 10.9722 4.93397 11.6395 6.18848 12.4619C8.77032 14.1056 10.6817 16.0646 11.9031 18.3295C13.1288 16.0642 15.0237 14.0858 17.5882 12.4184C18.8438 11.5899 19.7131 10.9125 20.1816 10.3913C21.2291 9.26955 21.7647 7.98509 21.7547 6.58203C21.7521 5.0138 21.1855 3.73995 20.0551 2.76048C19.0031 1.84302 17.8363 1.38844 16.5836 1.3866C14.5684 1.36634 12.9844 2.32562 11.8514 4.27395C10.7025 2.33338 9.08225 1.39477 7.04341 1.42339C5.80048 1.42627 4.66621 1.90349 3.63512 2.8162Z" stroke="#808080" stroke-width="2"/>
</svg>
