<svg width="54" height="54" viewBox="0 0 54 54" fill="none" xmlns="http://www.w3.org/2000/svg">
<path d="M35.4105 1.59058H18.9086C9.44755 1.59058 1.77783 9.26029 1.77783 18.7214V35.2232C1.77783 44.6843 9.44755 52.354 18.9086 52.354H35.4105C44.8715 52.354 52.5413 44.6843 52.5413 35.2232V18.7214C52.5413 9.26029 44.8715 1.59058 35.4105 1.59058Z" fill="#3375BB"/>
<path d="M2.3042 27.1169C2.3042 13.3098 13.4971 2.11694 27.3042 2.11694C41.1116 2.11694 52.3042 13.3098 52.3042 27.1169C52.3042 40.9243 41.1116 52.1169 27.3042 52.1169C13.4971 52.1169 2.3042 40.9243 2.3042 27.1169Z" fill="#3375BB"/>
<path d="M27.3189 12.1755C32.3637 16.3891 38.1489 16.1291 39.8021 16.1291C39.4405 40.0912 36.6852 35.3396 27.3189 42.0585C17.9522 35.3396 15.2146 40.0912 14.853 16.1291C16.4887 16.1291 22.274 16.3891 27.3189 12.1755Z" stroke="white" stroke-width="3" stroke-miterlimit="10" stroke-linecap="round" stroke-linejoin="round"/>
</svg>
