<svg width="23" height="23" viewBox="0 0 23 23" fill="none" xmlns="http://www.w3.org/2000/svg">
<path d="M11.7188 0.798096C5.64404 0.798096 0.71875 5.72516 0.71875 11.7981C0.71875 17.8746 5.64404 22.7981 11.7188 22.7981C17.7935 22.7981 22.7188 17.8746 22.7188 11.7981C22.7188 5.72516 17.7935 0.798096 11.7188 0.798096ZM11.7188 20.6691C6.81612 20.6691 2.84778 16.7024 2.84778 11.7981C2.84778 6.89711 6.8163 2.92713 11.7188 2.92713C16.6196 2.92713 20.5897 6.8956 20.5897 11.7981C20.5897 16.7006 16.623 20.6691 11.7188 20.6691ZM16.4755 9.34971C16.4755 12.3238 13.2633 12.3696 13.2633 13.4686V13.7497C13.2633 14.0436 13.025 14.282 12.7311 14.282H10.7064C10.4125 14.282 10.1741 14.0436 10.1741 13.7497V13.3656C10.1741 11.7802 11.3762 11.1464 12.2845 10.6371C13.0634 10.2004 13.5408 9.90343 13.5408 9.32514C13.5408 8.56019 12.565 8.05246 11.7762 8.05246C10.7476 8.05246 10.2728 8.53935 9.60537 9.38173C9.42543 9.60883 9.09707 9.65101 8.86616 9.47594L7.63203 8.54014C7.40551 8.3684 7.35477 8.04931 7.51475 7.81437C8.56273 6.27552 9.89754 5.411 11.9757 5.411C14.1523 5.411 16.4755 7.10997 16.4755 9.34971ZM13.5817 16.7658C13.5817 17.7931 12.746 18.6287 11.7188 18.6287C10.6915 18.6287 9.85585 17.7931 9.85585 16.7658C9.85585 15.7386 10.6915 14.9029 11.7188 14.9029C12.746 14.9029 13.5817 15.7386 13.5817 16.7658Z" fill="#032621"/>
</svg>
