<svg width="181" height="60" viewBox="0 0 181 60" fill="none" xmlns="http://www.w3.org/2000/svg">
<path d="M32.8092 22.9375L38.0701 0.232422L25.7817 9.2037L20.6897 26.1162L17.0181 15.6248L4.93177 14.5173L0.443359 31.4602L9.58078 24.1808L14.5316 32.5623L8.16309 45.8531L11.4304 54.013L19.5295 58.9334L20.709 59.6727L21.0801 59.4124L29.9655 54.013L33.2467 45.8724L26.8782 32.6149L32.8092 22.9375ZM6.60696 16.9096L13.6594 17.5658L4.31984 25.5071L6.60696 16.9096ZM11.3141 22.7243L15.725 18.6955L19.272 28.8602L16.1486 30.9286L11.3141 22.7243ZM19.6209 50.9451L19.5489 56.3112L13.9058 52.8889L19.7205 44.1612L19.6209 50.9451ZM12.5712 50.862L10.5887 45.9417L16.6498 33.3016L19.6236 31.5627L19.7842 40.0605L12.5712 50.862ZM34.5508 5.57643L31.4801 18.7814L28.0993 10.278L34.5508 5.57643ZM26.8893 13.274L30.5165 22.4114L25.3054 30.9092L22.2292 28.7467L26.8893 13.274ZM21.8609 56.3112L21.6671 44.1612L27.4818 52.8889L21.8609 56.3112ZM30.8073 45.9389L28.822 50.8593L21.6228 40.0605L21.764 31.5599L24.7378 33.2988L30.8073 45.9389Z" fill="#F537CF"/>
<path d="M68.3159 35.9298C65.5509 43.2465 63.9557 47.83 63.5303 49.6805C63.4027 50.2122 63.4133 50.829 63.5622 51.5309C63.7111 52.2115 63.9131 52.7539 64.1684 53.158H61.2651C61.4352 52.9666 61.3395 52.2009 60.978 50.8609C60.6376 49.4997 60.0953 47.6492 59.3508 45.3096C58.6064 42.97 58.1917 41.63 58.1066 41.2897C56.4476 45.6924 55.4692 48.4894 55.1714 49.6805C55.0438 50.2335 55.0544 50.8503 55.2033 51.5309C55.3735 52.2115 55.5861 52.7539 55.8414 53.158H52.9062C52.8424 52.5838 52.5872 51.4884 52.1405 49.8719C51.7151 48.2341 51.2153 46.4369 50.641 44.4801C50.088 42.502 49.737 41.2578 49.5882 40.7473C49.3329 39.7902 48.8969 38.4396 48.2801 36.6955C47.6845 34.9514 47.2272 33.8773 46.9082 33.4731H51.0238C50.9175 33.5795 50.8537 33.7815 50.8324 34.0793C50.8112 34.3558 50.8324 34.7174 50.8962 35.1641C50.9813 35.5894 51.0664 36.0042 51.1515 36.4083C51.2365 36.8124 51.3429 37.3016 51.4705 37.8759C51.6194 38.4289 51.7257 38.8649 51.7895 39.184C52.3426 41.9916 53.1721 45.1501 54.2781 48.6595C55.7031 44.4907 56.6071 41.6938 56.9899 40.2687C57.2026 39.3116 57.1814 38.4608 56.9261 37.7164C56.5858 36.8656 56.2774 36.2594 56.0009 35.8979L60.1804 35.9298C60.1591 36.0148 60.1272 36.1424 60.0846 36.3126C60.0634 36.4828 60.0315 36.855 59.9889 37.4293C59.9464 38.0035 59.9889 38.5778 60.1165 39.1521C60.3292 40.407 60.6376 41.832 61.0418 43.4272C61.4672 45.0012 61.8287 46.2667 62.1265 47.2238L62.6051 48.6595C64.4342 43.3422 65.3914 40.3325 65.4764 39.6306C65.6253 38.9288 65.6466 38.2694 65.5403 37.6526C65.4552 37.0145 65.1574 36.4296 64.6469 35.8979L68.3159 35.9298Z" fill="white"/>
<path d="M73.8994 35.515H73.8675C73.0167 35.5363 72.251 36.3232 71.5704 37.8759C70.911 39.4286 70.6026 41.4492 70.6452 43.9377C70.709 46.6815 71.0387 48.7978 71.6342 50.2866C72.251 51.7542 73.0167 52.4668 73.9313 52.4242C74.3354 52.403 74.7395 52.2222 75.1437 51.8819C75.5691 51.5628 75.9625 51.0843 76.3241 50.4462C76.707 49.7868 77.0047 48.8829 77.2174 47.7343C77.4301 46.5858 77.5152 45.2883 77.4727 43.842C77.4089 42.3744 77.2493 41.077 76.9941 39.9497C76.7389 38.8011 76.4305 37.9185 76.0689 37.3016C75.7073 36.6848 75.3351 36.2275 74.9522 35.9298C74.5907 35.632 74.2397 35.4831 73.8994 35.4831V35.515ZM73.8037 34.7174V34.6855C75.0586 34.6217 76.1859 35.0258 77.1855 35.8979C78.1852 36.7699 78.9403 37.9078 79.4507 39.3116C79.9825 40.7154 80.2483 42.2042 80.2483 43.7782C80.2483 46.4369 79.6209 48.6702 78.366 50.4781C77.1111 52.2647 75.6222 53.1474 73.8994 53.1261C72.0915 53.1049 70.6026 52.2434 69.4328 50.5419C68.2843 48.8191 67.71 46.6283 67.71 43.9696C67.6887 42.3744 67.9546 40.8643 68.5076 39.4392C69.0606 37.9929 69.805 36.8337 70.7409 35.9617C71.698 35.0896 72.719 34.6749 73.8037 34.7174Z" fill="white"/>
<path d="M85.1773 54.9447L81.955 54.7851C82.3804 54.3172 82.5718 52.3711 82.5292 48.9467C82.4654 44.4375 82.3484 40.9281 82.1783 38.4183C82.157 37.9929 82.0613 37.5675 81.8912 37.1421C81.7423 36.7167 81.5934 36.4083 81.4445 36.2169L81.2212 35.8979H85.0816C84.7838 36.1956 84.6987 36.5997 84.8263 37.1102C84.9752 37.6207 85.3368 38.3119 85.9111 39.184C86.3365 39.8221 86.9746 40.6941 87.8253 41.8001C88.6761 42.9061 89.4205 43.8526 90.0586 44.6396L91.0477 45.8201C91.0477 45.3947 91.0583 44.8417 91.0796 44.161C91.1008 43.4591 91.1221 42.3425 91.1434 40.8111C91.1859 39.2584 91.2072 38.0461 91.2072 37.174C91.1646 34.409 90.8775 32.8882 90.3458 32.6117L93.4405 32.6755C93.3767 32.6968 93.3235 32.75 93.281 32.835C93.2384 32.8989 93.1959 33.0052 93.1533 33.1541C93.1321 33.303 93.1108 33.4625 93.0895 33.6327C93.0683 33.7815 93.047 33.9836 93.0257 34.2388C93.0045 34.4941 92.9832 34.728 92.9619 34.9407C92.9619 35.1534 92.9619 35.4193 92.9619 35.7383C92.9619 36.0574 92.9513 36.3339 92.93 36.5678C92.93 36.7805 92.93 37.0677 92.93 37.4293C92.93 37.7696 92.93 38.0461 92.93 38.2588C92.93 38.7267 92.9087 39.6732 92.8662 41.0982C92.8449 42.502 92.8237 43.6931 92.8024 44.6715C92.8024 45.6499 92.8024 46.724 92.8024 47.8938C92.8237 49.0424 92.8662 49.957 92.93 50.6376C92.9938 51.3182 93.0789 51.7223 93.1852 51.85H91.4305C91.4518 51.6798 91.3242 51.3608 91.0477 50.8928C90.7924 50.4036 90.5904 50.0633 90.4415 49.8719L84.3797 42.2149L84.4435 49.84C84.4222 52.286 84.6668 53.9875 85.1773 54.9447Z" fill="white"/>
<path d="M97.9749 34.6855C97.9536 42.1936 97.9749 47.6599 98.0387 51.0843C98.0387 51.4458 98.0918 51.8181 98.1982 52.2009C99.049 52.1584 99.8253 51.9776 100.527 51.6585C101.229 51.3395 101.878 50.8716 102.473 50.2547C103.069 49.6379 103.537 48.7978 103.877 47.7343C104.217 46.6708 104.398 45.4372 104.42 44.0334C104.42 42.8211 104.313 41.7257 104.1 40.7473C103.888 39.7689 103.611 38.9713 103.271 38.3545C102.931 37.7164 102.527 37.1634 102.059 36.6955C101.591 36.2063 101.155 35.8447 100.751 35.6107C100.346 35.3555 99.921 35.1534 99.4744 35.0045C99.0277 34.8556 98.698 34.7706 98.4853 34.7493C98.2939 34.7068 98.1237 34.6855 97.9749 34.6855ZM94.2421 53.4133C94.2846 53.4133 94.3271 53.392 94.3697 53.3495C94.4335 53.3282 94.5398 53.2431 94.6887 53.0942C94.8376 52.9666 94.9652 52.8071 95.0716 52.6157C95.1992 52.4242 95.3055 52.1371 95.3906 51.7542C95.497 51.3714 95.5608 50.9354 95.582 50.4462C95.6246 46.5326 95.5821 42.3106 95.4544 37.7802C95.4332 37.0996 95.3694 36.5147 95.263 36.0255C95.1567 35.515 95.029 35.1428 94.8802 34.9088C94.7525 34.6536 94.6143 34.4515 94.4654 34.3026C94.3378 34.1538 94.2314 34.0687 94.1464 34.0474L93.9868 33.9836C94.1145 33.9623 94.2952 33.9304 94.5292 33.8879C94.7844 33.8453 95.3375 33.7922 96.1882 33.7284C97.0603 33.6646 97.9642 33.6965 98.9001 33.8241C99.0915 33.8453 99.2723 33.8666 99.4425 33.8879C100.442 33.9517 101.378 34.2069 102.25 34.6536C103.143 35.079 103.941 35.6745 104.643 36.4402C105.345 37.1847 105.898 38.163 106.302 39.3754C106.727 40.5665 106.94 41.8958 106.94 43.3634C106.919 46.4688 106.121 48.9041 104.547 50.6695C102.973 52.4136 100.772 53.3388 97.943 53.4452C97.7515 53.4452 97.5814 53.4345 97.4325 53.4133H94.2421Z" fill="white"/>
<path d="M108.474 51.8181C108.517 51.8181 108.559 51.7861 108.602 51.7223C108.666 51.6585 108.74 51.4352 108.825 51.0523C108.931 50.6482 108.985 50.1165 108.985 49.4571C109.006 48.4362 108.974 46.6815 108.889 44.1929C108.825 41.7044 108.793 40.0241 108.793 39.1521C108.772 38.3438 108.697 37.6632 108.57 37.1102C108.463 36.5572 108.357 36.2169 108.251 36.0893L108.091 35.8659H117.184L117.312 38.2588C117.269 38.195 117.195 38.1099 117.088 38.0035C117.003 37.8972 116.769 37.7589 116.386 37.5888C116.003 37.4186 115.546 37.3335 115.014 37.3335L111.377 37.2378L111.441 42.6615C112.675 42.6403 113.579 42.5339 114.153 42.3425C114.727 42.1298 115.153 41.8108 115.429 41.3854L115.493 44.2248C115.004 43.7144 113.664 43.4379 111.473 43.3953L111.569 50.4143C112.824 50.4143 113.983 50.4143 115.046 50.4143C115.557 50.4143 116.003 50.3717 116.386 50.2866C116.79 50.2016 117.099 50.0952 117.312 49.9676C117.546 49.84 117.737 49.723 117.886 49.6167C118.035 49.489 118.13 49.3827 118.173 49.2976L118.269 49.17C118.205 49.5529 118.109 49.9676 117.982 50.4143C117.854 50.8609 117.748 51.2119 117.662 51.4671L117.535 51.8819L108.474 51.8181Z" fill="white"/>
<path d="M122.582 43.0125C122.986 42.9487 123.39 42.8742 123.794 42.7892C124.22 42.6828 124.72 42.502 125.294 42.2468C125.868 41.9916 126.368 41.6938 126.793 41.3535C127.219 41.0132 127.58 40.5559 127.878 39.9816C128.176 39.386 128.325 38.7267 128.325 38.0035C128.325 37.2804 128.218 36.6423 128.006 36.0893C127.793 35.515 127.516 35.0577 127.176 34.7174C126.836 34.3771 126.453 34.0899 126.028 33.856C125.624 33.6007 125.219 33.42 124.815 33.3136C124.411 33.2073 124.028 33.1328 123.667 33.0903C123.326 33.0265 123.05 32.9946 122.837 32.9946H122.55C122.529 35.4618 122.539 38.8011 122.582 43.0125ZM119.136 51.85C119.158 51.85 119.189 51.8393 119.232 51.8181C119.296 51.7755 119.392 51.6798 119.519 51.5309C119.647 51.382 119.753 51.2119 119.838 51.0204C119.945 50.8078 120.04 50.51 120.125 50.1271C120.21 49.723 120.253 49.2763 120.253 48.7872C120.317 44.7885 120.285 40.4921 120.157 35.8979C120.136 35.2172 120.072 34.6217 119.966 34.1112C119.859 33.5795 119.732 33.1966 119.583 32.9627C119.455 32.7074 119.317 32.5054 119.168 32.3565C119.041 32.2076 118.934 32.1225 118.849 32.1013L118.722 32.0693C119.657 31.9843 121.136 31.9843 123.156 32.0693C124.156 32.1119 125.071 32.2501 125.9 32.4841C126.751 32.7181 127.527 33.069 128.229 33.5369C128.952 33.9836 129.516 34.5898 129.92 35.3555C130.345 36.1212 130.579 37.0145 130.622 38.0354C130.643 38.7586 130.526 39.4286 130.271 40.0454C130.037 40.6622 129.739 41.162 129.378 41.5449C129.016 41.9065 128.654 42.2255 128.293 42.502C127.931 42.7573 127.623 42.938 127.368 43.0444L126.953 43.2039C127.059 43.4591 127.187 43.8101 127.336 44.2568C127.506 44.7034 127.825 45.5117 128.293 46.6815C128.761 47.8513 129.197 48.8935 129.601 49.8081C130.026 50.7227 130.484 51.5841 130.973 52.3923C131.483 53.2218 131.898 53.711 132.217 53.8599H128.197C128.686 53.3282 127.548 49.9676 124.783 43.7782C124.145 43.842 123.422 43.8845 122.614 43.9058C122.635 45.8413 122.656 47.6811 122.678 49.4252C122.678 49.9144 122.763 50.3717 122.933 50.7971C123.103 51.2225 123.231 51.499 123.316 51.6266C123.401 51.733 123.475 51.8074 123.539 51.85H119.136Z" fill="white"/>
<path d="M132.074 51.85C132.117 51.8287 132.17 51.7861 132.234 51.7223C132.298 51.6585 132.383 51.4352 132.489 51.0523C132.595 50.6482 132.648 50.1165 132.648 49.4571C132.67 48.4149 132.638 46.6496 132.553 44.161C132.489 41.6512 132.457 39.9603 132.457 39.0883C132.436 38.28 132.383 37.61 132.298 37.0783C132.212 36.5253 132.138 36.1956 132.074 36.0893L131.947 35.8979H135.584C135.541 35.9404 135.488 36.0148 135.424 36.1212C135.382 36.2063 135.307 36.504 135.201 37.0145C135.116 37.525 135.073 38.1631 135.073 38.9288C135.094 41.6725 135.148 45.501 135.233 50.4143C136.488 50.4143 137.647 50.4143 138.71 50.4143C139.221 50.4143 139.667 50.3717 140.05 50.2866C140.454 50.1803 140.763 50.074 140.975 49.9676C141.209 49.84 141.401 49.7124 141.55 49.5848C141.699 49.4571 141.794 49.3614 141.837 49.2976C141.901 49.2125 141.933 49.1594 141.933 49.1381C141.869 49.5209 141.773 49.9463 141.645 50.4143C141.518 50.8609 141.412 51.2119 141.326 51.4671L141.199 51.8819L132.074 51.85Z" fill="white"/>
<path d="M149.832 45.6286L148.141 39.1521L146.099 45.852L149.832 45.6286ZM142.367 51.85C145.174 44.5545 146.791 39.9816 147.216 38.1311C147.322 37.5994 147.29 36.9932 147.12 36.3126C146.971 35.632 146.769 35.0896 146.514 34.6855L149.449 34.6536C149.534 35.2491 149.8 36.3551 150.247 37.9716C150.694 39.5881 151.204 41.3747 151.778 43.3315C152.374 45.2883 152.735 46.522 152.863 47.0324C153.118 47.9683 153.576 49.3508 154.235 51.18C154.916 52.9879 155.415 54.0939 155.734 54.498L151.459 54.5618C151.502 54.3066 151.534 53.9556 151.555 53.509C151.576 53.0836 151.512 52.4136 151.364 51.499C151.236 50.5632 151.023 49.606 150.725 48.6276C150.513 47.9683 150.289 47.2345 150.055 46.4262C148.886 46.4688 147.918 46.5326 147.152 46.6177C146.748 46.6602 146.355 46.8197 145.972 47.0962C145.61 47.3515 145.397 47.7237 145.334 48.2129C145.185 48.9148 145.164 49.5741 145.27 50.1909C145.376 50.7865 145.685 51.3395 146.195 51.85H142.367Z" fill="white"/>
<path d="M158.727 54.9447L155.505 54.7851C155.931 54.3172 156.122 52.3711 156.079 48.9467C156.016 44.4375 155.899 40.9281 155.728 38.4183C155.707 37.9929 155.611 37.5675 155.441 37.1421C155.292 36.7167 155.144 36.4083 154.995 36.2169L154.771 35.8979H158.632C158.334 36.1956 158.249 36.5997 158.377 37.1102C158.525 37.6207 158.887 38.3119 159.461 39.184C159.887 39.8221 160.525 40.6941 161.376 41.8001C162.226 42.9061 162.971 43.8526 163.609 44.6396L164.598 45.8201C164.598 45.3947 164.608 44.8417 164.63 44.161C164.651 43.4591 164.672 42.3425 164.694 40.8111C164.736 39.2584 164.757 38.0461 164.757 37.174C164.715 34.409 162.212 32.8882 161.68 32.6117L164.775 32.6755C164.711 32.6968 164.658 32.75 164.616 32.835C164.573 32.8989 164.53 33.0052 164.488 33.1541C164.467 33.303 164.445 33.4625 164.424 33.6327C164.403 33.7815 166.597 33.9836 166.576 34.2388C166.555 34.4941 166.533 34.728 166.512 34.9407C166.512 35.1534 166.512 35.4193 166.512 35.7383C166.512 36.0574 166.501 36.3339 166.48 36.5678C166.48 36.7805 166.48 37.0677 166.48 37.4293C166.48 37.7696 166.48 38.0461 166.48 38.2588C166.48 38.7267 166.459 39.6732 166.416 41.0982C166.395 42.502 166.374 43.6931 166.353 44.6715C166.353 45.6499 166.353 46.724 166.353 47.8938C166.374 49.0424 166.416 49.957 166.48 50.6376C166.544 51.3182 166.629 51.7223 166.735 51.85H164.981C165.002 51.6798 164.874 51.3608 164.598 50.8928C164.343 50.4036 164.141 50.0633 163.992 49.8719L157.93 42.2149L157.994 49.84C157.972 52.286 158.217 53.9875 158.727 54.9447Z" fill="white"/>
<path d="M171.525 34.6855C171.504 42.1936 171.525 47.6599 171.589 51.0843C171.589 51.4458 171.642 51.8181 171.748 52.2009C172.599 52.1584 173.375 51.9776 174.077 51.6585C174.779 51.3395 175.428 50.8716 176.024 50.2547C176.619 49.6379 177.087 48.7978 177.427 47.7343C177.768 46.6708 177.948 45.4372 177.97 44.0334C177.97 42.8211 177.863 41.7257 177.651 40.7473C177.438 39.7689 177.161 38.9713 176.821 38.3545C176.481 37.7164 176.077 37.1634 175.609 36.6955C175.141 36.2063 174.705 35.8447 174.301 35.6107C173.897 35.3555 173.471 35.1534 173.025 35.0045C172.578 34.8556 172.248 34.7706 172.035 34.7493C171.844 34.7068 171.674 34.6855 171.525 34.6855ZM167.792 53.4133C167.835 53.4133 167.877 53.392 167.92 53.3495C167.984 53.3282 168.09 53.2431 168.239 53.0942C168.388 52.9666 168.515 52.8071 168.622 52.6157C168.749 52.4242 168.856 52.1371 168.941 51.7542C169.047 51.3714 169.111 50.9354 169.132 50.4462C169.175 46.5326 169.132 42.3106 169.005 37.7802C168.983 37.0996 168.92 36.5147 168.813 36.0255C168.707 35.515 168.579 35.1428 168.43 34.9088C168.303 34.6536 168.164 34.4515 168.016 34.3026C167.888 34.1538 165.566 34.0687 165.481 34.0474L165.321 33.9836C165.449 33.9623 165.63 33.9304 165.864 33.8879C166.119 33.8453 166.672 33.7922 167.523 33.7284C168.395 33.6646 169.299 33.6965 170.235 33.8241C170.426 33.8453 170.607 33.8666 170.777 33.8879C171.777 33.9517 174.928 34.2069 175.8 34.6536C176.694 35.079 177.491 35.6745 178.193 36.4402C178.895 37.1847 179.448 38.163 179.852 39.3754C180.277 40.5665 180.49 41.8958 180.49 43.3634C180.469 46.4688 179.671 48.9041 178.097 50.6695C176.523 52.4136 174.322 53.3388 171.493 53.4452C171.302 53.4452 171.132 53.4345 170.983 53.4133H167.792Z" fill="white"/>
<path d="M46.4279 28.5569C46.4735 28.5569 46.5257 28.5439 46.5843 28.5113C46.6429 28.4787 46.7537 28.4006 46.9166 28.2637C47.0795 28.1269 47.2228 27.9705 47.3531 27.7816C47.4769 27.5927 47.5942 27.319 47.6984 26.9412C47.8026 26.5698 47.8678 26.1463 47.8873 25.6707C47.933 21.8658 47.8873 17.7677 47.7505 13.3635C47.7245 12.7054 47.6593 12.1256 47.542 11.6434C47.4248 11.1613 47.2945 10.7965 47.1446 10.5554C46.9948 10.3209 46.8449 10.1254 46.6951 9.98207C46.5452 9.83874 46.4214 9.75404 46.3302 9.73449L46.1543 9.66934C46.2911 9.64979 46.4931 9.61722 46.7602 9.57813C47.0273 9.53904 47.6267 9.48691 48.5649 9.42175C49.5031 9.36312 50.4739 9.38919 51.4968 9.51298C51.7053 9.53252 51.9007 9.55207 52.0831 9.57161C53.1712 9.63676 54.1941 9.87782 55.1518 10.3013C56.1095 10.7248 56.9695 11.3047 57.7318 12.0409C58.4941 12.7771 59.1 13.7283 59.5496 14.8945C59.9991 16.0607 60.2271 17.3573 60.2271 18.7841C60.2011 21.8006 59.3346 24.1657 57.6276 25.8662C55.9141 27.5731 53.523 28.4722 50.4543 28.5765C50.2458 28.5765 50.0634 28.5634 49.9005 28.5439H46.4279V28.5569ZM50.4804 10.3599C50.4543 17.657 50.4804 22.9669 50.5521 26.2961C50.5521 26.648 50.6107 27.0063 50.728 27.3842C51.6531 27.3451 52.4936 27.1692 53.2559 26.8565C54.0181 26.5437 54.7218 26.0942 55.3733 25.4948C56.0183 24.8954 56.5265 24.081 56.8979 23.0451C57.2692 22.0091 57.4647 20.8103 57.4842 19.4487C57.4842 18.2694 57.367 17.2074 57.1389 16.2562C56.9109 15.305 56.6047 14.5232 56.2398 13.9172C55.8685 13.3048 55.4319 12.7706 54.9238 12.308C54.4156 11.8454 53.94 11.4936 53.5035 11.2525C53.0669 11.018 52.6043 10.8225 52.1157 10.6792C51.6271 10.5358 51.2752 10.4447 51.0602 10.4121C50.8322 10.373 50.6433 10.3599 50.4804 10.3599Z" fill="#FA02DC"/>
<path d="M62.9254 27.0065C62.971 27.0065 63.0232 26.9739 63.0818 26.9153C63.1404 26.8566 63.2186 26.6286 63.3229 26.2507C63.4271 25.8663 63.4792 25.3581 63.4792 24.7131C63.5053 23.7228 63.4727 22.0158 63.3945 19.5987C63.3098 17.1815 63.2707 15.5462 63.2707 14.6993C63.2447 13.9109 63.173 13.2529 63.0427 12.7121C62.9124 12.1714 62.7951 11.8456 62.6779 11.7218L62.502 11.5068H72.379L72.5158 13.8327C72.4702 13.7741 72.392 13.6894 72.2878 13.5852C72.1835 13.4809 71.9229 13.3506 71.506 13.1812C71.089 13.0183 70.5938 12.9336 70.014 12.9336L66.0593 12.8424L66.1309 18.1132C67.473 18.0937 68.4503 17.9829 69.0758 17.7875C69.7013 17.592 70.1638 17.2858 70.4635 16.8753L70.5352 19.6378C70.0009 19.1426 68.548 18.8755 66.17 18.8299L66.2742 25.6513C67.6359 25.6513 68.8999 25.6513 70.0531 25.6513C70.6069 25.6513 71.0955 25.6122 71.5255 25.5275C71.9555 25.4428 72.2878 25.3386 72.5288 25.2148C72.7699 25.091 72.9719 24.9737 73.1348 24.8565C73.2976 24.7457 73.4019 24.6415 73.4475 24.5633L73.5517 24.4395C73.4801 24.8109 73.3758 25.2148 73.239 25.6513C73.1022 26.0878 72.9849 26.4266 72.8937 26.6742L72.7569 27.0782L62.9254 27.0065Z" fill="#FA02DC"/>
<path d="M74.984 27.0064C75.2837 26.9217 75.4466 26.1724 75.4662 24.7456C75.5118 21.8333 75.5118 18.5431 75.4662 14.8881C75.4662 14.0998 75.388 13.4287 75.2381 12.8749C75.0883 12.3146 74.9319 11.9562 74.769 11.7868L74.5605 11.5393H84.4376L84.5744 13.8652C84.5288 13.8001 84.4506 13.7219 84.3464 13.6176C84.2422 13.5134 83.9815 13.3831 83.5646 13.2137C83.1476 13.0508 82.6524 12.9531 82.0726 12.9335L78.0853 12.8684L78.1895 18.1392C79.5056 18.1196 80.4829 18.0089 81.1214 17.8134C81.7533 17.618 82.2224 17.3118 82.5221 16.9013L82.5938 19.6637C82.04 19.1686 80.5806 18.9015 78.2286 18.8559C78.2026 21.7942 78.196 23.9507 78.196 25.3385C78.196 25.4818 78.2156 25.6252 78.2482 25.7555C78.2807 25.8923 78.3198 26.0095 78.3719 26.1138C78.4176 26.218 78.4697 26.3223 78.5283 26.4265C78.5869 26.5308 78.6456 26.6155 78.7042 26.6937C78.7629 26.7653 78.815 26.8305 78.8606 26.8826C78.9062 26.9347 78.9518 26.9738 78.9974 26.9933L79.03 27.0259H74.984V27.0064Z" fill="#FA02DC"/>
<path d="M87.3633 27.0392C87.4349 27.0196 87.5066 26.9806 87.5913 26.9154C87.6695 26.8568 87.7933 26.6548 87.9562 26.3095C88.119 25.9707 88.2103 25.5277 88.2363 24.9934C88.308 24.0226 88.3471 22.1919 88.3601 19.5076C88.3731 16.8233 88.3406 14.7776 88.2754 13.3703C88.2494 13.038 88.1842 12.7188 88.0669 12.4125C87.9497 12.0998 87.8389 11.8848 87.7216 11.761L87.5457 11.546H92.0542C92.0282 11.5656 92.0021 11.5851 91.9695 11.5916C91.937 11.6047 91.8653 11.6438 91.761 11.7154C91.6568 11.7871 91.5656 11.8848 91.4809 12.0086C91.3962 12.1324 91.331 12.3213 91.2724 12.5689C91.2138 12.8165 91.1877 13.1162 91.1877 13.468C91.0705 19.8334 91.0705 23.7425 91.1877 25.1889C91.2789 26.1596 91.533 26.7786 91.95 27.0522H87.3633V27.0392Z" fill="#FA02DC"/>
<path d="M128.713 14.9922C130.889 14.3472 134.368 15.2072 135.482 15.5395C136.583 15.9108 139.926 17.2074 141.339 18.9795C142.825 20.8494 142.141 21.6572 141.73 22.1133C140.369 23.6118 139.58 24.778 138.903 25.9247C137.86 27.6968 137.43 29.1172 137.43 29.1172L126.094 25.5403C126.094 25.5403 126.556 24.133 126.719 22.0807C126.823 20.7582 126.85 19.3509 126.595 17.3377C126.517 16.7252 126.42 15.6698 128.713 14.9922Z" fill="white"/>
<path d="M128.713 14.9922C130.889 14.3472 134.368 15.2072 135.482 15.5395C136.583 15.9108 139.926 17.2074 141.339 18.9795C142.825 20.8494 142.141 21.6572 141.73 22.1133C140.369 23.6118 139.58 24.778 138.903 25.9247C137.86 27.6968 137.43 29.1172 137.43 29.1172L126.094 25.5403C126.094 25.5403 126.556 24.133 126.719 22.0807C126.823 20.7582 126.85 19.3509 126.595 17.3377C126.517 16.7252 126.42 15.6698 128.713 14.9922Z" stroke="white" stroke-miterlimit="10"/>
<path d="M141.991 33.0393C141.776 33.0719 141.529 33.098 141.242 33.124C141.118 33.1371 140.988 33.1436 140.851 33.1566C139.991 33.2153 138.844 33.2413 137.268 33.111C137.118 33.098 136.961 33.085 136.805 33.0654C136.167 33.0003 135.522 32.9416 134.753 32.8178C133.671 32.6419 132.349 32.3487 130.446 31.7559C130.42 31.7493 130.394 31.7363 130.368 31.7298C130.342 31.7233 130.316 31.7167 130.29 31.7037C128.896 31.2607 127.853 30.8633 127.006 30.4919C126.074 30.088 125.39 29.7166 124.745 29.3583C124.609 29.2801 124.472 29.2019 124.335 29.1237C123.149 28.4592 122.27 27.8663 121.592 27.3581C121.227 27.0844 120.927 26.8434 120.667 26.6219C120.445 26.4394 120.263 26.2701 120.107 26.1202C119.963 25.9834 119.839 25.8531 119.742 25.7423C119.52 25.4882 119.409 25.3058 119.364 25.169C119.318 25.0517 119.325 24.967 119.338 24.9019C119.338 24.8888 119.344 24.8758 119.351 24.8628C119.494 24.7129 119.637 24.5956 119.826 24.5631C120.256 24.4849 120.927 24.55 121.748 24.6999C123.09 24.9474 124.817 25.4296 126.459 25.9443C127.736 26.3417 128.961 26.7522 129.905 27.0779C130.791 27.3842 131.436 27.6122 131.651 27.6773C131.945 27.7685 133.059 28.0748 134.492 28.4982C135.665 28.8436 137.046 29.2736 138.369 29.7231C139.932 30.2574 141.411 30.8372 142.343 31.3649C142.682 31.5539 142.949 31.7428 143.125 31.9187C143.262 32.0556 143.398 32.238 143.346 32.4399C143.34 32.453 143.34 32.466 143.333 32.4725C143.307 32.5312 143.262 32.6028 143.157 32.681C143.04 32.7657 142.845 32.8569 142.519 32.9351C142.356 32.9742 142.187 33.0133 141.991 33.0393Z" fill="white"/>
<path d="M127.202 24.5437C128.231 24.4525 130.381 24.8304 132.356 25.4363C134.317 26.0748 136.297 26.9999 137.086 27.6645C137.874 28.3225 137.711 28.6613 137.711 28.6613L137.568 29.1043L131.769 27.2736L125.971 25.4428L126.114 24.9998C126.114 24.9998 126.179 24.6349 127.202 24.5437Z" fill="#F537CF"/>
<path d="M119.663 24.3288C119.663 24.3288 119.767 24.1268 120.341 24.1268C121.637 24.1268 125.325 25.1627 131.801 27.2085C138.27 29.2542 141.893 30.5247 142.948 31.2674C143.417 31.5932 143.385 31.8212 143.385 31.8212L143.333 32.4532C143.242 32.1731 142.903 31.9711 142.714 31.8668C141.105 30.9482 136.081 29.4302 131.547 28.0033C127.012 26.57 122.028 24.9216 120.184 24.7522C119.969 24.7327 119.578 24.7001 119.344 24.8825L119.663 24.3288Z" fill="#CACACA"/>
<path d="M135.933 31.8605C135.776 31.8801 135.588 31.8931 135.373 31.8931C135.034 31.8931 134.636 31.867 134.187 31.8149C133.848 31.7758 133.477 31.7237 133.092 31.652C132.812 31.5999 132.525 31.5413 132.232 31.4761C131.952 31.411 131.665 31.3458 131.379 31.2676C131.112 31.196 130.851 31.1178 130.584 31.0331H130.577H130.571C130.18 30.9093 129.789 30.7725 129.418 30.6291C129.333 30.5966 129.248 30.564 129.164 30.5314C128.844 30.4011 128.538 30.2708 128.245 30.134C127.958 30.0037 127.691 29.8734 127.437 29.7365C127.333 29.6844 127.235 29.6323 127.144 29.5802C126.766 29.3717 126.44 29.1762 126.18 28.9873C126.004 28.8635 125.854 28.7462 125.737 28.6355C125.613 28.5182 125.528 28.414 125.489 28.3293C125.463 28.2706 125.456 28.2185 125.469 28.1794C125.489 28.1143 125.58 28.0817 125.724 28.0621C125.86 28.0491 126.043 28.0556 126.264 28.0817C126.59 28.1143 127 28.1859 127.457 28.2836C127.574 28.3097 127.691 28.3358 127.815 28.3618C128.121 28.427 128.434 28.5052 128.76 28.5899C129.092 28.6746 129.437 28.7658 129.769 28.8635C129.854 28.8896 129.945 28.9156 130.03 28.9352C130.414 29.0459 130.792 29.1567 131.144 29.2675C131.151 29.2675 131.151 29.2675 131.157 29.274C131.392 29.3456 131.639 29.4303 131.887 29.515C132.161 29.6062 132.434 29.704 132.714 29.8017C133.007 29.9059 133.294 30.0102 133.581 30.1209C133.972 30.2708 134.343 30.4206 134.688 30.564C135.138 30.7529 135.535 30.9419 135.835 31.1047C136.024 31.209 136.18 31.3067 136.278 31.3979C136.389 31.4891 136.441 31.5738 136.421 31.639C136.408 31.6846 136.376 31.7172 136.317 31.7497C136.233 31.8019 136.102 31.841 135.933 31.8605Z" fill="#CACACA"/>
<path d="M125.384 28.1595C125.364 28.2246 125.371 28.2963 125.41 28.3745C125.455 28.4722 125.547 28.583 125.677 28.7068C125.794 28.8175 125.944 28.9348 126.126 29.0651C126.394 29.254 126.726 29.456 127.104 29.6645C127.201 29.7166 127.299 29.7687 127.403 29.8209C127.664 29.9577 127.938 30.088 128.218 30.2183C128.518 30.3551 128.83 30.4919 129.143 30.6157C129.228 30.6483 129.312 30.6809 129.397 30.7134C129.788 30.8633 130.172 31.0001 130.557 31.1239H130.563C130.83 31.2086 131.098 31.2868 131.365 31.3584C131.645 31.4366 131.932 31.5018 132.218 31.5669C132.505 31.6321 132.798 31.6907 133.085 31.7429C133.463 31.808 133.834 31.8666 134.179 31.9057C134.629 31.9579 135.033 31.9839 135.378 31.9839C135.6 31.9839 135.789 31.9709 135.951 31.9513C136.134 31.9253 136.271 31.8862 136.362 31.8341C136.434 31.7885 136.486 31.7363 136.505 31.6712C136.551 31.5213 136.388 31.3845 136.336 31.3389C136.232 31.2477 136.075 31.15 135.873 31.0392C135.587 30.8763 135.196 30.6939 134.72 30.4919C134.388 30.3486 134.01 30.1987 133.606 30.0489C133.332 29.9447 133.039 29.8339 132.739 29.7296C132.466 29.6319 132.186 29.5342 131.912 29.443C131.664 29.3583 131.417 29.2801 131.176 29.2019L131.163 29.1954C130.804 29.0846 130.433 28.9674 130.049 28.8566C129.964 28.8305 129.873 28.8045 129.788 28.7849C129.443 28.6872 129.104 28.596 128.778 28.5113C128.446 28.4266 128.127 28.3484 127.833 28.2833C127.71 28.2572 127.592 28.2311 127.475 28.2051C126.993 28.1074 126.589 28.0357 126.276 28.0031C126.042 27.9771 125.859 27.9705 125.723 27.9836C125.638 27.9901 125.429 28.0096 125.384 28.1595ZM125.468 28.1855C125.488 28.1204 125.579 28.0878 125.723 28.0683C125.859 28.0552 126.042 28.0618 126.263 28.0878C126.589 28.1204 127 28.1921 127.456 28.2898C127.573 28.3158 127.69 28.3419 127.814 28.368C128.12 28.4331 128.433 28.5113 128.759 28.596C129.091 28.6807 129.436 28.7719 129.768 28.8696C129.853 28.8957 129.944 28.9218 130.029 28.9413C130.413 29.0521 130.791 29.1628 131.143 29.2736C131.15 29.2736 131.15 29.2736 131.156 29.2801C131.391 29.3518 131.638 29.4365 131.886 29.5212C132.16 29.6124 132.433 29.7101 132.713 29.8078C133.007 29.9121 133.293 30.0163 133.58 30.1271C133.971 30.2769 134.342 30.4268 134.687 30.5701C135.137 30.759 135.534 30.948 135.834 31.1109C136.023 31.2151 136.179 31.3128 136.277 31.4041C136.388 31.4953 136.44 31.58 136.42 31.6451C136.407 31.6907 136.375 31.7233 136.316 31.7559C136.232 31.8015 136.101 31.8406 135.938 31.8666C135.782 31.8862 135.593 31.8992 135.378 31.8992C135.039 31.8992 134.642 31.8732 134.192 31.821C133.854 31.7819 133.482 31.7298 133.098 31.6582C132.818 31.606 132.531 31.5474 132.238 31.4822C131.958 31.4171 131.671 31.3519 131.384 31.2738C131.117 31.2021 130.857 31.1239 130.589 31.0392H130.583H130.576C130.185 30.9154 129.795 30.7786 129.423 30.6353C129.338 30.6027 129.254 30.5701 129.169 30.5375C128.85 30.4072 128.544 30.2769 128.25 30.1401C127.964 30.0098 127.697 29.8795 127.443 29.7427C127.338 29.6906 127.241 29.6384 127.149 29.5863C126.771 29.3778 126.446 29.1824 126.185 28.9934C126.009 28.8696 125.859 28.7524 125.742 28.6416C125.618 28.5243 125.534 28.4201 125.494 28.3354C125.462 28.2768 125.455 28.2246 125.468 28.1855Z" fill="#CACACA"/>
<path d="M137.691 28.733C137.71 28.6548 137.736 28.3225 137.059 27.7557C136.271 27.0911 134.29 26.166 132.329 25.5275C130.355 24.9216 128.205 24.5437 127.175 24.6349C126.289 24.7131 126.12 24.9998 126.094 25.0714L126.113 25.0063C126.113 25.0063 126.178 24.6414 127.201 24.5502C128.231 24.459 130.381 24.8369 132.355 25.4428C134.316 26.0813 136.297 27.0065 137.085 27.671C137.873 28.329 137.71 28.6678 137.71 28.6678L137.691 28.733Z" fill="#F537CF"/>
<path d="M120.211 24.6677C122.055 24.8371 127.039 26.4854 131.573 27.9187C136.108 29.3456 141.131 30.8636 142.741 31.7823C142.916 31.88 143.236 32.0689 143.34 32.3296L143.327 32.4533C143.236 32.1732 142.897 31.9712 142.708 31.867C141.099 30.9483 136.075 29.4303 131.541 28.0034C127.006 26.5701 122.022 24.9218 120.178 24.7524C119.963 24.7328 119.572 24.7002 119.338 24.8827L119.403 24.7719C119.644 24.6155 120.009 24.6481 120.211 24.6677Z" fill="#CACACA"/>
<path d="M142.942 31.3586C141.88 30.6158 138.251 29.3389 131.768 27.2866C125.279 25.2408 121.578 24.1984 120.282 24.1984C119.865 24.1984 119.695 24.3026 119.637 24.3612L119.656 24.3221C119.656 24.3221 119.76 24.1202 120.334 24.1202C121.63 24.1202 125.318 25.1561 131.794 27.2019C138.264 29.2477 141.886 30.5181 142.942 31.2608C143.411 31.5866 143.378 31.8146 143.378 31.8146L143.372 31.8602C143.359 31.7821 143.287 31.5996 142.942 31.3586Z" fill="#CACACA"/>
</svg>
