<svg width="47" height="48" viewBox="0 0 47 48" fill="none" xmlns="http://www.w3.org/2000/svg">
<circle cx="23.3004" cy="23.9958" r="22.7077" fill="white" stroke="#E7E7E7"/>
<path fill-rule="evenodd" clip-rule="evenodd" d="M15.2609 15.1694C15.6822 14.3138 16.5417 13.7605 17.4953 13.7605H29.1063C30.0611 13.7605 30.9215 14.3153 31.3422 15.1848L31.3426 15.1857L35.0508 22.8899C35.0508 22.8899 35.0508 22.8899 35.0508 22.8899C35.3841 23.5823 35.3841 24.409 35.0509 25.1013M35.0509 25.1013L31.3427 32.8179L31.3406 32.8222C30.9194 33.6777 30.0599 34.2311 29.1063 34.2311H17.4953C16.5458 34.2311 15.6824 33.6936 15.2594 32.8191L15.2589 32.8179L11.5508 25.1017C11.2175 24.4093 11.2174 23.5826 11.5507 22.8903L15.2589 15.1737L15.2609 15.1694M16.1319 15.6091L12.4246 23.3238C12.223 23.7425 12.223 24.2491 12.4246 24.6678L16.1324 32.3836C16.1325 32.3838 16.1323 32.3834 16.1324 32.3836C16.3904 32.9163 16.9131 33.2434 17.4953 33.2434H29.1063C29.6838 33.2434 30.2097 32.9086 30.4697 32.3825C30.47 32.3818 30.4703 32.3812 30.4707 32.3805L34.1768 24.6682C34.3784 24.2494 34.3785 23.7425 34.177 23.3238L30.4692 15.6203C30.469 15.6201 30.4689 15.6199 30.4688 15.6196C30.2085 15.0821 29.683 14.7482 29.1063 14.7482H17.4953C16.9178 14.7482 16.3918 15.083 16.1319 15.6091Z" fill="#33DFCC"/>
</svg>
