<svg width="163" height="54" viewBox="0 0 163 54" fill="none" xmlns="http://www.w3.org/2000/svg">
<path d="M29.4213 20.5847L34.1702 0.0891113L23.0776 8.18736L18.4811 23.4541L15.1668 13.9836L4.2567 12.9838L0.205078 28.278L8.4533 21.7069L12.9223 29.2728L7.17357 41.2702L10.1229 48.6361L17.4339 53.0777L18.4986 53.745L18.8336 53.5101L26.8543 48.6361L29.8162 41.2877L24.0674 29.3203L29.4213 20.5847ZM5.76888 15.1434L12.135 15.7357L3.70432 22.9042L5.76888 15.1434ZM10.018 20.3922L13.9996 16.7555L17.2014 25.931L14.382 27.7981L10.018 20.3922ZM17.5163 45.8667L17.4514 50.7107L12.3575 47.6213L17.6063 39.743L17.5163 45.8667ZM11.1527 45.7917L9.3631 41.3502L14.8344 29.9402L17.5188 28.3705L17.6638 36.0413L11.1527 45.7917ZM30.9934 4.91307L28.2215 16.833L25.1697 9.15715L30.9934 4.91307ZM24.0774 11.8616L27.3517 20.1098L22.6477 27.7806L19.8708 25.8286L24.0774 11.8616ZM19.5384 50.7107L19.3634 39.743L24.6123 47.6213L19.5384 50.7107ZM27.6142 41.3477L25.822 45.7892L19.3234 36.0413L19.4509 28.368L22.1353 29.9377L27.6142 41.3477Z" fill="#F537CF"/>
<path d="M61.4748 32.3126C58.9789 38.9173 57.5389 43.0548 57.1549 44.7252C57.0397 45.2052 57.0493 45.762 57.1837 46.3955C57.3181 47.0099 57.5005 47.4995 57.7309 47.8643H55.1102C55.2638 47.6915 55.1774 47.0003 54.851 45.7908C54.5438 44.562 54.0542 42.8916 53.3822 40.7796C52.7102 38.6677 52.3358 37.4581 52.259 37.1509C50.7614 41.1252 49.8782 43.65 49.6095 44.7252C49.4943 45.2244 49.5039 45.7812 49.6383 46.3955C49.7919 47.0099 49.9838 47.4995 50.2142 47.8643H47.5647C47.5071 47.3459 47.2767 46.3571 46.8735 44.898C46.4895 43.4196 46.0383 41.7972 45.5199 40.0309C45.0207 38.2453 44.7039 37.1221 44.5695 36.6613C44.3392 35.7973 43.9456 34.5782 43.3888 33.0038C42.8512 31.4294 42.4384 30.4598 42.1504 30.095H45.8655C45.7695 30.191 45.7119 30.3734 45.6927 30.6422C45.6735 30.8918 45.6927 31.2182 45.7503 31.6214C45.8271 32.0054 45.9039 32.3798 45.9807 32.7446C46.0575 33.1094 46.1535 33.551 46.2687 34.0694C46.4031 34.5686 46.4991 34.9622 46.5567 35.2501C47.0559 37.7845 47.8047 40.6356 48.8031 43.8036C50.0894 40.0405 50.9054 37.5157 51.251 36.2293C51.443 35.3653 51.4238 34.5974 51.1934 33.9254C50.8862 33.1574 50.6078 32.6102 50.3582 32.2838L54.131 32.3126C54.1118 32.3894 54.083 32.5046 54.0446 32.6582C54.0254 32.8118 53.9966 33.1478 53.9582 33.6662C53.9198 34.1846 53.9582 34.703 54.0734 35.2213C54.2654 36.3541 54.5438 37.6405 54.9086 39.0805C55.2926 40.5012 55.6189 41.6436 55.8877 42.5076L56.3197 43.8036C57.9709 39.0037 58.8349 36.2869 58.9117 35.6533C59.0461 35.0197 59.0653 34.4246 58.9693 33.8678C58.8925 33.2918 58.6237 32.7638 58.1629 32.2838L61.4748 32.3126Z" fill="#032621"/>
<path d="M66.515 31.9382H66.4862C65.7182 31.9574 65.027 32.6678 64.4126 34.0694C63.8174 35.4709 63.539 37.2949 63.5774 39.5413C63.635 42.018 63.9326 43.9284 64.4702 45.2724C65.027 46.5971 65.7182 47.2403 66.5438 47.2019C66.9086 47.1827 67.2734 47.0195 67.6381 46.7123C68.0221 46.4243 68.3773 45.9923 68.7037 45.4164C69.0493 44.8212 69.3181 44.0052 69.5101 42.9684C69.7021 41.9316 69.7789 40.7604 69.7405 39.4549C69.6829 38.1301 69.5389 36.9589 69.3085 35.9413C69.0781 34.9046 68.7997 34.1078 68.4733 33.551C68.1469 32.9942 67.8109 32.5814 67.4654 32.3126C67.139 32.0438 66.8222 31.9094 66.515 31.9094V31.9382ZM66.4286 31.2182V31.1894C67.5614 31.1318 68.5789 31.4966 69.4813 32.2838C70.3837 33.071 71.0653 34.0982 71.5261 35.3653C72.0061 36.6325 72.2461 37.9765 72.2461 39.3973C72.2461 41.7972 71.6797 43.8132 70.5469 45.4452C69.4141 47.0579 68.0701 47.8547 66.515 47.8355C64.883 47.8163 63.539 47.0387 62.483 45.5028C61.4463 43.9476 60.9279 41.97 60.9279 39.5701C60.9087 38.1301 61.1487 36.7669 61.6479 35.4805C62.147 34.175 62.819 33.1286 63.6638 32.3414C64.5278 31.5542 65.4494 31.1798 66.4286 31.2182Z" fill="#032621"/>
<path d="M76.6954 49.4771L73.7866 49.3331C74.1706 48.9107 74.3434 47.1539 74.305 44.0628C74.2474 39.9925 74.1418 36.8245 73.9882 34.559C73.969 34.175 73.8826 33.791 73.729 33.407C73.5946 33.023 73.4602 32.7446 73.3258 32.5718L73.1242 32.2838H76.609C76.3402 32.5526 76.2634 32.9174 76.3786 33.3782C76.513 33.839 76.8394 34.463 77.3577 35.2501C77.7417 35.8261 78.3177 36.6133 79.0857 37.6117C79.8537 38.6101 80.5257 39.4645 81.1017 40.1749L81.9945 41.2404C81.9945 40.8564 82.0041 40.3573 82.0233 39.7429C82.0425 39.1093 82.0617 38.1013 82.0809 36.7189C82.1193 35.3173 82.1385 34.223 82.1385 33.4358C82.1001 30.9398 81.8409 29.567 81.3609 29.3175L84.1544 29.3751C84.0968 29.3943 84.0488 29.4423 84.0104 29.519C83.972 29.5766 83.9336 29.6726 83.8952 29.807C83.876 29.9414 83.8568 30.0854 83.8376 30.239C83.8184 30.3734 83.7992 30.5558 83.78 30.7862C83.7608 31.0166 83.7416 31.2278 83.7224 31.4198C83.7224 31.6118 83.7224 31.8518 83.7224 32.1398C83.7224 32.4278 83.7128 32.6774 83.6936 32.8886C83.6936 33.0806 83.6936 33.3398 83.6936 33.6662C83.6936 33.9734 83.6936 34.223 83.6936 34.415C83.6936 34.8374 83.6744 35.6917 83.636 36.9781C83.6168 38.2453 83.5976 39.3205 83.5784 40.2037C83.5784 41.0868 83.5784 42.0564 83.5784 43.1124C83.5976 44.1492 83.636 44.9748 83.6936 45.5892C83.7512 46.2035 83.828 46.5683 83.924 46.6835H82.3401C82.3593 46.5299 82.2441 46.2419 81.9945 45.8196C81.7641 45.378 81.5817 45.0708 81.4473 44.898L75.9754 37.9861L76.033 44.8692C76.0138 47.0771 76.2346 48.6131 76.6954 49.4771Z" fill="#032621"/>
<path d="M88.2475 31.1894C88.2283 37.9669 88.2475 42.9012 88.3051 45.9923C88.3051 46.3187 88.3531 46.6547 88.4491 47.0003C89.2171 46.9619 89.9179 46.7987 90.5515 46.5107C91.1851 46.2227 91.7707 45.8004 92.3083 45.2436C92.8459 44.6868 93.2683 43.9284 93.5755 42.9684C93.8826 42.0084 94.0458 40.8948 94.065 39.6277C94.065 38.5333 93.969 37.5445 93.777 36.6613C93.585 35.7781 93.3355 35.0581 93.0283 34.5014C92.7211 33.9254 92.3563 33.4262 91.9339 33.0038C91.5115 32.5622 91.1179 32.2358 90.7531 32.0246C90.3883 31.7942 90.0043 31.6118 89.6011 31.4774C89.1979 31.343 88.9003 31.2662 88.7083 31.247C88.5355 31.2086 88.3819 31.1894 88.2475 31.1894ZM84.878 48.0947C84.9164 48.0947 84.9548 48.0755 84.9932 48.0371C85.0508 48.0179 85.1468 47.9411 85.2812 47.8067C85.4156 47.6915 85.5308 47.5475 85.6268 47.3747C85.742 47.2019 85.838 46.9427 85.9148 46.5971C86.0108 46.2515 86.0684 45.858 86.0876 45.4164C86.126 41.8836 86.0876 38.0725 85.9724 33.983C85.9532 33.3686 85.8956 32.8406 85.7996 32.399C85.7036 31.9382 85.5884 31.6022 85.454 31.391C85.3388 31.1606 85.214 30.9782 85.0796 30.8438C84.9644 30.7094 84.8684 30.6326 84.7916 30.6134L84.6476 30.5558C84.7628 30.5366 84.926 30.5078 85.1372 30.4694C85.3676 30.431 85.8668 30.383 86.6348 30.3254C87.422 30.2678 88.2379 30.2966 89.0827 30.4118C89.2555 30.431 89.4187 30.4502 89.5723 30.4694C90.4747 30.527 91.3195 30.7574 92.1067 31.1606C92.9131 31.5446 93.633 32.0822 94.2666 32.7734C94.9002 33.4454 95.3994 34.3286 95.7642 35.4229C96.1482 36.4981 96.3402 37.6981 96.3402 39.0229C96.321 41.826 95.601 44.0244 94.1802 45.618C92.7595 47.1923 90.7723 48.0275 88.2187 48.1235C88.0459 48.1235 87.8924 48.1139 87.758 48.0947H84.878Z" fill="#032621"/>
<path d="M97.725 46.6547C97.7634 46.6547 97.8018 46.6259 97.8402 46.5683C97.8978 46.5107 97.965 46.3091 98.0418 45.9635C98.1378 45.5988 98.1858 45.1188 98.1858 44.5236C98.205 43.602 98.1762 42.018 98.0994 39.7717C98.0418 37.5253 98.013 36.0085 98.013 35.2213C97.9938 34.4918 97.9266 33.8774 97.8114 33.3782C97.7155 32.879 97.6194 32.5718 97.5235 32.4566L97.3795 32.255H105.587L105.703 34.415C105.664 34.3574 105.597 34.2806 105.501 34.1846C105.424 34.0886 105.213 33.9638 104.867 33.8102C104.522 33.6566 104.109 33.5798 103.629 33.5798L100.346 33.4934L100.403 38.3893C101.517 38.3701 102.333 38.2741 102.851 38.1013C103.37 37.9093 103.754 37.6213 104.003 37.2373L104.061 39.8005C103.619 39.3397 102.41 39.0901 100.432 39.0517L100.519 45.3876C101.651 45.3876 102.698 45.3876 103.658 45.3876C104.119 45.3876 104.522 45.3492 104.867 45.2724C105.232 45.1956 105.511 45.0996 105.703 44.9844C105.914 44.8692 106.086 44.7636 106.221 44.6676C106.355 44.5524 106.442 44.4564 106.48 44.3796L106.566 44.2644C106.509 44.61 106.422 44.9844 106.307 45.3876C106.192 45.7908 106.096 46.1075 106.019 46.3379L105.904 46.7123L97.725 46.6547Z" fill="#032621"/>
<path d="M110.46 38.7061C110.825 38.6485 111.19 38.5813 111.554 38.5045C111.938 38.4085 112.39 38.2453 112.908 38.0149C113.426 37.7845 113.878 37.5157 114.262 37.2085C114.646 36.9013 114.972 36.4885 115.241 35.9701C115.51 35.4325 115.644 34.8374 115.644 34.1846C115.644 33.5318 115.548 32.9558 115.356 32.4566C115.164 31.9382 114.914 31.5254 114.607 31.2182C114.3 30.911 113.954 30.6518 113.57 30.4406C113.206 30.2102 112.841 30.047 112.476 29.951C112.111 29.855 111.766 29.7878 111.439 29.7494C111.132 29.6918 110.882 29.663 110.69 29.663H110.431C110.412 31.8902 110.422 34.9046 110.46 38.7061ZM107.35 46.6835C107.369 46.6835 107.398 46.6739 107.436 46.6547C107.494 46.6163 107.58 46.5299 107.695 46.3955C107.81 46.2611 107.906 46.1075 107.983 45.9347C108.079 45.7428 108.166 45.474 108.242 45.1284C108.319 44.7636 108.358 44.3604 108.358 43.9188C108.415 40.3093 108.386 36.4309 108.271 32.2838C108.252 31.6694 108.194 31.1318 108.098 30.671C108.002 30.191 107.887 29.8454 107.753 29.6342C107.638 29.4039 107.513 29.2215 107.379 29.0871C107.263 28.9527 107.167 28.8759 107.091 28.8567L106.975 28.8279C107.82 28.7511 109.154 28.7511 110.978 28.8279C111.881 28.8663 112.706 28.9911 113.455 29.2023C114.223 29.4135 114.924 29.7302 115.558 30.1526C116.21 30.5558 116.719 31.103 117.084 31.7942C117.468 32.4854 117.679 33.2918 117.718 34.2134C117.737 34.8662 117.631 35.4709 117.401 36.0277C117.19 36.5845 116.921 37.0357 116.594 37.3813C116.268 37.7077 115.942 37.9957 115.615 38.2453C115.289 38.4757 115.01 38.6389 114.78 38.7349L114.406 38.8789C114.502 39.1093 114.617 39.4261 114.751 39.8293C114.905 40.2325 115.193 40.962 115.615 42.018C116.038 43.074 116.431 44.0148 116.796 44.8404C117.18 45.666 117.593 46.4435 118.034 47.1731C118.495 47.9219 118.869 48.3635 119.157 48.4979H115.529C115.97 48.0179 114.943 44.9844 112.447 39.3973C111.871 39.4549 111.218 39.4933 110.489 39.5125C110.508 41.2596 110.527 42.9204 110.546 44.4948C110.546 44.9364 110.623 45.3492 110.777 45.7332C110.93 46.1171 111.046 46.3667 111.122 46.4819C111.199 46.5779 111.266 46.6451 111.324 46.6835H107.35Z" fill="#032621"/>
<path d="M119.029 46.6835C119.067 46.6643 119.115 46.6259 119.173 46.5683C119.23 46.5107 119.307 46.3091 119.403 45.9635C119.499 45.5988 119.547 45.1188 119.547 44.5236C119.566 43.5828 119.537 41.9892 119.461 39.7429C119.403 37.4773 119.374 35.9509 119.374 35.1637C119.355 34.4342 119.307 33.8294 119.23 33.3494C119.153 32.8502 119.086 32.5526 119.029 32.4566L118.913 32.2838H122.196C122.158 32.3222 122.11 32.3894 122.052 32.4854C122.014 32.5622 121.947 32.831 121.851 33.2918C121.774 33.7526 121.736 34.3286 121.736 35.0197C121.755 37.4965 121.803 40.9524 121.88 45.3876C123.012 45.3876 124.059 45.3876 125.019 45.3876C125.48 45.3876 125.883 45.3492 126.228 45.2724C126.593 45.1764 126.872 45.0804 127.064 44.9844C127.275 44.8692 127.448 44.754 127.582 44.6388C127.716 44.5236 127.803 44.4372 127.841 44.3796C127.899 44.3028 127.928 44.2548 127.928 44.2356C127.87 44.5812 127.784 44.9652 127.668 45.3876C127.553 45.7908 127.457 46.1075 127.38 46.3379L127.265 46.7123L119.029 46.6835Z" fill="#032621"/>
<path d="M135.058 41.0676L133.532 35.2213L131.689 41.2692L135.058 41.0676ZM128.319 46.6835C130.854 40.0981 132.313 35.9701 132.697 34.2998C132.793 33.8198 132.764 33.2726 132.61 32.6582C132.476 32.0438 132.294 31.5542 132.063 31.1894L134.713 31.1606C134.79 31.6982 135.03 32.6966 135.433 34.1558C135.836 35.6149 136.297 37.2277 136.815 38.9941C137.353 40.7604 137.679 41.874 137.794 42.3348C138.025 43.1796 138.438 44.4276 139.033 46.0787C139.647 47.7107 140.098 48.7091 140.386 49.0739L136.527 49.1315C136.566 48.9011 136.594 48.5843 136.614 48.1811C136.633 47.7971 136.575 47.1923 136.441 46.3667C136.326 45.522 136.134 44.658 135.865 43.7748C135.673 43.1796 135.471 42.5172 135.26 41.7876C134.204 41.826 133.33 41.8836 132.639 41.9604C132.274 41.9988 131.919 42.1428 131.574 42.3924C131.247 42.6228 131.055 42.9588 130.998 43.4004C130.863 44.034 130.844 44.6292 130.94 45.186C131.036 45.7236 131.314 46.2227 131.775 46.6835H128.319Z" fill="#032621"/>
<path d="M143.088 49.4771L140.179 49.3331C140.563 48.9107 140.736 47.1539 140.698 44.0628C140.64 39.9925 140.535 36.8245 140.381 34.559C140.362 34.175 140.275 33.791 140.122 33.407C139.987 33.023 139.853 32.7446 139.719 32.5718L139.517 32.2838H143.002C142.733 32.5526 142.656 32.9174 142.771 33.3782C142.906 33.839 143.232 34.463 143.75 35.2501C144.134 35.8261 144.71 36.6133 145.478 37.6117C146.246 38.6101 146.918 39.4645 147.494 40.1749L148.387 41.2404C148.387 40.8564 148.397 40.3573 148.416 39.7429C148.435 39.1093 148.454 38.1013 148.474 36.7189C148.512 35.3173 148.531 34.223 148.531 33.4358C148.493 30.9398 146.234 29.567 145.754 29.3175L148.547 29.3751C148.49 29.3943 148.442 29.4423 148.403 29.519C148.365 29.5766 148.326 29.6726 148.288 29.807C148.269 29.9414 148.25 30.0854 148.23 30.239C148.211 30.3734 150.192 30.5558 150.173 30.7862C150.154 31.0166 150.134 31.2278 150.115 31.4198C150.115 31.6118 150.115 31.8518 150.115 32.1398C150.115 32.4278 150.106 32.6774 150.086 32.8886C150.086 33.0806 150.086 33.3398 150.086 33.6662C150.086 33.9734 150.086 34.223 150.086 34.415C150.086 34.8374 150.067 35.6917 150.029 36.9781C150.01 38.2453 149.99 39.3205 149.971 40.2037C149.971 41.0868 149.971 42.0564 149.971 43.1124C149.99 44.1492 150.029 44.9748 150.086 45.5892C150.144 46.2035 150.221 46.5683 150.317 46.6835H148.733C148.752 46.5299 148.637 46.2419 148.387 45.8196C148.157 45.378 147.974 45.0708 147.84 44.898L142.368 37.9861L142.426 44.8692C142.406 47.0771 142.627 48.6131 143.088 49.4771Z" fill="#032621"/>
<path d="M154.64 31.1894C154.621 37.9669 154.64 42.9012 154.698 45.9923C154.698 46.3187 154.746 46.6547 154.842 47.0003C155.61 46.9619 156.311 46.7987 156.944 46.5107C157.578 46.2227 158.163 45.8004 158.701 45.2436C159.239 44.6868 159.661 43.9284 159.968 42.9684C160.275 42.0084 160.439 40.8948 160.458 39.6277C160.458 38.5333 160.362 37.5445 160.17 36.6613C159.978 35.7781 159.728 35.0581 159.421 34.5014C159.114 33.9254 158.749 33.4262 158.327 33.0038C157.904 32.5622 157.511 32.2358 157.146 32.0246C156.781 31.7942 156.397 31.6118 155.994 31.4774C155.591 31.343 155.293 31.2662 155.101 31.247C154.928 31.2086 154.775 31.1894 154.64 31.1894ZM151.271 48.0947C151.309 48.0947 151.348 48.0755 151.386 48.0371C151.444 48.0179 151.539 47.9411 151.674 47.8067C151.808 47.6915 151.923 47.5475 152.019 47.3747C152.135 47.2019 152.231 46.9427 152.307 46.5971C152.403 46.2515 152.461 45.858 152.48 45.4164C152.519 41.8836 152.48 38.0725 152.365 33.983C152.346 33.3686 152.288 32.8406 152.192 32.399C152.096 31.9382 151.981 31.6022 151.847 31.391C151.731 31.1606 151.607 30.9782 151.472 30.8438C151.357 30.7094 149.261 30.6326 149.184 30.6134L149.04 30.5558C149.156 30.5366 149.319 30.5078 149.53 30.4694C149.76 30.431 150.259 30.383 151.027 30.3254C151.815 30.2678 152.631 30.2966 153.475 30.4118C153.648 30.431 153.811 30.4502 153.965 30.4694C154.867 30.527 157.712 30.7574 158.499 31.1606C159.306 31.5446 160.026 32.0822 160.659 32.7734C161.293 33.4454 161.792 34.3286 162.157 35.4229C162.541 36.4981 162.733 37.6981 162.733 39.0229C162.714 41.826 161.994 44.0244 160.573 45.618C159.152 47.1923 157.165 48.0275 154.611 48.1235C154.439 48.1235 154.285 48.1139 154.151 48.0947H151.271Z" fill="#032621"/>
<path d="M41.7158 25.6572C41.7569 25.6572 41.804 25.6455 41.8569 25.6161C41.9098 25.5867 42.0098 25.5161 42.1568 25.3926C42.3039 25.2691 42.4333 25.1279 42.5509 24.9574C42.6626 24.7868 42.7685 24.5398 42.8626 24.1987C42.9567 23.8635 43.0155 23.4812 43.0331 23.0519C43.0743 19.6173 43.0331 15.918 42.9096 11.9423C42.8861 11.3483 42.8273 10.8249 42.7214 10.3897C42.6156 9.95447 42.498 9.62513 42.3627 9.40753C42.2274 9.19581 42.0922 9.01937 41.9569 8.88998C41.8216 8.76059 41.7099 8.68414 41.6275 8.66649L41.4688 8.60768C41.5923 8.59003 41.7746 8.56064 42.0157 8.52535C42.2568 8.49006 42.7979 8.443 43.6448 8.38419C44.4917 8.33126 45.368 8.35479 46.2913 8.46653C46.4795 8.48418 46.656 8.50182 46.8206 8.51946C47.8028 8.57827 48.7261 8.79588 49.5907 9.17815C50.4552 9.56043 51.2315 10.0839 51.9196 10.7484C52.6077 11.413 53.1547 12.2716 53.5605 13.3244C53.9663 14.3771 54.1721 15.5475 54.1721 16.8355C54.1486 19.5584 53.3664 21.6933 51.8255 23.2283C50.2788 24.7692 48.1204 25.5808 45.3503 25.6749C45.1621 25.6749 44.9975 25.6631 44.8504 25.6455H41.7158V25.6572ZM45.3739 9.23108C45.3503 15.818 45.3739 20.6112 45.4386 23.6165C45.4386 23.934 45.4915 24.2575 45.5973 24.5986C46.4325 24.5633 47.1911 24.4045 47.8792 24.1222C48.5673 23.84 49.2025 23.4342 49.7906 22.8931C50.3729 22.352 50.8316 21.6169 51.1668 20.6818C51.5021 19.7466 51.6785 18.6645 51.6961 17.4353C51.6961 16.3708 51.5903 15.4122 51.3844 14.5536C51.1786 13.6949 50.9022 12.9892 50.5728 12.4422C50.2376 11.8894 49.8436 11.4071 49.3848 10.9896C48.9261 10.572 48.4968 10.2544 48.1027 10.0368C47.7087 9.82508 47.2911 9.64864 46.85 9.51925C46.4089 9.38987 46.0914 9.30755 45.8973 9.27814C45.6914 9.24285 45.5209 9.23108 45.3739 9.23108Z" fill="#FA02DC"/>
<path d="M56.6069 24.2577C56.6481 24.2577 56.6951 24.2283 56.748 24.1754C56.801 24.1224 56.8715 23.9166 56.9656 23.5755C57.0597 23.2285 57.1068 22.7698 57.1068 22.1875C57.1303 21.2936 57.1009 19.7527 57.0303 17.5708C56.9539 15.3889 56.9186 13.9127 56.9186 13.1481C56.8951 12.4365 56.8304 11.8425 56.7127 11.3544C56.5951 10.8662 56.4893 10.5722 56.3834 10.4604L56.2246 10.2664H65.1405L65.264 12.3659C65.2228 12.313 65.1522 12.2366 65.0581 12.1425C64.964 12.0484 64.7288 11.9307 64.3524 11.7778C63.976 11.6308 63.529 11.5543 63.0056 11.5543L59.4357 11.472L59.5004 16.2299C60.7119 16.2122 61.5941 16.1122 62.1587 15.9358C62.7233 15.7594 63.1409 15.483 63.4114 15.1124L63.4761 17.6061C62.9938 17.1591 61.6823 16.918 59.5357 16.8768L59.6298 23.0344C60.859 23.0344 61.9999 23.0344 63.0409 23.0344C63.5408 23.0344 63.9819 22.9991 64.37 22.9227C64.7582 22.8462 65.0581 22.7521 65.2757 22.6404C65.4934 22.5286 65.6757 22.4228 65.8227 22.3169C65.9697 22.2169 66.0638 22.1228 66.105 22.0523L66.1991 21.9405C66.1344 22.2757 66.0403 22.6404 65.9168 23.0344C65.7933 23.4284 65.6874 23.7343 65.6051 23.9578L65.4816 24.3224L56.6069 24.2577Z" fill="#FA02DC"/>
<path d="M67.4936 24.2576C67.7641 24.1811 67.9112 23.5048 67.9288 22.2168C67.97 19.5879 67.97 16.6179 67.9288 13.3186C67.9288 12.607 67.8582 12.0012 67.723 11.5013C67.5877 10.9955 67.4466 10.6721 67.2995 10.5191L67.1113 10.2957H76.0272L76.1507 12.3952C76.1095 12.3364 76.039 12.2659 75.9449 12.1718C75.8508 12.0777 75.6155 11.96 75.2391 11.8071C74.8627 11.6601 74.4158 11.5719 73.8923 11.5542L70.2931 11.4954L70.3872 16.2533C71.5752 16.2357 72.4573 16.1357 73.0337 15.9592C73.6042 15.7828 74.0276 15.5064 74.2981 15.1359L74.3628 17.6295C73.8629 17.1825 72.5455 16.9414 70.4224 16.9002C70.3989 19.5526 70.393 21.4993 70.393 22.752C70.393 22.8814 70.4107 23.0108 70.4401 23.1284C70.4695 23.2519 70.5048 23.3578 70.5518 23.4519C70.593 23.546 70.64 23.6401 70.693 23.7342C70.7459 23.8283 70.7988 23.9047 70.8518 23.9753C70.9047 24.04 70.9517 24.0988 70.9929 24.1459C71.0341 24.1929 71.0752 24.2282 71.1164 24.2458L71.1458 24.2752H67.4936V24.2576Z" fill="#FA02DC"/>
<path d="M78.668 24.2872C78.7327 24.2696 78.7974 24.2343 78.8738 24.1755C78.9444 24.1225 79.0561 23.9402 79.2032 23.6285C79.3502 23.3227 79.4325 22.9228 79.4561 22.4405C79.5208 21.5642 79.556 19.9116 79.5678 17.4886C79.5796 15.0655 79.5502 13.2188 79.4913 11.9485C79.4678 11.6485 79.409 11.3604 79.3031 11.0839C79.1973 10.8017 79.0973 10.6076 78.9914 10.4958L78.8326 10.3018H82.9024C82.8789 10.3194 82.8554 10.337 82.826 10.3429C82.7966 10.3547 82.7319 10.39 82.6378 10.4547C82.5437 10.5194 82.4613 10.6076 82.3849 10.7193C82.3084 10.8311 82.2496 11.0016 82.1967 11.2251C82.1438 11.4486 82.1202 11.7191 82.1202 12.0367C82.0144 17.7826 82.0144 21.3113 82.1202 22.617C82.2026 23.4933 82.4319 24.052 82.8083 24.299H78.668V24.2872Z" fill="#FA02DC"/>
<path d="M115.993 13.4125C117.957 12.8303 121.098 13.6066 122.104 13.9066C123.098 14.2418 126.115 15.4121 127.391 17.0118C128.732 18.6997 128.114 19.429 127.744 19.8407C126.515 21.1933 125.803 22.2461 125.191 23.2812C124.25 24.8809 123.862 26.163 123.862 26.163L113.629 22.9342C113.629 22.9342 114.046 21.6639 114.194 19.8113C114.288 18.6174 114.311 17.3471 114.082 15.5298C114.011 14.9769 113.923 14.0242 115.993 13.4125Z" fill="#012520"/>
<path d="M115.993 13.4125C117.957 12.8303 121.098 13.6066 122.104 13.9066C123.098 14.2418 126.115 15.4121 127.391 17.0118C128.732 18.6997 128.114 19.429 127.744 19.8407C126.515 21.1933 125.803 22.2461 125.191 23.2812C124.25 24.8809 123.862 26.163 123.862 26.163L113.629 22.9342C113.629 22.9342 114.046 21.6639 114.194 19.8113C114.288 18.6174 114.311 17.3471 114.082 15.5298C114.011 14.9769 113.923 14.0242 115.993 13.4125Z" stroke="#012520" stroke-miterlimit="10"/>
<path d="M127.979 29.7035C127.785 29.7329 127.561 29.7564 127.303 29.7799C127.191 29.7917 127.073 29.7975 126.95 29.8093C126.174 29.8622 125.138 29.8858 123.715 29.7681C123.58 29.7564 123.439 29.7446 123.298 29.727C122.721 29.6682 122.139 29.6152 121.445 29.5035C120.469 29.3447 119.275 29.08 117.558 28.5449C117.534 28.539 117.511 28.5272 117.487 28.5213C117.463 28.5154 117.44 28.5096 117.416 28.4978C116.158 28.0979 115.217 27.7391 114.452 27.4039C113.611 27.0393 112.994 26.704 112.412 26.3806C112.288 26.31 112.165 26.2394 112.041 26.1689C110.971 25.569 110.177 25.0338 109.565 24.5751C109.236 24.328 108.965 24.1104 108.73 23.9105C108.53 23.7458 108.365 23.5929 108.224 23.4576C108.095 23.3341 107.983 23.2165 107.895 23.1165C107.695 22.8871 107.595 22.7225 107.554 22.599C107.513 22.4931 107.518 22.4167 107.53 22.3579C107.53 22.3461 107.536 22.3343 107.542 22.3225C107.671 22.1873 107.801 22.0814 107.971 22.052C108.359 21.9814 108.965 22.0403 109.706 22.1755C110.918 22.399 112.476 22.8342 113.958 23.2988C115.111 23.6576 116.217 24.0281 117.069 24.3222C117.869 24.5986 118.452 24.8044 118.646 24.8632C118.91 24.9456 119.916 25.222 121.21 25.6043C122.268 25.916 123.515 26.3041 124.709 26.7099C126.121 27.1922 127.456 27.7156 128.297 28.192C128.602 28.3625 128.844 28.5331 129.002 28.6919C129.126 28.8154 129.249 28.9801 129.202 29.1624C129.196 29.1741 129.196 29.1859 129.191 29.1918C129.167 29.2447 129.126 29.3094 129.032 29.38C128.926 29.4564 128.749 29.5388 128.455 29.6093C128.308 29.6446 128.155 29.6799 127.979 29.7035Z" fill="#012520"/>
<path d="M114.629 22.0347C115.558 21.9523 117.499 22.2934 119.281 22.8404C121.051 23.4168 122.839 24.2519 123.551 24.8518C124.263 25.4458 124.115 25.7516 124.115 25.7516L123.986 26.1515L118.752 24.4989L113.518 22.8463L113.647 22.4464C113.647 22.4464 113.706 22.117 114.629 22.0347Z" fill="#F537CF"/>
<path d="M107.823 21.8405C107.823 21.8405 107.917 21.6582 108.435 21.6582C109.605 21.6582 112.934 22.5933 118.78 24.44C124.62 26.2867 127.89 27.4335 128.843 28.104C129.266 28.398 129.237 28.6039 129.237 28.6039L129.19 29.1744C129.107 28.9215 128.802 28.7391 128.631 28.645C127.178 27.8158 122.644 26.4455 118.551 25.1575C114.457 23.8636 109.958 22.3757 108.294 22.2228C108.1 22.2051 107.747 22.1757 107.535 22.3404L107.823 21.8405Z" fill="#00110E"/>
<path d="M122.51 28.6392C122.369 28.6569 122.198 28.6686 122.004 28.6686C121.698 28.6686 121.339 28.6451 120.934 28.598C120.628 28.5628 120.292 28.5157 119.945 28.451C119.693 28.404 119.434 28.351 119.169 28.2922C118.916 28.2334 118.657 28.1746 118.399 28.104C118.158 28.0393 117.922 27.9687 117.681 27.8923H117.675H117.669C117.317 27.7805 116.964 27.657 116.628 27.5277C116.552 27.4983 116.476 27.4689 116.399 27.4394C116.111 27.3218 115.835 27.2042 115.57 27.0807C115.311 26.9631 115.07 26.8454 114.841 26.7219C114.747 26.6749 114.658 26.6278 114.576 26.5808C114.235 26.3926 113.941 26.2162 113.706 26.0456C113.547 25.9339 113.411 25.828 113.306 25.728C113.194 25.6222 113.117 25.5281 113.082 25.4516C113.059 25.3987 113.053 25.3516 113.064 25.3163C113.082 25.2575 113.164 25.2281 113.294 25.2105C113.417 25.1987 113.582 25.2046 113.782 25.2281C114.076 25.2575 114.447 25.3222 114.858 25.4104C114.964 25.434 115.07 25.4575 115.182 25.481C115.458 25.5398 115.74 25.6104 116.034 25.6868C116.334 25.7633 116.646 25.8456 116.946 25.9339C117.023 25.9574 117.105 25.9809 117.181 25.9985C117.528 26.0985 117.869 26.1985 118.187 26.2985C118.193 26.2985 118.193 26.2985 118.199 26.3044C118.41 26.3691 118.634 26.4455 118.857 26.522C119.104 26.6043 119.351 26.6925 119.604 26.7808C119.869 26.8749 120.128 26.9689 120.387 27.0689C120.739 27.2042 121.075 27.3395 121.386 27.4688C121.792 27.6394 122.151 27.81 122.421 27.957C122.592 28.0511 122.733 28.1393 122.821 28.2216C122.921 28.304 122.968 28.3804 122.951 28.4393C122.939 28.4804 122.91 28.5098 122.857 28.5392C122.78 28.5863 122.663 28.6216 122.51 28.6392Z" fill="#00110E"/>
<path d="M112.988 25.2985C112.971 25.3573 112.976 25.422 113.012 25.4925C113.053 25.5808 113.135 25.6807 113.253 25.7925C113.359 25.8925 113.494 25.9983 113.659 26.1159C113.9 26.2865 114.2 26.4688 114.541 26.657C114.629 26.7041 114.717 26.7511 114.811 26.7982C115.047 26.9217 115.294 27.0393 115.546 27.1569C115.817 27.2804 116.099 27.4039 116.382 27.5157C116.458 27.5451 116.535 27.5745 116.611 27.6039C116.964 27.7392 117.311 27.8627 117.658 27.9744H117.664C117.905 28.0509 118.146 28.1214 118.387 28.1861C118.64 28.2567 118.899 28.3155 119.158 28.3743C119.416 28.4331 119.681 28.4861 119.94 28.5331C120.281 28.5919 120.616 28.6449 120.928 28.6802C121.334 28.7272 121.698 28.7507 122.01 28.7507C122.21 28.7507 122.38 28.739 122.527 28.7213C122.692 28.6978 122.816 28.6625 122.898 28.6155C122.963 28.5743 123.01 28.5272 123.027 28.4684C123.069 28.3332 122.921 28.2096 122.874 28.1685C122.78 28.0861 122.639 27.9979 122.457 27.8979C122.198 27.7509 121.845 27.5862 121.416 27.4039C121.116 27.2745 120.775 27.1393 120.41 27.004C120.163 26.9099 119.899 26.8099 119.628 26.7158C119.381 26.6276 119.128 26.5394 118.881 26.4571C118.658 26.3806 118.434 26.31 118.217 26.2394L118.205 26.2336C117.881 26.1336 117.546 26.0277 117.199 25.9277C117.123 25.9042 117.04 25.8807 116.964 25.8631C116.652 25.7748 116.346 25.6925 116.052 25.616C115.752 25.5396 115.464 25.469 115.199 25.4102C115.088 25.3867 114.982 25.3632 114.876 25.3396C114.441 25.2514 114.076 25.1867 113.794 25.1573C113.582 25.1338 113.417 25.1279 113.294 25.1397C113.218 25.1456 113.029 25.1632 112.988 25.2985ZM113.065 25.322C113.082 25.2632 113.165 25.2338 113.294 25.2161C113.417 25.2044 113.582 25.2102 113.782 25.2338C114.076 25.2632 114.447 25.3279 114.858 25.4161C114.964 25.4396 115.07 25.4631 115.182 25.4867C115.458 25.5455 115.741 25.616 116.035 25.6925C116.335 25.769 116.646 25.8513 116.946 25.9395C117.023 25.963 117.105 25.9866 117.181 26.0042C117.528 26.1042 117.87 26.2042 118.187 26.3042C118.193 26.3042 118.193 26.3041 118.199 26.31C118.411 26.3747 118.634 26.4512 118.858 26.5276C119.105 26.61 119.352 26.6982 119.604 26.7864C119.869 26.8805 120.128 26.9746 120.387 27.0746C120.74 27.2099 121.075 27.3451 121.386 27.4745C121.792 27.6451 122.151 27.8156 122.422 27.9627C122.592 28.0567 122.733 28.145 122.821 28.2273C122.921 28.3096 122.969 28.3861 122.951 28.4449C122.939 28.4861 122.91 28.5155 122.857 28.5449C122.78 28.5861 122.663 28.6213 122.516 28.6449C122.375 28.6625 122.204 28.6743 122.01 28.6743C121.704 28.6743 121.345 28.6507 120.94 28.6037C120.634 28.5684 120.298 28.5214 119.951 28.4567C119.699 28.4096 119.44 28.3567 119.175 28.2979C118.922 28.2391 118.664 28.1803 118.405 28.1097C118.164 28.045 117.928 27.9744 117.687 27.8979H117.681H117.675C117.323 27.7862 116.97 27.6627 116.634 27.5333C116.558 27.5039 116.482 27.4745 116.405 27.4451C116.117 27.3275 115.841 27.2098 115.576 27.0863C115.317 26.9687 115.076 26.8511 114.847 26.7276C114.753 26.6805 114.664 26.6335 114.582 26.5864C114.241 26.3982 113.947 26.2218 113.712 26.0513C113.553 25.9395 113.417 25.8337 113.312 25.7337C113.2 25.6278 113.123 25.5337 113.088 25.4573C113.059 25.4043 113.053 25.3573 113.065 25.322Z" fill="#00110E"/>
<path d="M124.097 25.816C124.115 25.7454 124.139 25.4455 123.527 24.9338C122.815 24.3339 121.027 23.4988 119.257 22.9225C117.475 22.3755 115.534 22.0344 114.605 22.1167C113.805 22.1873 113.652 22.4461 113.629 22.5108L113.647 22.452C113.647 22.452 113.705 22.1226 114.629 22.0403C115.558 21.958 117.499 22.2991 119.281 22.846C121.051 23.4224 122.839 24.2575 123.55 24.8574C124.262 25.4514 124.115 25.7572 124.115 25.7572L124.097 25.816Z" fill="#032621"/>
<path d="M108.317 22.1463C109.982 22.2992 114.481 23.7872 118.574 25.081C122.667 26.369 127.202 27.7393 128.655 28.5686C128.813 28.6568 129.101 28.8273 129.196 29.0626L129.184 29.1743C129.101 28.9214 128.796 28.7391 128.625 28.645C127.172 27.8158 122.638 26.4455 118.545 25.1575C114.451 23.8636 109.952 22.3757 108.288 22.2228C108.094 22.2051 107.741 22.1757 107.529 22.3404L107.588 22.2404C107.806 22.0993 108.135 22.1287 108.317 22.1463Z" fill="#00110E"/>
<path d="M128.836 28.1861C127.877 27.5156 124.601 26.3629 118.75 24.5103C112.892 22.6637 109.551 21.7227 108.381 21.7227C108.005 21.7227 107.852 21.8168 107.799 21.8697L107.816 21.8344C107.816 21.8344 107.911 21.6521 108.428 21.6521C109.598 21.6521 112.927 22.5872 118.773 24.4339C124.613 26.2806 127.883 27.4274 128.836 28.0979C129.259 28.3919 129.23 28.5978 129.23 28.5978L129.224 28.639C129.212 28.5684 129.148 28.4037 128.836 28.1861Z" fill="#00110E"/>
</svg>
