<svg width="25" height="25" viewBox="0 0 25 25" fill="none" xmlns="http://www.w3.org/2000/svg">
<path d="M13.0781 16.027V17.027C13.0781 17.8227 12.7621 18.5858 12.1994 19.1484C11.6368 19.711 10.8738 20.027 10.0781 20.027H6.07812C5.28248 20.027 4.51941 19.711 3.9568 19.1484C3.3942 18.5858 3.07813 17.8227 3.07812 17.027V7.02704C3.07813 6.23139 3.3942 5.46833 3.9568 4.90572C4.51941 4.34311 5.28248 4.02704 6.07812 4.02704H10.0781C10.8738 4.02704 11.6368 4.34311 12.1994 4.90572C12.7621 5.46833 13.0781 6.23139 13.0781 7.02704V8.02704M17.0781 16.027L21.0781 12.027L17.0781 16.027ZM21.0781 12.027L17.0781 8.02704L21.0781 12.027ZM21.0781 12.027H7.07812H21.0781Z" stroke="#032621" stroke-width="2" stroke-linecap="round" stroke-linejoin="round"/>
</svg>
