<svg width="29" height="46" viewBox="0 0 29 46" fill="none" xmlns="http://www.w3.org/2000/svg">
<path d="M24.8023 17.7485L28.7406 0.751465L19.5415 7.46736L15.7296 20.1281L12.9811 12.2742L3.93326 11.4451L0.573242 24.1286L7.4135 18.6792L11.1197 24.9536L6.35223 34.903L8.79814 41.0116L14.8611 44.695L15.7441 45.2484L16.0219 45.0536L22.6735 41.0116L25.1298 34.9175L20.3623 24.9929L24.8023 17.7485ZM5.18731 13.236L10.4667 13.7272L3.47517 19.672L5.18731 13.236ZM8.71108 17.5889L12.0131 14.5729L14.6683 22.1822L12.3302 23.7306L8.71108 17.5889ZM14.9295 38.7149L14.8756 42.732L10.6512 40.17L15.0041 33.6365L14.9295 38.7149ZM9.65213 38.6527L8.168 34.9694L12.7054 25.507L14.9316 24.2053L15.0518 30.5667L9.65213 38.6527ZM26.1061 4.75198L23.8073 14.6372L21.2764 8.27161L26.1061 4.75198ZM20.3706 10.5144L23.086 17.3546L19.185 23.7161L16.8821 22.0972L20.3706 10.5144ZM16.6064 42.732L16.4613 33.6365L20.8142 40.17L16.6064 42.732ZM23.3036 34.9673L21.8174 38.6507L16.4281 30.5667L16.5339 24.2032L18.76 25.5049L23.3036 34.9673Z" fill="#F537CF"/>
</svg>
