<svg width="16" height="16" viewBox="0 0 16 16" fill="none" xmlns="http://www.w3.org/2000/svg">
<g opacity="0.5">
<path d="M10.059 2.44494C9.89335 2.27884 9.69106 2.15391 9.46837 2.08017C9.24567 2.00644 9.00879 1.98597 8.77675 2.02039C8.54471 2.05482 8.32398 2.14319 8.13229 2.2784C7.94059 2.41362 7.78329 2.5919 7.673 2.79894L5.653 6.58894L2.842 7.52594C2.76108 7.55282 2.68838 7.59995 2.63081 7.66284C2.57323 7.72573 2.5327 7.8023 2.51306 7.88528C2.49342 7.96825 2.49532 8.05487 2.51859 8.1369C2.54186 8.21892 2.58572 8.29364 2.646 8.35394L4.793 10.4999L2.146 13.1469L2 13.9999L2.853 13.8539L5.5 11.2069L7.646 13.3539C7.7063 13.4142 7.78102 13.4581 7.86305 13.4814C7.94508 13.5046 8.03169 13.5065 8.11467 13.4869C8.19764 13.4672 8.27421 13.4267 8.3371 13.3691C8.4 13.3116 8.44712 13.2389 8.474 13.1579L9.411 10.3479L13.19 8.32394C13.396 8.21344 13.5733 8.05634 13.7078 7.86516C13.8422 7.67398 13.9302 7.45402 13.9646 7.22282C13.999 6.99163 13.9788 6.75559 13.9058 6.53355C13.8328 6.31151 13.7089 6.1096 13.544 5.94394L10.06 2.44394L10.059 2.44494Z" fill="white"/>
</g>
</svg>
