<svg width="13" height="13" viewBox="0 0 13 13" fill="none" xmlns="http://www.w3.org/2000/svg">
<path d="M12.9414 6.76953C12.9414 8.36083 12.3093 9.88695 11.184 11.0122C10.0588 12.1374 8.53271 12.7695 6.94141 12.7695C5.35011 12.7695 3.82398 12.1374 2.69877 11.0122C1.57355 9.88695 0.941406 8.36083 0.941406 6.76953C0.941406 5.17823 1.57355 3.65211 2.69877 2.52689C3.82398 1.40167 5.35011 0.769531 6.94141 0.769531C8.53271 0.769531 10.0588 1.40167 11.184 2.52689C12.3093 3.65211 12.9414 5.17823 12.9414 6.76953ZM5.06341 5.29428H5.68216C5.78566 5.29428 5.86816 5.20953 5.88166 5.10678C5.94916 4.61478 6.28666 4.25628 6.88816 4.25628C7.40266 4.25628 7.87366 4.51353 7.87366 5.13228C7.87366 5.60853 7.59316 5.82753 7.14991 6.16053C6.64516 6.52728 6.24541 6.95553 6.27391 7.65078L6.27616 7.81353C6.27694 7.86274 6.29705 7.90966 6.33212 7.94418C6.3672 7.9787 6.41444 7.99804 6.46366 7.99803H7.07191C7.12163 7.99803 7.16933 7.97828 7.20449 7.94311C7.23965 7.90795 7.25941 7.86026 7.25941 7.81053V7.73178C7.25941 7.19328 7.46416 7.03653 8.01691 6.61728C8.47366 6.27003 8.94991 5.88453 8.94991 5.07528C8.94991 3.94203 7.99291 3.39453 6.94516 3.39453C5.99491 3.39453 4.95391 3.83703 4.88266 5.10903C4.88163 5.13325 4.88557 5.15743 4.89423 5.18007C4.90289 5.20271 4.91609 5.22334 4.93302 5.24069C4.94995 5.25804 4.97025 5.27175 4.99268 5.28096C5.0151 5.29018 5.03917 5.29471 5.06341 5.29428ZM6.80716 10.1265C7.26466 10.1265 7.57891 9.83103 7.57891 9.43128C7.57891 9.01728 7.26391 8.72628 6.80716 8.72628C6.36916 8.72628 6.05041 9.01728 6.05041 9.43128C6.05041 9.83103 6.36916 10.1265 6.80791 10.1265H6.80716Z" fill="#808080"/>
</svg>
