<svg width="23" height="23" viewBox="0 0 23 23" fill="none" xmlns="http://www.w3.org/2000/svg">
<path fill-rule="evenodd" clip-rule="evenodd" d="M11.4141 2.7981C6.4435 2.7981 2.41406 6.82753 2.41406 11.7981C2.41406 16.7687 6.4435 20.7981 11.4141 20.7981C16.3846 20.7981 20.4141 16.7687 20.4141 11.7981C20.4141 6.82753 16.3846 2.7981 11.4141 2.7981ZM0.414062 11.7981C0.414062 5.72296 5.33893 0.798096 11.4141 0.798096C17.4892 0.798096 22.4141 5.72296 22.4141 11.7981C22.4141 17.8732 17.4892 22.7981 11.4141 22.7981C5.33893 22.7981 0.414062 17.8732 0.414062 11.7981ZM10.4141 6.7981C10.4141 6.24581 10.8618 5.7981 11.4141 5.7981H11.4241C11.9763 5.7981 12.4241 6.24581 12.4241 6.7981C12.4241 7.35038 11.9763 7.7981 11.4241 7.7981H11.4141C10.8618 7.7981 10.4141 7.35038 10.4141 6.7981ZM8.41406 10.7981C8.41406 10.2458 8.86178 9.7981 9.41406 9.7981H11.4141C11.9663 9.7981 12.4141 10.2458 12.4141 10.7981V14.7981H13.4141C13.9663 14.7981 14.4141 15.2458 14.4141 15.7981C14.4141 16.3504 13.9663 16.7981 13.4141 16.7981H9.41406C8.86178 16.7981 8.41406 16.3504 8.41406 15.7981C8.41406 15.2458 8.86178 14.7981 9.41406 14.7981H10.4141V11.7981H9.41406C8.86178 11.7981 8.41406 11.3504 8.41406 10.7981Z" fill="#032621"/>
</svg>
