<svg width="15" height="15" viewBox="0 0 15 15" fill="none" xmlns="http://www.w3.org/2000/svg">
<path d="M6.39844 12.9233C7.72967 12.9231 9.02254 12.4774 10.0712 11.6573L13.3682 14.9543L14.4287 13.8938L11.1317 10.5968C11.9522 9.54809 12.3981 8.25492 12.3984 6.92334C12.3984 3.61509 9.70669 0.92334 6.39844 0.92334C3.09019 0.92334 0.398438 3.61509 0.398438 6.92334C0.398438 10.2316 3.09019 12.9233 6.39844 12.9233ZM6.39844 2.42334C8.88019 2.42334 10.8984 4.44159 10.8984 6.92334C10.8984 9.40509 8.88019 11.4233 6.39844 11.4233C3.91669 11.4233 1.89844 9.40509 1.89844 6.92334C1.89844 4.44159 3.91669 2.42334 6.39844 2.42334Z" fill="#032621"/>
</svg>
