<svg width="25" height="25" viewBox="0 0 25 25" fill="none" xmlns="http://www.w3.org/2000/svg">
<path d="M10.8125 18.9346C12.5875 18.9342 14.3113 18.34 15.7095 17.2466L20.1055 21.6426L21.5195 20.2286L17.1235 15.8326C18.2175 14.4342 18.8121 12.71 18.8125 10.9346C18.8125 6.52357 15.2235 2.93457 10.8125 2.93457C6.4015 2.93457 2.8125 6.52357 2.8125 10.9346C2.8125 15.3456 6.4015 18.9346 10.8125 18.9346ZM10.8125 4.93457C14.1215 4.93457 16.8125 7.62557 16.8125 10.9346C16.8125 14.2436 14.1215 16.9346 10.8125 16.9346C7.5035 16.9346 4.8125 14.2436 4.8125 10.9346C4.8125 7.62557 7.5035 4.93457 10.8125 4.93457Z" fill="white"/>
</svg>
