<svg width="22" height="19" viewBox="0 0 22 19" fill="none" xmlns="http://www.w3.org/2000/svg">
<path d="M15.0953 18.6196C15.5303 19.0396 16.2203 19.0396 16.6553 18.6196L20.7803 14.6446C20.8918 14.5434 20.9819 14.4209 21.0452 14.2843C21.1085 14.1477 21.1437 13.9998 21.1488 13.8493C21.1539 13.6988 21.1287 13.5489 21.0748 13.4083C21.0208 13.2677 20.9392 13.1394 20.8348 13.031C20.7303 12.9225 20.6052 12.8361 20.4668 12.7769C20.3283 12.7177 20.1794 12.6869 20.0289 12.6863C19.8783 12.6857 19.7292 12.7154 19.5903 12.7735C19.4514 12.8316 19.3255 12.9169 19.2203 13.0246L17.0003 15.1636V2.05957C17.0003 1.7612 16.8817 1.47505 16.6708 1.26408C16.4598 1.0531 16.1736 0.93457 15.8753 0.93457C15.5769 0.93457 15.2907 1.0531 15.0798 1.26408C14.8688 1.47505 14.7503 1.7612 14.7503 2.05957V15.1636L12.5303 13.0246C12.425 12.9169 12.2991 12.8316 12.1603 12.7735C12.0214 12.7154 11.8722 12.6857 11.7216 12.6863C11.5711 12.6869 11.4222 12.7177 11.2837 12.7769C11.1453 12.8361 11.0202 12.9225 10.9157 13.031C10.8113 13.1394 10.7297 13.2677 10.6758 13.4083C10.6218 13.5489 10.5967 13.6988 10.6017 13.8493C10.6068 13.9998 10.6421 14.1477 10.7054 14.2843C10.7687 14.4209 10.8587 14.5434 10.9703 14.6446L15.0953 18.6196ZM6.92026 1.26457C6.70932 1.05389 6.42338 0.93556 6.12526 0.93556C5.82713 0.93556 5.5412 1.05389 5.33026 1.26457L1.20526 5.38957C1.00654 5.60283 0.898353 5.8849 0.903496 6.17635C0.908638 6.46781 1.02671 6.74588 1.23283 6.952C1.43894 7.15812 1.71702 7.27619 2.00847 7.28133C2.29993 7.28648 2.582 7.17829 2.79526 6.97957L5.00026 4.77457V17.8096C5.00026 18.1079 5.11878 18.3941 5.32976 18.6051C5.54074 18.816 5.82689 18.9346 6.12526 18.9346C6.42363 18.9346 6.70978 18.816 6.92075 18.6051C7.13173 18.3941 7.25026 18.1079 7.25026 17.8096V4.77457L9.45526 6.97957C9.66852 7.17829 9.95059 7.28648 10.242 7.28133C10.5335 7.27619 10.8116 7.15812 11.0177 6.952C11.2238 6.74588 11.3419 6.46781 11.347 6.17635C11.3522 5.8849 11.244 5.60283 11.0453 5.38957L6.92026 1.26457Z" fill="white"/>
</svg>
