<svg width="51" height="30" viewBox="0 0 51 30" fill="none" xmlns="http://www.w3.org/2000/svg">
<path d="M2 13.2609C0.895431 13.2609 9.65645e-08 14.1563 0 15.2609C-9.65645e-08 16.3654 0.89543 17.2609 2 17.2609L2 13.2609ZM50.4142 16.6751C51.1953 15.894 51.1953 14.6277 50.4142 13.8467L37.6863 1.11873C36.9052 0.337683 35.6389 0.337683 34.8579 1.11873C34.0768 1.89978 34.0768 3.16611 34.8579 3.94716L46.1716 15.2609L34.8579 26.5746C34.0768 27.3556 34.0768 28.622 34.8579 29.403C35.6389 30.1841 36.9052 30.1841 37.6863 29.403L50.4142 16.6751ZM2 17.2609L49 17.2609L49 13.2609L2 13.2609L2 17.2609Z" fill="#FA02DC"/>
</svg>
