<svg width="14" height="15" viewBox="0 0 14 15" fill="none" xmlns="http://www.w3.org/2000/svg">
<g filter="url(#filter0_i)">
<path d="M2.25082 4.16716C4.79098 3.96673 6.75595 2.44528 7.42579 1.70264C8.09562 2.44528 10.0606 3.96673 12.6007 4.16716C12.6463 4.17075 12.6866 4.19617 12.707 4.23706C13.8909 6.62037 14.454 11.842 7.42579 14.1847C0.397584 11.842 0.960673 6.62037 2.14461 4.23706C2.16492 4.19617 2.2053 4.17075 2.25082 4.16716Z" fill="#FB9F16"/>
</g>
<path d="M2.25082 4.16716C4.79098 3.96673 6.75595 2.44528 7.42579 1.70264C8.09562 2.44528 10.0606 3.96673 12.6007 4.16716C12.6463 4.17075 12.6866 4.19617 12.707 4.23706C13.8909 6.62037 14.454 11.842 7.42579 14.1847C0.397584 11.842 0.960673 6.62037 2.14461 4.23706C2.16492 4.19617 2.2053 4.17075 2.25082 4.16716Z" stroke="#983912"/>
<defs>
<filter id="filter0_i" x="0.925781" y="0.956055" width="13" height="17.7559" filterUnits="userSpaceOnUse" color-interpolation-filters="sRGB">
<feFlood flood-opacity="0" result="BackgroundImageFix"/>
<feBlend mode="normal" in="SourceGraphic" in2="BackgroundImageFix" result="shape"/>
<feColorMatrix in="SourceAlpha" type="matrix" values="0 0 0 0 0 0 0 0 0 0 0 0 0 0 0 0 0 0 127 0" result="hardAlpha"/>
<feOffset dy="4"/>
<feGaussianBlur stdDeviation="2"/>
<feComposite in2="hardAlpha" operator="arithmetic" k2="-1" k3="1"/>
<feColorMatrix type="matrix" values="0 0 0 0 1 0 0 0 0 1 0 0 0 0 1 0 0 0 0.25 0"/>
<feBlend mode="normal" in2="shape" result="effect1_innerShadow"/>
</filter>
</defs>
</svg>
