<svg width="56" height="35" viewBox="0 0 56 35" fill="none" xmlns="http://www.w3.org/2000/svg">
<g clip-path="url(#clip0_971:7207)">
<path d="M11.6152 6.7473C20.5823 -2.05086 35.1207 -2.05086 44.0878 6.7473L45.167 7.80617C45.6153 8.24608 45.6153 8.95931 45.167 9.39922L41.4753 13.0214C41.2511 13.2414 40.8876 13.2414 40.6635 13.0214L39.1783 11.5643C32.9227 5.42646 22.7803 5.42646 16.5247 11.5643L14.9342 13.1248C14.71 13.3447 14.3466 13.3447 14.1224 13.1248L10.4307 9.50256C9.98233 9.06265 9.98233 8.34942 10.4307 7.90951L11.6152 6.7473ZM51.7226 14.2384L55.0083 17.4622C55.4566 17.9021 55.4566 18.6153 55.0083 19.0552L40.1931 33.5916C39.7447 34.0315 39.0178 34.0315 38.5695 33.5916C38.5695 33.5916 38.5695 33.5916 38.5695 33.5916L28.0545 23.2747C27.9424 23.1647 27.7607 23.1647 27.6486 23.2747C27.6486 23.2747 27.6486 23.2747 27.6486 23.2747L17.1339 33.5916C16.6856 34.0315 15.9586 34.0315 15.5103 33.5916C15.5103 33.5916 15.5103 33.5916 15.5103 33.5916L0.694663 19.055C0.24631 18.6151 0.24631 17.9019 0.694663 17.462L3.98031 14.2382C4.42867 13.7983 5.15559 13.7983 5.60394 14.2382L16.119 24.5552C16.2311 24.6652 16.4128 24.6652 16.5249 24.5552C16.5249 24.5552 16.5249 24.5552 16.5249 24.5552L27.0395 14.2382C27.4878 13.7983 28.2148 13.7983 28.6631 14.2382C28.6631 14.2382 28.6631 14.2382 28.6631 14.2382L39.1782 24.5552C39.2903 24.6652 39.472 24.6652 39.5841 24.5552L50.099 14.2384C50.5474 13.7985 51.2743 13.7985 51.7226 14.2384Z" fill="#3B99FC"/>
</g>
<defs>
<clipPath id="clip0_971:7207">
<rect width="55" height="33.9888" fill="white" transform="translate(0.351562 0.0861816)"/>
</clipPath>
</defs>
</svg>
